<svg xmlns="http://www.w3.org/2000/svg" width="57" height="112" viewBox="0 0 57 112" fill="none">
  <path d="M32.413 72.0811C32.6522 66.3004 32.5326 60.5197 32.1738 54.7986C31.3963 42.9392 29.4228 31.1395 26.7317 19.5185C25.2367 13.0227 23.323 6.58642 21.4093 0.150184C21.3495 -0.0286001 21.0505 0.0309983 21.1103 0.209783C27.1503 22.7962 32.0542 46.0977 31.7551 69.5781C31.6355 76.1335 30.9179 82.6293 30.2601 89.1252C30.2601 89.3039 30.5591 89.3635 30.5591 89.1847C31.7551 83.6424 32.1738 77.8022 32.413 72.0811Z" fill="#FFC727"/>
  <path d="M21.1103 0.209717C21.1103 0.209717 12.0203 23.2729 14.0536 28.696C16.0869 34.1191 20.3329 35.2514 20.3329 35.2514C20.3329 35.2514 14.7712 43.1775 18.6584 50.6269C22.5456 58.0762 31.217 57.7187 31.815 66.1811C31.6954 66.1811 32.1738 30.901 21.1103 0.209717Z" fill="#FFC727"/>
  <path d="M30.7385 51.6401C30.7385 51.5805 30.7385 51.5805 30.7385 51.5209C29.4826 35.8475 26.6719 20.2336 21.8877 5.15615C21.8877 5.09655 21.8279 5.09655 21.8279 5.15615C23.622 11.8904 25.2366 18.6842 26.6121 25.478C25.4161 24.2861 23.8612 23.5709 22.2465 23.0346C22.1867 23.0346 22.1867 23.0942 22.2465 23.0942C23.921 23.8093 25.5357 24.6436 26.7317 26.0739C26.9709 27.385 27.2699 28.7557 27.5092 30.0668C25.4759 27.8022 22.6651 26.6699 19.7946 25.5972C19.7348 25.5972 19.7348 25.6567 19.7946 25.6567C22.7249 26.8486 25.6553 28.3981 27.6886 30.9011C28.4062 34.7152 29.0042 38.5888 29.5424 42.4029C28.0474 40.8534 26.1935 39.7807 24.1004 39.304C24.0406 39.304 23.9808 39.3635 24.0406 39.4231C26.1935 40.0191 28.0474 41.2706 29.5424 42.9392C29.5424 42.9392 29.5424 42.9392 29.6022 42.9392C29.7817 44.3099 29.9611 45.6806 30.1405 46.9917C29.0042 46.0382 27.7484 45.2634 26.3131 44.7271C26.2533 44.7271 26.2533 44.7867 26.3131 44.7867C27.7484 45.3826 29.0042 46.2765 30.1405 47.2896H30.2003C30.3797 48.6007 30.4993 49.8522 30.6189 51.1633C28.5258 48.6603 25.9543 46.8129 22.9043 45.6806C22.8445 45.6806 22.7847 45.7402 22.8445 45.7998C25.8347 47.1109 28.466 49.1371 30.4395 51.6401C30.4993 51.6997 30.5591 51.6997 30.6189 51.6997C30.7983 53.6663 30.9777 55.6925 31.1571 57.6591C31.1571 57.6591 31.2169 57.7187 31.2169 57.6591C31.0375 55.6925 30.9179 53.6663 30.7385 51.6401Z" fill="#263238"/>
  <path d="M23.3829 20.77C21.828 19.6973 19.7947 19.2205 17.881 19.0417C17.8212 19.0417 17.8212 19.1013 17.881 19.1013C19.8545 19.3993 21.4692 20.1144 23.3231 20.8892C23.3829 20.9488 23.4427 20.8296 23.3829 20.77Z" fill="#263238"/>
  <path d="M24.519 45.2038C23.2632 44.4291 21.8279 44.0119 20.3926 43.7736C20.3328 43.7736 20.3328 43.8332 20.3926 43.8332C21.8279 44.0715 23.1436 44.6079 24.4592 45.2634C24.519 45.323 24.5788 45.2038 24.519 45.2038Z" fill="#263238"/>
  <path d="M56.3939 29.1131C52.5665 31.7949 48.9186 34.8342 45.8686 38.2907C42.5795 41.9856 40.1276 46.1572 38.4531 50.8056C34.9845 60.3408 33.1307 70.5911 32.9512 80.7222C32.8316 86.3837 33.3699 91.9856 34.5659 97.5279C34.6257 97.7067 34.9247 97.6471 34.8649 97.4683C33.3699 87.7544 33.4297 77.802 35.0443 68.0881C36.5992 58.5529 39.0511 48.1834 45.151 40.4361C48.4401 36.2049 52.5665 32.8676 56.6929 29.4707C56.8723 29.2323 56.5733 28.9343 56.3939 29.1131Z" fill="#FFC727"/>
  <path d="M34.2668 73.8689C34.2668 73.8689 37.3766 68.6245 41.9814 64.0953C46.5264 59.5662 50.4136 56.348 50.9518 53.3087C51.5498 50.329 46.4068 48.0644 46.4068 48.0644C46.4068 48.0644 52.7459 49.1967 54.4203 46.5745C56.1546 43.9523 56.9919 28.6365 56.9919 28.6365C56.9919 28.6365 45.5097 36.801 40.1873 48.2431C34.8051 59.6853 34.2668 73.8689 34.2668 73.8689Z" fill="#FFC727"/>
  <path d="M52.9852 32.5101C48.1412 37.2181 43.2972 42.2837 40.4266 48.4815C39.4698 50.6269 38.6326 52.8319 37.9149 55.0965C37.7953 55.5733 37.6159 55.9905 37.4963 56.4672V56.5268C36.061 61.1752 35.1042 65.9428 34.2072 70.6508C34.2072 70.7104 34.267 70.7104 34.267 70.6508C34.7454 68.267 35.2836 65.8832 35.9414 63.4398H36.0012C36.9581 63.0226 37.9747 62.7842 38.9914 62.6651C39.0512 62.6651 39.0512 62.5459 38.9914 62.5459C37.9747 62.6055 36.9581 62.7843 36.0012 63.0822C36.5395 60.9368 37.1375 58.7318 37.8551 56.646C40.0678 56.1097 42.4001 55.8117 44.6726 55.7521V55.6925C42.4001 55.5733 40.1874 55.8117 37.9747 56.2884C38.0943 55.9309 38.2139 55.5733 38.3335 55.2157C39.8286 54.8582 41.3237 54.6198 42.8785 54.441V54.3814C41.3835 54.441 39.8884 54.5602 38.4531 54.9177C39.0512 53.0703 39.7688 51.2825 40.4864 49.4946C41.0845 48.0048 41.8619 46.6341 42.6393 45.323C43.8952 45.025 45.0314 44.7867 46.2873 44.6675C46.3471 44.6675 46.3471 44.6079 46.2873 44.6079C45.151 44.5483 43.955 44.6079 42.8785 44.9654C43.4766 44.0119 44.1344 43.0584 44.7922 42.1049C47.3637 41.5089 49.9951 41.0322 52.6264 41.5089C52.6862 41.5089 52.6862 41.4493 52.6264 41.4493C50.1147 40.7938 47.6029 41.1514 45.151 41.6877C45.4501 41.3302 45.6893 40.9726 45.9883 40.615C47.5431 40.1383 49.1578 39.8999 50.7725 39.8403C50.8323 39.8403 50.8323 39.7807 50.7725 39.7807C49.2774 39.6615 47.7226 39.7807 46.2873 40.1979C48.4402 37.5757 50.7725 35.0727 53.1048 32.6293C53.2244 32.4505 53.1048 32.3909 52.9852 32.5101Z" fill="#263238"/>
  <path d="M52.8655 42.9392C52.088 42.8796 51.3704 42.7604 50.593 42.8796C50.4734 42.8796 50.5332 43.0584 50.593 43.0584C51.3704 43.0584 52.088 42.9988 52.8655 43.0584C52.9253 43.0584 52.9253 42.9392 52.8655 42.9392Z" fill="#263238"/>
  <path d="M44.6128 57.7783C43.4168 57.7783 42.2207 58.0763 41.0845 58.4935V58.5531C42.2805 58.2551 43.4168 58.1359 44.6128 57.9571C44.7324 57.9571 44.7324 57.7783 44.6128 57.7783Z" fill="#263238"/>
  <path d="M42.1011 52.6531C41.6227 52.6531 41.0844 52.7127 40.606 52.7723C40.5462 52.7723 40.5462 52.8318 40.606 52.8318C41.0844 52.8318 41.6227 52.8318 42.1011 52.7723C42.2207 52.7723 42.2207 52.6531 42.1011 52.6531Z" fill="#263238"/>
  <path d="M0.598018 45.323C4.30578 46.5745 7.95374 48.2432 11.2429 50.329C14.7712 52.534 17.7016 55.3945 20.1535 58.7318C25.1769 65.6448 29.0641 73.5113 31.5758 81.6758C32.9513 86.2646 33.8483 90.913 34.1473 95.6806C34.1473 95.8594 33.9081 95.8594 33.9081 95.6806C32.8317 87.4565 30.4993 79.4112 26.971 71.9023C23.5024 64.5721 19.077 56.7056 12.3791 51.8188C8.73118 49.1371 4.6048 47.4088 0.478413 45.621C0.239202 45.5614 0.358807 45.2634 0.598018 45.323Z" fill="#FFC727"/>
  <path d="M28.8847 76.4314C28.8847 76.4314 25.1171 72.9154 20.3927 70.2932C15.6683 67.671 11.7811 65.9428 10.5851 63.6186C9.38902 61.2944 13.0968 58.3146 13.0968 58.3146C13.0968 58.3146 8.25277 60.6984 6.21948 58.9702C4.24599 57.2419 0 45.0846 0 45.0846C0 45.0846 11.1831 49.0774 18.18 57.0631C25.1769 65.1084 28.8847 76.4314 28.8847 76.4314Z" fill="#FFC727"/>
  <path d="M28.2867 73.9285C22.6652 63.4398 15.2497 53.9642 5.02344 47.7664C7.71456 49.4946 10.2263 51.4612 12.4988 53.6067C10.4057 53.5471 8.31258 53.9046 6.4587 54.8581C6.3989 54.8581 6.4587 54.9177 6.5185 54.9177C8.55179 54.2026 10.5253 53.7854 12.6782 53.9046C12.738 53.9046 12.738 53.9046 12.738 53.9046C13.0968 54.2622 13.4556 54.6198 13.8144 54.9773C12.738 55.0369 11.6615 55.1561 10.5851 55.3945V55.4541C11.7213 55.2157 12.8576 55.1561 13.9938 55.1561C15.8477 57.0036 17.6418 59.0298 19.2565 61.1156C18.5388 60.9964 17.7016 61.056 16.984 61.2944C16.9242 61.2944 16.9242 61.4136 16.984 61.354C17.8212 61.2348 18.5986 61.2944 19.3761 61.2944C19.6751 61.7115 19.9741 62.0691 20.2731 62.4863C18.0006 62.3671 15.7281 62.5459 13.4556 63.1418C13.3958 63.1418 13.4556 63.2014 13.4556 63.2014C15.7879 62.7247 18.0604 62.6055 20.4525 62.7246C20.7515 63.0822 20.9907 63.4994 21.2898 63.8569C19.9143 63.7973 18.5986 63.9761 17.2232 64.3337C17.1634 64.3337 17.1634 64.4529 17.2232 64.3933C18.5986 64.0953 19.9741 63.9761 21.4094 64.0953C22.6054 65.764 23.7417 67.4326 24.8779 69.1609C24.2799 69.0417 23.6819 69.1013 23.0838 69.2801C23.024 69.2801 23.0838 69.3397 23.0838 69.3397C23.7417 69.2801 24.3397 69.3397 24.9975 69.4589C26.0142 71.0083 26.971 72.5578 27.8681 74.1072C28.1671 74.1668 28.3465 74.0477 28.2867 73.9285Z" fill="#263238"/>
  <path d="M19.6153 65.2277C18.5389 65.1085 17.4026 65.2873 16.386 65.6449V65.7045C17.4624 65.5257 18.5389 65.4065 19.6153 65.3469C19.6751 65.3469 19.6751 65.2277 19.6153 65.2277Z" fill="#263238"/>
  <path d="M9.80762 52.4744C9.3292 52.4148 8.79097 52.4744 8.31255 52.534C8.25275 52.534 8.25275 52.6531 8.31255 52.5935C8.79097 52.534 9.2694 52.534 9.80762 52.534C9.92723 52.5935 9.92723 52.4744 9.80762 52.4744Z" fill="#263238"/>
  <path d="M43.2971 111.056H18.0604L21.6486 84.7747L22.5456 78.0405H38.8119L39.709 84.7747L43.2971 111.056Z" fill="#455A64"/>
  <path d="M39.709 84.7747H21.6486L22.5456 78.0405H38.8119L39.709 84.7747Z" fill="#263238"/>
  <path d="M41.1443 75.6567H20.2732V81.3778H41.1443V75.6567Z" fill="#455A64"/>
</svg>