<svg xmlns="http://www.w3.org/2000/svg" width="45" height="45" viewBox="0 0 45 45" fill="none">
  <path d="M24.7959 0.660278H20.6017C9.55599 0.660278 0.601685 9.61458 0.601685 20.6603V24.7008C0.601685 35.7465 9.55598 44.7008 20.6017 44.7008H24.7959C35.8415 44.7008 44.7959 35.7465 44.7959 24.7008V20.6603C44.7959 9.61458 35.8416 0.660278 24.7959 0.660278Z" fill="#24CCA7"/>
  <path d="M32.4765 31.4112H11.8446L6.76135 13.1752H35.7656L36.8421 8.94397H40.1312V10.1359H37.7989L32.4765 31.4112ZM12.8014 30.2193H31.5795L35.5264 14.3671H8.43583L12.8014 30.2193Z" fill="white"/>
  <path d="M14.7749 35.0464L13.6387 34.5697L15.4926 30.2193H29.5462L31.0412 34.6293L29.905 34.9869L28.6491 31.4112H16.3298L14.7749 35.0464Z" fill="white"/>
  <path d="M35.2274 17.3468H8.91418V18.5387H35.2274V17.3468Z" fill="white"/>
  <path d="M33.7899 21.7651L9.9884 21.8695L9.99367 23.0614L33.7951 22.957L33.7899 21.7651Z" fill="white"/>
  <path d="M32.8353 26.4052H11.2466V27.5971H32.8353V26.4052Z" fill="white"/>
  <path d="M22.9081 13.8903H21.712V30.8748H22.9081V13.8903Z" fill="white"/>
  <path d="M18.2755 13.81L17.0833 13.9053L18.4503 30.8948L19.6425 30.7996L18.2755 13.81Z" fill="white"/>
  <path d="M13.1376 13.7421L11.9613 13.9577L15.0986 30.955L16.2749 30.7394L13.1376 13.7421Z" fill="white"/>
  <path d="M26.2962 13.8244L24.9259 30.814L26.1181 30.9095L27.4884 13.9199L26.2962 13.8244Z" fill="white"/>
  <path d="M31.4488 13.7193L28.3149 30.7166L29.4913 30.932L32.6251 13.9347L31.4488 13.7193Z" fill="white"/>
  <path d="M14.2367 37.3707C12.8014 37.3707 11.6652 36.2384 11.6652 34.8081C11.6652 33.3778 12.8014 32.2455 14.2367 32.2455C15.6719 32.2455 16.8082 33.3778 16.8082 34.8081C16.8082 36.2384 15.6121 37.3707 14.2367 37.3707ZM14.2367 33.4374C13.4592 33.4374 12.8612 34.0334 12.8612 34.8081C12.8612 35.5829 13.4592 36.1788 14.2367 36.1788C15.0141 36.1788 15.6121 35.5829 15.6121 34.8081C15.6121 34.0334 14.9543 33.4374 14.2367 33.4374Z" fill="white"/>
  <path d="M30.4432 37.3707C29.008 37.3707 27.8717 36.2384 27.8717 34.8081C27.8717 33.3778 29.008 32.2455 30.4432 32.2455C31.8785 32.2455 33.0147 33.3778 33.0147 34.8081C33.0147 36.2384 31.8785 37.3707 30.4432 37.3707ZM30.4432 33.4374C29.6658 33.4374 29.0678 34.0334 29.0678 34.8081C29.0678 35.5829 29.6658 36.1788 30.4432 36.1788C31.2207 36.1788 31.8187 35.5829 31.8187 34.8081C31.8187 34.0334 31.1609 33.4374 30.4432 33.4374Z" fill="white"/>
</svg>