<svg xmlns="http://www.w3.org/2000/svg" width="117" height="218" viewBox="0 0 117 218" fill="none">
  <path d="M106.487 0.693665H10.5635C5.18128 0.693665 0.875488 5.10368 0.875488 10.5268V207.309C0.875488 212.732 5.24108 217.142 10.5635 217.142H106.487C111.869 217.142 116.175 212.732 116.175 207.309V10.5268C116.175 5.10368 111.869 0.693665 106.487 0.693665ZM110.135 201.23C110.135 206.415 106.248 210.586 101.464 210.586H15.6467C10.8625 210.586 6.91556 206.415 6.91556 201.23V18.0357C6.91556 7.48747 10.8027 6.95111 15.6467 6.95111H32.8101C33.8268 6.95111 34.6042 8.08341 34.6042 9.51369V10.1096C34.6042 13.3873 36.3983 13.3873 38.611 13.3873H78.3797C80.5924 13.3873 82.3865 13.3873 82.3865 10.1096V9.51369C82.3865 8.08341 83.1639 6.95111 84.1806 6.95111H101.344C106.128 6.95111 110.015 8.32179 110.015 18.0357V201.23H110.135Z" fill="#263238"/>
  <path d="M110.135 19.8236V201.23C110.135 206.415 106.248 210.586 101.464 210.586H15.6467C10.8625 210.586 6.91553 206.415 6.91553 201.23V19.8236C6.91553 9.27531 10.8027 6.95111 15.6467 6.95111H32.8101C33.8267 6.95111 34.6042 8.08341 34.6042 9.51368V10.1096C34.6042 13.3873 36.3982 13.3873 38.6109 13.3873H78.3797C80.5924 13.3873 82.3865 13.3873 82.3865 10.1096V9.51368C82.3865 8.08341 83.1639 6.95111 84.1806 6.95111H101.344C106.248 6.95111 110.135 10.1692 110.135 19.8236Z" fill="white"/>
  <path d="M63.9673 9.27532H53.1431C52.7842 9.27532 52.4852 8.97734 52.4852 8.61977C52.4852 8.26221 52.7842 7.96423 53.1431 7.96423H63.9673C64.3262 7.96423 64.6252 8.26221 64.6252 8.61977C64.6252 8.97734 64.3262 9.27532 63.9673 9.27532Z" fill="white"/>
  <path d="M64.0271 108.739H51.5283V110.348H64.0271V108.739Z" fill="#C7C7C7"/>
  <path d="M31.7473 32.1001H21.4341C17.0158 32.1001 13.4341 35.6818 13.4341 40.1001V50.3218C13.4341 54.7401 17.0158 58.3218 21.4341 58.3218H31.7473C36.1655 58.3218 39.7473 54.7401 39.7473 50.3218V40.1001C39.7473 35.6818 36.1655 32.1001 31.7473 32.1001Z" fill="#FFD8D0"/>
  <path d="M29.4014 48.6078L25.9328 47.4755C25.9328 47.4755 24.1387 48.8462 22.9427 46.522C22.9427 46.522 20.2515 47.2967 19.3545 44.4958C19.3545 44.4958 16.0654 43.4827 17.0222 41.5756C17.979 39.7282 20.6104 41.6948 20.6104 41.6948C20.6104 41.6948 23.2417 41.4565 24.1387 44.1382C24.1387 44.1382 26.6504 44.1382 26.6504 46.4624L29.4014 48.6078Z" fill="#263238"/>
  <path d="M18.5771 42.2908C19.534 42.7675 20.431 43.2443 21.3281 43.7806C22.2251 44.2574 23.1819 44.7938 24.079 45.3301C24.976 45.8665 25.8731 46.4028 26.7701 46.9392C27.6671 47.4755 28.5642 48.0119 29.4014 48.6674L28.7436 48.1907L28.0858 47.7735L26.7103 46.9988L24.0192 45.4493L21.3281 43.8998C20.3712 43.3635 19.4742 42.8271 18.5771 42.2908Z" fill="white"/>
  <path d="M29.5808 48.4887L29.6406 44.8534C29.6406 44.8534 31.4945 43.6019 29.7004 41.7545C29.7004 41.7545 31.3151 39.4899 28.923 37.7616C28.923 37.7616 29.0426 34.3051 26.9495 34.6031C24.8564 34.9011 25.873 38 25.873 38C25.873 38 24.7966 40.3838 27.0691 42.1717C27.0691 42.1717 26.2319 44.5554 28.4446 45.2706L29.5808 48.4887Z" fill="#263238"/>
  <path d="M27.1289 36.2122C27.3681 37.2253 27.5475 38.2384 27.7269 39.2515L28.325 42.3504L28.923 45.4493L29.222 46.9988L29.4014 47.7735L29.5808 48.5483C29.2818 47.5352 29.0426 46.522 28.8034 45.5089C28.5642 44.4958 28.3848 43.4827 28.1456 42.4696C27.9661 41.4565 27.7269 40.4434 27.5475 39.3707C27.4279 38.298 27.3083 37.2253 27.1289 36.2122Z" fill="white"/>
  <path d="M29.82 49.025L26.4112 45.5089C26.4112 45.5089 23.5407 46.2241 23.3015 42.8272C23.3015 42.8272 19.5937 42.3504 20.0721 38.4767C20.0721 38.4767 16.6036 35.497 18.7565 33.7092C20.9094 31.9809 23.0623 35.7354 23.0623 35.7354C23.0623 35.7354 26.3514 36.8677 26.0524 40.5626C26.0524 40.5626 29.1023 41.8736 27.9063 44.6746L29.82 49.025Z" fill="#455A64"/>
  <path d="M20.9692 35.6162C21.8065 36.6293 22.6437 37.702 23.4211 38.8343C23.6006 39.1323 23.8398 39.3707 24.0192 39.6686L24.6172 40.503C24.7966 40.801 24.976 41.0393 25.1554 41.3373C25.3348 41.6353 25.5142 41.8737 25.6936 42.1716C26.0525 42.708 26.4113 43.3039 26.7701 43.8403L27.3083 44.6746L27.5475 45.0918L27.7867 45.5089C28.5044 46.6412 29.1024 47.8331 29.7602 49.025L29.521 48.6079L29.2818 48.1907L29.0426 47.7735L28.8034 47.3564L28.2652 46.522L27.7269 45.6877C27.0093 44.5554 26.2917 43.4231 25.574 42.2908C25.2152 41.7545 24.8564 41.1585 24.4378 40.6222L23.8996 39.7878L23.3015 38.9535C22.9427 38.4172 22.5241 37.8808 22.1653 37.2849C21.7467 36.6889 21.3281 36.1526 20.9692 35.6162Z" fill="white"/>
  <path d="M35.2619 48.9654C35.3217 49.025 35.3815 49.1442 35.4413 49.2038C37.1158 51.8259 34.9031 53.8522 34.8433 54.8057C34.7835 55.7592 35.5012 56.3552 35.0825 56.7127C34.6639 57.0107 34.3051 56.1168 33.3483 55.8784C32.6306 55.6996 30.7169 56.5339 29.0425 55.64C28.9229 55.5804 28.7435 55.4612 28.6239 55.4016C28.3248 55.2228 28.0856 54.9845 27.8464 54.6269C27.7866 54.5673 27.7268 54.4481 27.667 54.3885C27.6072 54.3289 27.6072 54.3289 27.5474 54.2693C26.8298 53.1966 26.5308 52.1835 26.5906 51.2896C26.5906 51.1108 26.6504 50.8724 26.6504 50.6936C26.8896 49.5018 27.6072 48.5482 28.6239 47.8331C30.2385 46.7008 32.3914 46.4028 34.1257 47.8927C34.2453 48.0119 34.3649 48.0715 34.4845 48.1907C34.7237 48.429 34.9031 48.6674 35.1423 48.9058C35.2021 48.9058 35.2619 48.9058 35.2619 48.9654Z" fill="white"/>
  <path d="M31.0161 53.6734L31.2553 54.031L29.0426 55.64C28.923 55.5804 28.7436 55.4612 28.624 55.4016L31.0161 53.6734Z" fill="#DBDBDB"/>
  <path d="M29.1622 53.1371L29.4014 53.4947L27.8465 54.5674C27.7867 54.5078 27.7269 54.3886 27.6671 54.329C27.6073 54.2694 27.6073 54.2694 27.5475 54.2098L29.1622 53.1371Z" fill="#DBDBDB"/>
  <path d="M35.262 48.9654C35.3218 49.025 35.3816 49.1442 35.4414 49.2038L33.8866 50.2765L33.6473 49.919L35.2022 48.8463C35.2022 48.9058 35.262 48.9058 35.262 48.9654Z" fill="#DBDBDB"/>
  <path d="M34.5444 48.1311L33.468 48.9058L33.2288 48.5483L34.2454 47.8331C34.3052 47.8927 34.4248 48.0119 34.5444 48.1311Z" fill="#DBDBDB"/>
  <path d="M27.9063 49.7402L28.1455 50.0977L26.5907 51.1704C26.5907 50.9917 26.6505 50.7533 26.6505 50.5745L27.9063 49.7402Z" fill="#DBDBDB"/>
  <path d="M21.7466 60.4672C21.8064 60.4672 21.8662 60.5268 21.8662 60.5864V60.7652C22.225 60.7652 22.4642 60.8844 22.7034 61.1228C22.7632 61.1824 22.7632 61.1824 22.7632 61.242C22.7632 61.3016 22.7034 61.3611 22.6436 61.3611C22.6436 61.3611 22.5838 61.3611 22.5838 61.3016C22.3446 61.1228 22.1054 61.0036 21.8662 61.0036V62.3147C22.5838 62.4934 22.8828 62.7318 22.8828 63.2086C22.8828 63.6853 22.4642 64.0429 21.8662 64.1025V64.4601C21.8662 64.5197 21.8064 64.5793 21.7466 64.5793C21.6868 64.5793 21.627 64.5197 21.627 64.4601V64.1025C21.2084 64.0429 20.8495 63.9237 20.5505 63.6257C20.4907 63.6257 20.4907 63.5661 20.4907 63.5066C20.4907 63.447 20.5505 63.3874 20.6103 63.3874C20.6701 63.3874 20.6701 63.3874 20.6701 63.447C20.9093 63.6853 21.2084 63.8641 21.627 63.8641V62.4934C20.9093 62.3147 20.6103 62.0763 20.6103 61.5995C20.6103 61.1228 21.029 60.7652 21.627 60.7652V60.5864C21.6868 60.4672 21.6868 60.4672 21.7466 60.4672ZM21.6868 62.2551V60.944C21.2084 60.944 20.9093 61.242 20.9093 61.5995C20.9093 61.8975 21.0289 62.0763 21.6868 62.2551ZM21.8662 62.553V63.8641C22.3446 63.8641 22.6436 63.5661 22.6436 63.2086C22.6436 62.851 22.524 62.6722 21.8662 62.553Z" fill="#A6A6A6"/>
  <path d="M23.5406 63.8641L25.0955 62.4339C25.2749 62.2551 25.3945 62.0167 25.3945 61.7783C25.3945 61.5995 25.3347 61.3612 25.1553 61.1824C24.9759 61.0036 24.7367 60.8844 24.4975 60.8844C24.2583 60.8844 24.0789 60.944 23.8995 61.1228L23.72 61.242C23.6602 61.3016 23.6004 61.3016 23.5406 61.242C23.4808 61.1824 23.4808 61.1228 23.5406 61.0632L23.72 60.8844C23.9593 60.7056 24.1985 60.5864 24.4377 60.5864C24.7367 60.5864 25.0357 60.7056 25.2151 60.944C25.3945 61.1824 25.5141 61.4207 25.5141 61.6591C25.5141 61.9571 25.3945 62.2551 25.1553 62.4934L23.8397 63.6853H25.3945C25.4543 63.6853 25.5141 63.7449 25.5141 63.8045C25.5141 63.8641 25.4543 63.9237 25.3945 63.9237H23.5406C23.4808 63.9237 23.4808 63.9237 23.4808 63.8641C23.4808 63.9833 23.4808 63.9237 23.5406 63.8641Z" fill="#A6A6A6"/>
  <path d="M26.7103 63.5662C26.8299 63.5662 26.9495 63.6853 26.9495 63.8045C26.9495 63.9237 26.8299 64.0429 26.7103 64.0429C26.5907 64.0429 26.4711 63.9237 26.4711 63.8045C26.4711 63.6853 26.5907 63.5662 26.7103 63.5662Z" fill="#A6A6A6"/>
  <path d="M27.5474 63.7449C27.4876 63.6853 27.4876 63.6257 27.5474 63.5661C27.6072 63.5065 27.667 63.5065 27.7268 63.5661C27.9062 63.7449 28.1454 63.8045 28.3846 63.8045C28.6239 63.8045 28.8631 63.7449 29.0425 63.5661C29.2219 63.3873 29.2817 63.1489 29.2817 62.9106C29.2817 62.6722 29.2219 62.4338 29.0425 62.255C28.8631 62.0762 28.6239 62.0166 28.3846 62.0166C28.1454 62.0166 27.9062 62.0762 27.7268 62.255C27.667 62.3146 27.6072 62.3146 27.5474 62.255C27.5474 62.255 27.5474 62.255 27.5474 62.1954C27.5474 62.1954 27.5474 62.1954 27.5474 62.1358L27.7268 60.7652C27.7268 60.7056 27.7268 60.7056 27.7866 60.7056H27.8464H29.4013C29.4611 60.7056 29.5209 60.7652 29.5209 60.8248C29.5209 60.8843 29.4611 60.9439 29.4013 60.9439H27.966L27.8464 61.9571C28.0258 61.8379 28.2052 61.7783 28.4445 61.7783C28.7435 61.7783 29.0425 61.8975 29.2219 62.1358C29.4611 62.3742 29.5807 62.6126 29.5807 62.9106C29.5807 63.2085 29.4611 63.5065 29.2219 63.6853C28.9827 63.9237 28.6837 64.0429 28.4445 64.0429C28.0258 64.0429 27.7268 63.9833 27.5474 63.7449Z" fill="#A6A6A6"/>
  <path d="M30.418 62.3742C30.418 61.8975 30.5376 61.5399 30.717 61.1823C30.8964 60.8844 31.1954 60.7056 31.5542 60.7056C31.913 60.7056 32.2121 60.8844 32.3915 61.1823C32.5709 61.4803 32.6905 61.8975 32.6905 62.3742C32.6905 62.851 32.5709 63.2085 32.3915 63.5661C32.2121 63.8641 31.913 64.0429 31.5542 64.0429C31.1954 64.0429 30.8964 63.8641 30.717 63.5661C30.4778 63.2681 30.418 62.851 30.418 62.3742ZM30.5974 62.3742C30.5974 62.7914 30.717 63.1489 30.8964 63.3873C31.0758 63.6257 31.315 63.8045 31.5542 63.8045C31.7934 63.8045 32.0326 63.6853 32.2121 63.3873C32.3915 63.1489 32.5111 62.7914 32.5111 62.3742C32.5111 61.9571 32.3915 61.5995 32.2121 61.3611C32.0326 61.1227 31.7934 60.9439 31.5542 60.9439C31.315 60.9439 31.0758 61.0631 30.8964 61.3611C30.717 61.5995 30.5974 62.0167 30.5974 62.3742Z" fill="#A6A6A6"/>
  <path d="M62.8446 32.1001H52.5314C48.1131 32.1001 44.5314 35.6818 44.5314 40.1001V50.3218C44.5314 54.7401 48.1131 58.3218 52.5314 58.3218H62.8446C67.2628 58.3218 70.8446 54.7401 70.8446 50.3218V40.1001C70.8446 35.6818 67.2628 32.1001 62.8446 32.1001Z" fill="#FFD8D0"/>
  <path d="M62.2928 48.727C65.6418 52.1239 68.9907 55.64 68.9907 55.64C68.8113 56.5339 67.7947 56.7723 67.7947 56.7723C67.7947 56.7723 64.3261 53.2562 61.037 49.9785C60.9174 49.8593 60.7978 49.7401 60.6782 49.6209C60.6184 49.5613 60.4988 49.4422 60.439 49.3826C60.1997 49.1442 59.9605 48.9058 59.7213 48.6674C59.6615 48.6078 59.5419 48.4886 59.4821 48.429C59.0037 47.9523 58.5253 47.4755 58.1067 46.9988C58.0469 46.9392 57.9272 46.82 57.8674 46.7604C56.492 45.3897 55.4753 44.3766 55.1763 44.019C53.6813 42.4696 46.3255 39.311 46.3255 39.311C46.3255 39.311 45.7275 38.8939 46.5049 37.8808C46.5049 37.8808 49.3755 39.2515 52.0068 40.5625L45.7873 36.6293C45.7873 36.6293 45.7275 36.0333 46.3255 35.5566L49.8539 37.8808L46.6843 34.8414C46.6843 34.8414 46.7442 34.3647 47.6412 33.9475L53.143 39.609L49.2559 34.4839C49.2559 34.4839 49.6745 33.9475 50.2127 33.7687C50.2127 33.7687 52.6048 37.404 56.0136 41.8736L52.4852 35.8546C52.4852 35.8546 52.7842 35.4374 53.442 35.3778C53.442 35.3778 56.2528 41.9928 59.1831 45.3897C59.2429 45.4493 59.3027 45.5685 59.4223 45.6281C59.5419 45.7473 59.6615 45.8665 59.7213 45.9857C60.0801 46.3432 60.439 46.7008 60.7978 47.0584C60.8576 47.118 60.9772 47.2372 61.037 47.2967C61.2762 47.5351 61.5154 47.7735 61.7546 48.0119C61.8144 48.0715 61.934 48.1907 61.9938 48.2503C62.0536 48.4886 62.1732 48.6078 62.2928 48.727Z" fill="white"/>
  <path d="M53.3822 35.5566C53.3822 35.5566 56.193 42.1716 59.1233 45.5685L57.8674 46.7604C56.492 45.3897 55.4753 44.3766 55.1763 44.019C53.6813 42.4696 46.3255 39.311 46.3255 39.311C46.3255 39.311 45.7275 38.8939 46.5049 37.8808C46.5049 37.8808 49.3755 39.2515 52.0068 40.5625L45.7873 36.6293C45.7873 36.6293 45.7275 36.0333 46.3255 35.5566L49.8539 37.8808L46.6843 34.8414C46.6843 34.8414 46.7442 34.3647 47.6412 33.9475L53.143 39.609L49.2559 34.4839C49.2559 34.4839 49.6745 33.9475 50.2127 33.7687C50.2127 33.7687 52.6048 37.404 56.0136 41.8736L52.4852 35.8546C52.4254 36.0333 52.6646 35.6162 53.3822 35.5566Z" fill="#455A64"/>
  <path d="M60.738 47.2372L59.4821 48.4291C59.0037 47.9523 58.5253 47.4755 58.1067 46.9988L59.3625 45.8069C59.4822 45.9261 59.6018 46.0453 59.6616 46.1645C60.0204 46.522 60.3792 46.8796 60.738 47.2372Z" fill="#455A64"/>
  <path d="M61.6948 48.1311L60.4389 49.323C60.1997 49.0846 59.9605 48.8462 59.7213 48.6078L60.9772 47.416C61.2164 47.7139 61.4556 47.8927 61.6948 48.1311Z" fill="#455A64"/>
  <path d="M62.2928 48.727L61.0369 49.9189C60.9173 49.7997 60.7977 49.6805 60.6781 49.5613L61.934 48.3694C62.0536 48.4886 62.1732 48.6078 62.2928 48.727Z" fill="#455A64"/>
  <path d="M53.1429 60.4672C53.2028 60.4672 53.2626 60.5268 53.2626 60.5864V60.7652C53.6214 60.7652 53.8606 60.8844 54.0998 61.1228C54.1596 61.1824 54.1596 61.1824 54.1596 61.242C54.1596 61.3016 54.0998 61.3611 54.04 61.3611C54.04 61.3611 53.9802 61.3611 53.9802 61.3016C53.741 61.1228 53.5018 61.0036 53.2626 61.0036V62.3147C53.9802 62.4934 54.2792 62.7318 54.2792 63.2086C54.2792 63.6853 53.8606 64.0429 53.2626 64.1025V64.4601C53.2626 64.5197 53.2028 64.5793 53.1429 64.5793C53.0831 64.5793 53.0233 64.5197 53.0233 64.4601V64.1025C52.6047 64.0429 52.2459 63.9237 51.9469 63.6257C51.8871 63.6257 51.8871 63.5661 51.8871 63.5066C51.8871 63.447 51.9469 63.3874 52.0067 63.3874C52.0665 63.3874 52.0665 63.3874 52.0665 63.447C52.3057 63.6853 52.6047 63.8641 53.0233 63.8641V62.4934C52.3057 62.3147 52.0067 62.0763 52.0067 61.5995C52.0067 61.1228 52.4253 60.7652 53.0233 60.7652V60.5864C53.0233 60.4672 53.0233 60.4672 53.1429 60.4672ZM53.0233 62.2551V60.944C52.5449 60.944 52.2459 61.242 52.2459 61.5995C52.2459 61.8975 52.3655 62.0763 53.0233 62.2551ZM53.2027 62.553V63.8641C53.6812 63.8641 53.9802 63.5661 53.9802 63.2086C53.9802 62.851 53.8606 62.6722 53.2027 62.553Z" fill="#A6A6A6"/>
  <path d="M55.4155 61.0631L54.9371 61.3611H54.8773C54.8175 61.3611 54.8175 61.3611 54.7577 61.3015C54.6979 61.2419 54.7577 61.1823 54.8175 61.1227L55.4753 60.7056C55.5351 60.7056 55.5949 60.7056 55.6547 60.7652V60.8248V63.8641C55.6547 63.9237 55.5949 63.9833 55.5351 63.9833C55.4753 63.9833 55.4155 63.9237 55.4155 63.8641V61.0631Z" fill="#A6A6A6"/>
  <path d="M56.8508 63.5662C56.9704 63.5662 57.09 63.6853 57.09 63.8045C57.09 63.9237 56.9704 64.0429 56.8508 64.0429C56.7312 64.0429 56.6116 63.9237 56.6116 63.8045C56.6116 63.6853 56.7312 63.5662 56.8508 63.5662Z" fill="#A6A6A6"/>
  <path d="M57.5085 62.3742C57.5085 61.8975 57.6281 61.5399 57.8076 61.1823C57.987 60.8844 58.286 60.7056 58.6448 60.7056C59.0036 60.7056 59.3026 60.8844 59.482 61.1823C59.6614 61.4803 59.781 61.8975 59.781 62.3742C59.781 62.851 59.6614 63.2085 59.482 63.5661C59.3026 63.8641 59.0036 64.0429 58.6448 64.0429C58.286 64.0429 57.987 63.8641 57.8076 63.5661C57.6281 63.2681 57.5085 62.851 57.5085 62.3742ZM57.7478 62.3742C57.7478 62.7914 57.8674 63.1489 58.0468 63.3873C58.2262 63.6257 58.4654 63.8045 58.7046 63.8045C58.9438 63.8045 59.183 63.6853 59.3624 63.3873C59.5418 63.1489 59.6614 62.7914 59.6614 62.3742C59.6614 61.9571 59.5418 61.5995 59.3624 61.3611C59.183 61.1227 58.9438 60.9439 58.7046 60.9439C58.4654 60.9439 58.2262 61.0631 58.0468 61.3611C57.8674 61.5995 57.7478 62.0167 57.7478 62.3742Z" fill="#A6A6A6"/>
  <path d="M60.9172 62.3742C60.9172 61.8975 61.0368 61.5399 61.2163 61.1823C61.3957 60.8844 61.6947 60.7056 62.0535 60.7056C62.4123 60.7056 62.7113 60.8844 62.8907 61.1823C63.0701 61.4803 63.1897 61.8975 63.1897 62.3742C63.1897 62.851 63.0701 63.2085 62.8907 63.5661C62.7113 63.8641 62.4123 64.0429 62.0535 64.0429C61.6947 64.0429 61.3957 63.8641 61.2163 63.5661C61.0368 63.2681 60.9172 62.851 60.9172 62.3742ZM61.1564 62.3742C61.1564 62.7914 61.276 63.1489 61.4555 63.3873C61.6349 63.6257 61.8741 63.8045 62.1133 63.8045C62.3525 63.8045 62.5917 63.6853 62.7711 63.3873C62.9505 63.1489 63.0701 62.7914 63.0701 62.3742C63.0701 61.9571 62.9505 61.5995 62.7711 61.3611C62.5917 61.1227 62.3525 60.9439 62.1133 60.9439C61.8741 60.9439 61.6349 61.0631 61.4555 61.3611C61.276 61.5995 61.1564 62.0167 61.1564 62.3742Z" fill="#A6A6A6"/>
  <path d="M93.8823 32.1001H83.5691C79.1508 32.1001 75.5691 35.6818 75.5691 40.1001V50.3218C75.5691 54.7401 79.1508 58.3218 83.5691 58.3218H93.8822C98.3005 58.3218 101.882 54.7401 101.882 50.3218V40.1001C101.882 35.6818 98.3005 32.1001 93.8823 32.1001Z" fill="#FFD8D0"/>
  <path d="M80.8915 48.3695C82.9248 55.0441 89.2638 54.2097 91.0579 53.6734C92.852 53.137 98.5332 50.3361 96.5 43.6019C94.4667 36.9273 87.709 38.4767 86.5129 38.8343C85.1375 39.2515 78.8582 41.6948 80.8915 48.3695Z" fill="white"/>
  <path d="M87.111 39.7878C87.111 39.7878 87.41 42.2908 91.8354 40.8009C91.7756 40.8009 88.7854 37.5828 87.111 39.7878Z" fill="#455A64"/>
  <path d="M87.5296 40.8009C87.5296 40.8009 89.6227 40.9201 89.0246 37.1656C89.0246 37.1656 86.0345 39.1323 87.5296 40.8009Z" fill="#455A64"/>
  <path d="M87.3502 40.1454C87.3502 40.1454 86.6326 42.112 83.4032 40.0262C83.4032 40.0262 86.4531 38.0596 87.3502 40.1454Z" fill="#455A64"/>
  <path d="M87.2305 39.6686C87.2305 39.6686 85.3169 41.2777 89.0246 44.1382C89.0246 44.0787 89.9815 39.8474 87.2305 39.6686Z" fill="#455A64"/>
  <path d="M86.9914 40.0262C86.9914 40.0262 84.1806 39.2515 84.5395 44.0191C84.5993 44.0191 88.8452 42.5292 86.9914 40.0262Z" fill="#455A64"/>
  <path d="M87.4698 40.6222C87.4698 40.6222 87.8286 38.1192 85.7355 36.3909C85.7355 36.3909 84.5395 36.3909 84.2405 37.6424C84.2405 37.6424 86.6326 38.9535 86.812 41.1585L87.3502 40.8009" fill="#263238"/>
  <path d="M84.2405 60.4672C84.3003 60.4672 84.3601 60.5268 84.3601 60.5864V60.7652C84.7189 60.7652 84.9581 60.8844 85.1973 61.1228C85.2571 61.1824 85.2571 61.1824 85.2571 61.242C85.2571 61.3016 85.1973 61.3611 85.1375 61.3611C85.1375 61.3611 85.0777 61.3611 85.0777 61.3016C84.8385 61.1228 84.5993 61.0036 84.3601 61.0036V62.3147C85.0777 62.4934 85.3767 62.7318 85.3767 63.2086C85.3767 63.6853 84.9581 64.0429 84.3601 64.1025V64.4601C84.3601 64.5197 84.3003 64.5793 84.2405 64.5793C84.1807 64.5793 84.1209 64.5197 84.1209 64.4601V64.1025C83.7023 64.0429 83.3434 63.9237 83.0444 63.6257C82.9846 63.6257 82.9846 63.5661 82.9846 63.5066C82.9846 63.447 83.0444 63.3874 83.1042 63.3874C83.164 63.3874 83.164 63.3874 83.164 63.447C83.4032 63.6853 83.7023 63.8641 84.1209 63.8641V62.4934C83.4032 62.3147 83.1042 62.0763 83.1042 61.5995C83.1042 61.1228 83.5228 60.7652 84.1209 60.7652V60.5864C84.1209 60.4672 84.1807 60.4672 84.2405 60.4672ZM84.1209 62.2551V60.944C83.6425 60.944 83.3434 61.242 83.3434 61.5995C83.4032 61.8975 83.5228 62.0763 84.1209 62.2551ZM84.3601 62.553V63.8641C84.8385 63.8641 85.1375 63.5661 85.1375 63.2086C85.1375 62.851 84.9581 62.6722 84.3601 62.553Z" fill="#A6A6A6"/>
  <path d="M86.5727 61.0631L86.0943 61.3611H86.0345C85.9747 61.3611 85.9747 61.3611 85.9149 61.3015C85.8551 61.2419 85.9149 61.1823 85.9747 61.1227L86.6326 60.7056C86.6924 60.7056 86.7522 60.7056 86.812 60.7652V60.8248V63.8641C86.812 63.9237 86.7522 63.9833 86.6924 63.9833C86.6325 63.9833 86.5727 63.9237 86.5727 63.8641V61.0631Z" fill="#A6A6A6"/>
  <path d="M87.9483 63.5662C88.0679 63.5662 88.1875 63.6853 88.1875 63.8045C88.1875 63.9237 88.0679 64.0429 87.9483 64.0429C87.8287 64.0429 87.7091 63.9237 87.7091 63.8045C87.7091 63.6853 87.8287 63.5662 87.9483 63.5662Z" fill="#A6A6A6"/>
  <path d="M88.7855 63.7449C88.7256 63.6853 88.7256 63.6257 88.7855 63.5661C88.8453 63.5065 88.9051 63.5065 88.9649 63.5661C89.1443 63.7449 89.3835 63.8045 89.6227 63.8045C89.8619 63.8045 90.1011 63.7449 90.2805 63.5661C90.4599 63.3873 90.5197 63.1489 90.5197 62.9106C90.5197 62.6722 90.4599 62.4338 90.2805 62.255C90.1011 62.0762 89.8619 62.0166 89.6227 62.0166C89.3835 62.0166 89.1443 62.0762 88.9649 62.255C88.9051 62.3146 88.8453 62.3146 88.7855 62.255C88.7855 62.255 88.7855 62.255 88.7855 62.1954C88.7855 62.1954 88.7855 62.1954 88.7855 62.1358L88.9649 60.7652C88.9649 60.7056 88.9649 60.7056 89.0247 60.7056H89.0845H90.6394C90.6992 60.7056 90.759 60.7652 90.759 60.8248C90.759 60.8843 90.6992 60.9439 90.6394 60.9439H89.1443L89.0247 61.9571C89.2041 61.8379 89.3835 61.7783 89.6227 61.7783C89.9217 61.7783 90.2207 61.8975 90.4001 62.1358C90.6394 62.3742 90.759 62.6126 90.759 62.9106C90.759 63.2085 90.6394 63.5065 90.4001 63.6853C90.1609 63.9237 89.8619 64.0429 89.6227 64.0429C89.2639 64.0429 89.0247 63.9833 88.7855 63.7449Z" fill="#A6A6A6"/>
  <path d="M91.656 62.3742C91.656 61.8975 91.7756 61.5399 91.955 61.1823C92.1344 60.8844 92.4334 60.7056 92.7923 60.7056C93.1511 60.7056 93.4501 60.8844 93.6295 61.1823C93.8089 61.4803 93.9285 61.8975 93.9285 62.3742C93.9285 62.851 93.8089 63.2085 93.6295 63.5661C93.4501 63.8641 93.1511 64.0429 92.7923 64.0429C92.4334 64.0429 92.1344 63.8641 91.955 63.5661C91.7756 63.2681 91.656 62.851 91.656 62.3742ZM91.8952 62.3742C91.8952 62.7914 92.0148 63.1489 92.1942 63.3873C92.3736 63.6257 92.6128 63.8045 92.8521 63.8045C93.0913 63.8045 93.3305 63.6853 93.5099 63.3873C93.6893 63.1489 93.8089 62.7914 93.8089 62.3742C93.8089 61.9571 93.6893 61.5995 93.5099 61.3611C93.3305 61.1227 93.0913 60.9439 92.8521 60.9439C92.6128 60.9439 92.3736 61.0631 92.1942 61.3611C92.0148 61.5995 91.8952 62.0167 91.8952 62.3742Z" fill="#A6A6A6"/>
  <path d="M31.7473 70.3599H21.4341C17.0158 70.3599 13.4341 73.9417 13.4341 78.3599V88.5816C13.4341 92.9999 17.0158 96.5816 21.4341 96.5816H31.7473C36.1655 96.5816 39.7473 92.9999 39.7473 88.5816V78.3599C39.7473 73.9416 36.1655 70.3599 31.7473 70.3599Z" fill="#FFD8D0"/>
  <path d="M33.8866 81.2062V94.1383C33.8866 94.913 32.272 95.3898 26.8299 95.3898C21.3879 95.3898 19.833 94.913 19.833 94.1383V81.2062C19.833 77.7497 23.6604 75.5447 23.6604 74.8296C23.6604 74.1144 23.6604 72.2074 23.6604 72.2074H30.0593C30.0593 72.2074 30.0593 74.1144 30.0593 74.8296C30.0593 75.5447 33.8866 77.7497 33.8866 81.2062Z" fill="white"/>
  <path d="M30.4778 71.0751H23.3015V73.2801H30.4778V71.0751Z" fill="#37474F"/>
  <path d="M33.8866 84.6627H19.833V91.6353H33.8866V84.6627Z" fill="#37474F"/>
  <path d="M21.5074 98.9058C21.5672 98.9058 21.627 98.9654 21.627 99.0249V99.2037C21.9859 99.2037 22.2251 99.3229 22.4643 99.5613C22.5241 99.6209 22.5241 99.6209 22.5241 99.6805C22.5241 99.7401 22.4643 99.7997 22.4045 99.7997C22.4045 99.7997 22.3447 99.7997 22.3447 99.7401C22.1055 99.5613 21.8662 99.4421 21.627 99.4421V100.753C22.3447 100.932 22.6437 101.17 22.6437 101.647C22.6437 102.124 22.2251 102.481 21.627 102.541V102.899C21.627 102.958 21.5672 103.018 21.5074 103.018C21.4476 103.018 21.3878 102.958 21.3878 102.899V102.541C20.9692 102.481 20.6104 102.362 20.3114 102.064C20.2516 102.064 20.2516 102.005 20.2516 101.945C20.2516 101.886 20.3114 101.826 20.3712 101.826C20.431 101.826 20.431 101.826 20.431 101.886C20.6702 102.124 20.9692 102.303 21.3878 102.303V100.932C20.6702 100.753 20.3712 100.515 20.3712 100.038C20.3712 99.5613 20.7898 99.2037 21.3878 99.2037V99.0249C21.3878 98.9654 21.4476 98.9058 21.5074 98.9058ZM21.4476 100.694V99.3825C20.9692 99.3825 20.6702 99.6805 20.6702 100.038C20.6702 100.336 20.7898 100.574 21.4476 100.694ZM21.627 100.992V102.303C22.1055 102.303 22.4045 102.005 22.4045 101.647C22.4045 101.349 22.2251 101.111 21.627 100.992Z" fill="#A6A6A6"/>
  <path d="M25.2751 99.3826L24.4379 100.276C24.6771 100.336 24.8565 100.396 25.0359 100.574C25.2751 100.813 25.3947 101.111 25.3947 101.349C25.3947 101.647 25.2751 101.945 25.0359 102.124C24.7967 102.362 24.4977 102.481 24.2584 102.481C23.9594 102.481 23.6604 102.362 23.481 102.124C23.4212 102.064 23.4212 102.005 23.481 101.945C23.5408 101.886 23.6006 101.886 23.6604 101.945C23.8398 102.124 24.079 102.184 24.3182 102.184C24.5575 102.184 24.7967 102.124 24.9761 101.945C25.1555 101.766 25.2153 101.528 25.2153 101.29C25.2153 101.051 25.1555 100.813 24.9761 100.634C24.7967 100.455 24.5575 100.396 24.3182 100.396C24.2584 100.396 24.2584 100.396 24.1986 100.336C24.1388 100.276 24.1388 100.217 24.1986 100.157L25.0359 99.323H23.78C23.7202 99.323 23.6604 99.2634 23.6604 99.2038C23.6604 99.1442 23.7202 99.0846 23.78 99.0846H25.3349C25.3947 99.0846 25.4545 99.1442 25.4545 99.2038C25.3349 99.323 25.3349 99.323 25.2751 99.3826C25.3349 99.3826 25.3349 99.3826 25.2751 99.3826Z" fill="#A6A6A6"/>
  <path d="M26.5907 102.064C26.7103 102.064 26.8299 102.184 26.8299 102.303C26.8299 102.422 26.7103 102.541 26.5907 102.541C26.4711 102.541 26.3514 102.422 26.3514 102.303C26.3514 102.124 26.4112 102.064 26.5907 102.064Z" fill="#A6A6A6"/>
  <path d="M27.2485 100.872C27.2485 100.396 27.3681 100.038 27.5475 99.6805C27.727 99.3825 28.026 99.2037 28.3848 99.2037C28.7436 99.2037 29.0426 99.3825 29.222 99.6805C29.4014 99.9785 29.521 100.396 29.521 100.872C29.521 101.349 29.4014 101.707 29.222 102.064C29.0426 102.362 28.7436 102.541 28.3848 102.541C28.026 102.541 27.727 102.362 27.5475 102.064C27.3681 101.707 27.2485 101.29 27.2485 100.872ZM27.4877 100.872C27.4877 101.29 27.6073 101.647 27.7868 101.885C27.9662 102.124 28.2054 102.303 28.4446 102.303C28.6838 102.303 28.923 102.183 29.1024 101.885C29.2818 101.647 29.4014 101.29 29.4014 100.872C29.4014 100.455 29.2818 100.098 29.1024 99.8593C28.923 99.6209 28.6838 99.4421 28.4446 99.4421C28.2054 99.4421 27.9662 99.5613 27.7868 99.8593C27.6073 100.098 27.4877 100.455 27.4877 100.872Z" fill="#A6A6A6"/>
  <path d="M30.6572 100.872C30.6572 100.396 30.7768 100.038 30.9562 99.6805C31.1357 99.3825 31.4347 99.2037 31.7935 99.2037C32.1523 99.2037 32.4513 99.3825 32.6307 99.6805C32.8101 99.9785 32.9297 100.396 32.9297 100.872C32.9297 101.349 32.8101 101.707 32.6307 102.064C32.4513 102.362 32.1523 102.541 31.7935 102.541C31.4347 102.541 31.1357 102.362 30.9562 102.064C30.7768 101.707 30.6572 101.29 30.6572 100.872ZM30.8964 100.872C30.8964 101.29 31.016 101.647 31.1955 101.885C31.3749 102.124 31.6141 102.303 31.8533 102.303C32.0925 102.303 32.3317 102.183 32.5111 101.885C32.6905 101.647 32.8101 101.29 32.8101 100.872C32.8101 100.455 32.6905 100.098 32.5111 99.8593C32.3317 99.6209 32.0925 99.4421 31.8533 99.4421C31.6141 99.4421 31.3749 99.5613 31.1955 99.8593C31.016 100.098 30.8964 100.455 30.8964 100.872Z" fill="#A6A6A6"/>
  <path d="M62.8446 70.3599H52.5314C48.1131 70.3599 44.5314 73.9417 44.5314 78.3599V88.5816C44.5314 92.9999 48.1131 96.5816 52.5314 96.5816H62.8446C67.2628 96.5816 70.8446 92.9999 70.8446 88.5816V78.3599C70.8446 73.9416 67.2628 70.3599 62.8446 70.3599Z" fill="#FFD8D0"/>
  <path d="M63.2495 76.0214H52.3057V95.3897H63.2495V76.0214Z" fill="white"/>
  <path d="M63.2495 76.0214H52.3057V95.3897H63.2495V76.0214Z" fill="white"/>
  <path d="M63.2495 83.1728H52.3057V91.3373H63.2495V83.1728Z" fill="#455A64"/>
  <path d="M63.2495 76.0214H52.3057L53.6811 73.3397H61.9339L63.2495 76.0214Z" fill="white"/>
  <path d="M63.2495 76.0214H52.3057L53.6811 73.3397H61.9339L63.2495 76.0214Z" fill="#DBDBDB"/>
  <path d="M61.8741 71.0751H53.6213V73.3397H61.8741V71.0751Z" fill="white"/>
  <path d="M52.7244 98.9058C52.7842 98.9058 52.844 98.9654 52.844 99.0249V99.2037C53.2028 99.2037 53.442 99.3229 53.6812 99.5613C53.741 99.6209 53.741 99.6209 53.741 99.6805C53.741 99.7401 53.6812 99.7997 53.6214 99.7997C53.6214 99.7997 53.5616 99.7997 53.5616 99.7401C53.3224 99.5613 53.0832 99.4421 52.844 99.4421V100.753C53.5616 100.932 53.8606 101.17 53.8606 101.647C53.8606 102.124 53.442 102.481 52.844 102.541V102.899C52.844 102.958 52.7842 103.018 52.7244 103.018C52.6646 103.018 52.6048 102.958 52.6048 102.899V102.541C52.1861 102.481 51.8273 102.362 51.5283 102.064C51.4685 102.064 51.4685 102.005 51.4685 101.945C51.4685 101.886 51.5283 101.826 51.5881 101.826C51.6479 101.826 51.6479 101.826 51.6479 101.886C51.8871 102.124 52.1861 102.303 52.6048 102.303V100.932C51.8871 100.753 51.5881 100.515 51.5881 100.038C51.5881 99.5613 52.0067 99.2037 52.6048 99.2037V99.0249C52.6048 98.9654 52.6646 98.9058 52.7244 98.9058ZM52.6048 100.694V99.3825C52.1263 99.3825 51.8273 99.6805 51.8273 100.038C51.8273 100.336 52.0067 100.574 52.6048 100.694ZM52.7842 100.992V102.303C53.2626 102.303 53.5616 102.005 53.5616 101.647C53.6214 101.349 53.442 101.111 52.7842 100.992Z" fill="#A6A6A6"/>
  <path d="M54.4587 102.303L56.0136 100.872C56.193 100.694 56.3126 100.455 56.3126 100.217C56.3126 100.038 56.2528 99.7998 56.0734 99.621C55.894 99.4422 55.6548 99.323 55.4156 99.323C55.1764 99.323 54.997 99.3826 54.8176 99.5614L54.6381 99.6806C54.5783 99.7402 54.5185 99.7402 54.4587 99.6806C54.3989 99.621 54.3989 99.5614 54.4587 99.5018L54.6381 99.323C54.8774 99.1442 55.1166 99.025 55.3558 99.025C55.6548 99.025 55.9538 99.1442 56.1332 99.3826C56.3126 99.621 56.4322 99.8594 56.4322 100.098C56.4322 100.396 56.3126 100.694 56.0734 100.932L54.7577 102.124H56.3126C56.3724 102.124 56.4322 102.184 56.4322 102.243C56.4322 102.303 56.3724 102.362 56.3126 102.362H54.4587C54.3989 102.362 54.3989 102.362 54.3989 102.303C54.3989 102.422 54.3989 102.362 54.4587 102.303Z" fill="#A6A6A6"/>
  <path d="M57.6283 102.064C57.7479 102.064 57.8675 102.184 57.8675 102.303C57.8675 102.422 57.7479 102.541 57.6283 102.541C57.5086 102.541 57.389 102.422 57.389 102.303C57.389 102.124 57.5086 102.064 57.6283 102.064Z" fill="#A6A6A6"/>
  <path d="M58.4654 102.183C58.4056 102.124 58.4056 102.064 58.4654 102.005C58.5252 101.945 58.585 101.945 58.6448 102.005C58.8242 102.183 59.0634 102.243 59.3026 102.243C59.5419 102.243 59.7811 102.183 59.9605 102.005C60.1399 101.826 60.1997 101.588 60.1997 101.349C60.1997 101.111 60.1399 100.872 59.9605 100.694C59.7811 100.515 59.5419 100.455 59.3026 100.455C59.0634 100.455 58.8242 100.515 58.6448 100.694C58.585 100.753 58.5252 100.753 58.4654 100.694C58.4654 100.694 58.4654 100.694 58.4654 100.634C58.4654 100.634 58.4654 100.634 58.4654 100.574L58.6448 99.2038C58.6448 99.1442 58.6448 99.1442 58.7046 99.1442H58.7644H60.3193C60.3791 99.1442 60.4389 99.2038 60.4389 99.2634C60.4389 99.3229 60.3791 99.3825 60.3193 99.3825H58.884L58.7644 100.396C58.9438 100.276 59.1232 100.217 59.3624 100.217C59.6615 100.217 59.9605 100.336 60.1399 100.574C60.3791 100.813 60.4987 101.051 60.4987 101.349C60.4987 101.647 60.3791 101.945 60.1399 102.124C59.9007 102.362 59.6017 102.481 59.3624 102.481C58.9438 102.541 58.6448 102.422 58.4654 102.183Z" fill="#A6A6A6"/>
  <path d="M61.3359 100.872C61.3359 100.396 61.4555 100.038 61.635 99.6805C61.8144 99.3825 62.1134 99.2037 62.4722 99.2037C62.831 99.2037 63.13 99.3825 63.3094 99.6805C63.4889 99.9785 63.6085 100.396 63.6085 100.872C63.6085 101.349 63.4889 101.707 63.3094 102.064C63.13 102.362 62.831 102.541 62.4722 102.541C62.1134 102.541 61.8144 102.362 61.635 102.064C61.4555 101.707 61.3359 101.29 61.3359 100.872ZM61.5751 100.872C61.5751 101.29 61.6948 101.647 61.8742 101.885C62.0536 102.124 62.2928 102.303 62.532 102.303C62.7712 102.303 63.0104 102.183 63.1898 101.885C63.3692 101.647 63.4889 101.29 63.4889 100.872C63.4889 100.455 63.3692 100.098 63.1898 99.8593C63.0104 99.6209 62.7712 99.4421 62.532 99.4421C62.2928 99.4421 62.0536 99.5613 61.8742 99.8593C61.6948 100.098 61.5751 100.455 61.5751 100.872Z" fill="#A6A6A6"/>
  <path d="M93.8823 70.3599H83.5691C79.1508 70.3599 75.5691 73.9417 75.5691 78.3599V88.5816C75.5691 92.9999 79.1508 96.5816 83.5691 96.5816H93.8822C98.3005 96.5816 101.882 92.9999 101.882 88.5816V78.3599C101.882 73.9416 98.3005 70.3599 93.8823 70.3599Z" fill="#FFD8D0"/>
  <path d="M93.8089 81.2062V94.1383C93.8089 94.913 92.6727 95.3898 88.7257 95.3898C84.8385 95.3898 83.6425 94.913 83.6425 94.1383V81.2062C83.6425 77.7497 86.3934 75.5447 86.3934 74.8296C86.3934 74.174 86.3934 72.2074 86.3934 72.2074H90.9982C90.9982 72.2074 90.9982 74.1144 90.9982 74.8296C91.058 75.5447 93.8089 77.7497 93.8089 81.2062Z" fill="white"/>
  <path d="M91.2972 71.0751H86.1542V73.2801H91.2972V71.0751Z" fill="#455A64"/>
  <path d="M92.3139 85.6162H85.0778V90.6222H92.3139V85.6162Z" fill="#DBDBDB"/>
  <path d="M83.463 98.9058C83.5228 98.9058 83.5826 98.9654 83.5826 99.0249V99.2037C83.9414 99.2037 84.1806 99.3229 84.4198 99.5613C84.4796 99.6209 84.4796 99.6209 84.4796 99.6805C84.4796 99.7401 84.4198 99.7997 84.36 99.7997C84.36 99.7997 84.3002 99.7997 84.3002 99.7401C84.061 99.5613 83.8218 99.4421 83.5826 99.4421V100.753C84.3002 100.932 84.5992 101.17 84.5992 101.647C84.5992 102.124 84.1806 102.481 83.5826 102.541V102.899C83.5826 102.958 83.5228 103.018 83.463 103.018C83.4032 103.018 83.3434 102.958 83.3434 102.899V102.541C82.9248 102.481 82.566 102.362 82.267 102.064C82.2072 102.064 82.2072 102.005 82.2072 101.945C82.2072 101.886 82.267 101.826 82.3268 101.826C82.3866 101.826 82.3866 101.826 82.3866 101.886C82.6258 102.124 82.9248 102.303 83.3434 102.303V100.932C82.6258 100.753 82.3268 100.515 82.3268 100.038C82.3268 99.5613 82.7454 99.2037 83.3434 99.2037V99.0249C83.3434 98.9654 83.4032 98.9058 83.463 98.9058ZM83.3434 100.694V99.3825C82.865 99.3825 82.566 99.6805 82.566 100.038C82.566 100.336 82.7454 100.574 83.3434 100.694ZM83.5228 100.992V102.303C84.0012 102.303 84.3002 102.005 84.3002 101.647C84.36 101.349 84.1806 101.111 83.5228 100.992Z" fill="#A6A6A6"/>
  <path d="M85.1972 102.303L86.7521 100.872C86.9315 100.694 87.0511 100.455 87.0511 100.217C87.0511 100.038 86.9913 99.7998 86.8119 99.621C86.6325 99.4422 86.3933 99.323 86.1541 99.323C85.9149 99.323 85.7355 99.3826 85.5561 99.5614L85.3767 99.6806C85.3169 99.7402 85.2571 99.7402 85.1972 99.6806C85.1374 99.621 85.1374 99.5614 85.1972 99.5018L85.3767 99.323C85.6159 99.1442 85.8551 99.025 86.0943 99.025C86.3933 99.025 86.6923 99.1442 86.8717 99.3826C87.0511 99.621 87.1707 99.8594 87.1707 100.098C87.1707 100.396 87.0511 100.694 86.8119 100.932L85.4963 102.124H87.0511C87.1109 102.124 87.1707 102.184 87.1707 102.243C87.1707 102.303 87.1109 102.362 87.0511 102.362H85.1972C85.1374 102.362 85.1375 102.362 85.1375 102.303C85.1375 102.422 85.1374 102.362 85.1972 102.303Z" fill="#A6A6A6"/>
  <path d="M88.3669 102.064C88.4865 102.064 88.6061 102.184 88.6061 102.303C88.6061 102.422 88.4865 102.541 88.3669 102.541C88.2473 102.541 88.1277 102.422 88.1277 102.303C88.1277 102.124 88.2473 102.064 88.3669 102.064Z" fill="#A6A6A6"/>
  <path d="M89.0845 100.872C89.0845 100.396 89.2041 100.038 89.3835 99.6805C89.5629 99.3825 89.8619 99.2037 90.2207 99.2037C90.5795 99.2037 90.8785 99.3825 91.058 99.6805C91.2374 99.9785 91.357 100.396 91.357 100.872C91.357 101.349 91.2374 101.707 91.058 102.064C90.8785 102.362 90.5795 102.541 90.2207 102.541C89.8619 102.541 89.5629 102.362 89.3835 102.064C89.2041 101.707 89.0845 101.29 89.0845 100.872ZM89.3237 100.872C89.3237 101.29 89.4433 101.647 89.6227 101.885C89.8021 102.124 90.0413 102.303 90.2805 102.303C90.5197 102.303 90.7589 102.183 90.9383 101.885C91.1178 101.647 91.2374 101.29 91.2374 100.872C91.2374 100.455 91.1178 100.098 90.9383 99.8593C90.7589 99.6209 90.5197 99.4421 90.2805 99.4421C90.0413 99.4421 89.8021 99.5613 89.6227 99.8593C89.3835 100.098 89.3237 100.455 89.3237 100.872Z" fill="#A6A6A6"/>
  <path d="M92.4333 100.872C92.4333 100.396 92.553 100.038 92.7324 99.6805C92.9118 99.3825 93.2108 99.2037 93.5696 99.2037C93.9284 99.2037 94.2274 99.3825 94.4068 99.6805C94.5863 99.9785 94.7059 100.396 94.7059 100.872C94.7059 101.349 94.5863 101.707 94.4068 102.064C94.2274 102.362 93.9284 102.541 93.5696 102.541C93.2108 102.541 92.9118 102.362 92.7324 102.064C92.553 101.707 92.4333 101.29 92.4333 100.872ZM92.6726 100.872C92.6726 101.29 92.7922 101.647 92.9716 101.885C93.151 102.124 93.3902 102.303 93.6294 102.303C93.8686 102.303 94.1078 102.183 94.2872 101.885C94.4666 101.647 94.5863 101.29 94.5863 100.872C94.5863 100.455 94.4666 100.098 94.2872 99.8593C94.1078 99.6209 93.8686 99.4421 93.6294 99.4421C93.3902 99.4421 93.151 99.5613 92.9716 99.8593C92.7922 100.098 92.6726 100.455 92.6726 100.872Z" fill="#A6A6A6"/>
  <path d="M31.7473 119.406H21.4341C17.0158 119.406 13.4341 122.988 13.4341 127.406V137.628C13.4341 142.046 17.0158 145.628 21.4341 145.628H31.7473C36.1655 145.628 39.7473 142.046 39.7473 137.628V127.406C39.7473 122.988 36.1655 119.406 31.7473 119.406Z" fill="#FFD8D0"/>
  <path d="M20.4907 132.934C20.4907 137.523 22.3446 144.734 22.5838 144.734H30.2984C30.5376 144.734 33.1689 138.596 33.1689 132.398C33.1689 125.962 28.6837 124.829 28.6837 124.412V123.28C28.6837 122.624 28.6837 121.85 28.6837 121.85H24.1387C24.1387 121.85 24.1387 122.565 24.1387 123.28V124.353C24.1387 124.829 20.4907 127.213 20.4907 132.934ZM29.1621 126.498C31.3748 126.498 33.1689 132.517 31.5542 133.113C29.2817 133.947 27.1288 126.498 29.1621 126.498Z" fill="white"/>
  <path d="M27.0092 126.498C27.1288 124.949 23.72 125.306 22.2848 130.372C21.2083 134.186 22.4044 142.112 26.2317 142.112C30.7767 142.112 31.0757 135.437 30.7767 135.139C30.5375 134.841 26.4709 133.411 27.0092 126.498Z" fill="#EBEBEB"/>
  <path d="M23.2417 123.28H29.6406L29.222 120.479H23.6603L23.2417 123.28Z" fill="#455A64"/>
  <path d="M21.5074 148.906C21.5672 148.906 21.627 148.965 21.627 149.025V149.204C21.9859 149.204 22.2251 149.323 22.4643 149.561C22.5241 149.621 22.5241 149.621 22.5241 149.68C22.5241 149.74 22.4643 149.8 22.4045 149.8C22.4045 149.8 22.3447 149.8 22.3447 149.74C22.1055 149.561 21.8662 149.442 21.627 149.442V150.753C22.3447 150.932 22.6437 151.17 22.6437 151.647C22.6437 152.124 22.2251 152.481 21.627 152.541V152.899C21.627 152.958 21.5672 153.018 21.5074 153.018C21.4476 153.018 21.3878 152.958 21.3878 152.899V152.541C20.9692 152.481 20.6104 152.362 20.3114 152.064C20.2516 152.064 20.2516 152.005 20.2516 151.945C20.2516 151.885 20.3114 151.826 20.3712 151.826C20.431 151.826 20.431 151.826 20.431 151.885C20.6702 152.124 20.9692 152.303 21.3878 152.303V150.932C20.6702 150.753 20.3712 150.515 20.3712 150.038C20.3712 149.561 20.7898 149.204 21.3878 149.204V149.025C21.4476 148.965 21.4476 148.906 21.5074 148.906ZM21.4476 150.753V149.442C20.9692 149.442 20.6702 149.74 20.6702 150.098C20.6702 150.396 20.7898 150.574 21.4476 150.753ZM21.627 151.051V152.362C22.1055 152.362 22.4045 152.064 22.4045 151.707C22.4045 151.349 22.2849 151.17 21.627 151.051Z" fill="#A6A6A6"/>
  <path d="M23.3613 152.243C23.3015 152.183 23.3015 152.124 23.3613 152.064C23.4211 152.005 23.4809 152.005 23.5407 152.064C23.7201 152.243 23.9593 152.303 24.1985 152.303C24.4377 152.303 24.6769 152.243 24.8563 152.064C25.0357 151.885 25.0955 151.647 25.0955 151.409C25.0955 151.17 25.0357 150.932 24.8563 150.753C24.6769 150.574 24.4377 150.515 24.1985 150.515C23.9593 150.515 23.7201 150.574 23.5407 150.753C23.4809 150.813 23.4211 150.813 23.3613 150.753C23.3613 150.753 23.3613 150.753 23.3613 150.694C23.3613 150.694 23.3613 150.694 23.3613 150.634L23.5407 149.263C23.5407 149.204 23.5407 149.204 23.6005 149.204H23.6603H25.2152C25.275 149.204 25.3348 149.263 25.3348 149.323C25.3348 149.383 25.275 149.442 25.2152 149.442H23.7799L23.6603 150.455C23.8397 150.336 24.0191 150.276 24.2583 150.276C24.5573 150.276 24.8563 150.396 25.0357 150.634C25.275 150.872 25.3946 151.111 25.3946 151.409C25.3946 151.707 25.275 152.005 25.0357 152.183C24.7965 152.422 24.4975 152.541 24.2583 152.541C23.8995 152.541 23.6005 152.481 23.3613 152.243Z" fill="#A6A6A6"/>
  <path d="M26.5308 152.064C26.6504 152.064 26.7701 152.183 26.7701 152.303C26.7701 152.422 26.6504 152.541 26.5308 152.541C26.4112 152.541 26.2916 152.422 26.2916 152.303C26.2916 152.183 26.4112 152.064 26.5308 152.064Z" fill="#A6A6A6"/>
  <path d="M27.2485 150.872C27.2485 150.396 27.3681 150.038 27.5475 149.68C27.727 149.383 28.026 149.204 28.3848 149.204C28.7436 149.204 29.0426 149.383 29.222 149.68C29.4014 149.978 29.521 150.396 29.521 150.872C29.521 151.349 29.4014 151.707 29.222 152.064C29.0426 152.362 28.7436 152.541 28.3848 152.541C28.026 152.541 27.727 152.362 27.5475 152.064C27.3681 151.766 27.2485 151.349 27.2485 150.872ZM27.4877 150.872C27.4877 151.29 27.6073 151.647 27.7868 151.885C27.9662 152.124 28.2054 152.303 28.4446 152.303C28.6838 152.303 28.923 152.183 29.1024 151.885C29.2818 151.647 29.4014 151.29 29.4014 150.872C29.4014 150.455 29.2818 150.098 29.1024 149.859C28.923 149.621 28.6838 149.442 28.4446 149.442C28.2054 149.442 27.9662 149.561 27.7868 149.859C27.6073 150.098 27.4877 150.515 27.4877 150.872Z" fill="#A6A6A6"/>
  <path d="M30.6572 150.872C30.6572 150.396 30.7768 150.038 30.9562 149.68C31.1357 149.383 31.4347 149.204 31.7935 149.204C32.1523 149.204 32.4513 149.383 32.6307 149.68C32.8101 149.978 32.9297 150.396 32.9297 150.872C32.9297 151.349 32.8101 151.707 32.6307 152.064C32.4513 152.362 32.1523 152.541 31.7935 152.541C31.4347 152.541 31.1357 152.362 30.9562 152.064C30.717 151.766 30.6572 151.349 30.6572 150.872ZM30.8366 150.872C30.8366 151.29 30.9562 151.647 31.1357 151.885C31.3151 152.124 31.5543 152.303 31.7935 152.303C32.0327 152.303 32.2719 152.183 32.4513 151.885C32.6307 151.647 32.7503 151.29 32.7503 150.872C32.7503 150.455 32.6307 150.098 32.4513 149.859C32.2719 149.621 32.0327 149.442 31.7935 149.442C31.5543 149.442 31.3151 149.561 31.1357 149.859C30.9562 150.098 30.8366 150.515 30.8366 150.872Z" fill="#A6A6A6"/>
  <path d="M62.8446 119.406H52.5314C48.1131 119.406 44.5314 122.988 44.5314 127.406V137.628C44.5314 142.046 48.1131 145.628 52.5314 145.628H62.8446C67.2628 145.628 70.8446 142.046 70.8446 137.628V127.406C70.8446 122.988 67.2628 119.406 62.8446 119.406Z" fill="#FFD8D0"/>
  <path d="M65.2829 140.801H50.1528C48.6577 140.801 47.4019 139.609 47.4019 138.06V128.942C47.4019 127.452 48.5979 126.2 50.1528 126.2H65.2829C66.7779 126.2 68.0338 127.392 68.0338 128.942V138.06C68.0338 139.549 66.7779 140.801 65.2829 140.801Z" fill="white"/>
  <path d="M65.7015 124.412H49.7939V126.26H65.7015V124.412Z" fill="#455A64"/>
  <path d="M68.0936 129.776H47.4019V137.285H68.0936V129.776Z" fill="#455A64"/>
  <path d="M64.0269 133.471C64.0269 135.199 61.2162 136.629 57.7477 136.629C54.2791 136.629 51.4684 135.199 51.4684 133.471C51.4684 131.743 54.2791 130.312 57.7477 130.312C61.2162 130.312 64.0269 131.743 64.0269 133.471Z" fill="white"/>
  <path d="M52.5449 148.906C52.6047 148.906 52.6645 148.965 52.6645 149.025V149.204C53.0233 149.204 53.2625 149.323 53.5018 149.561C53.5616 149.621 53.5616 149.621 53.5616 149.68C53.5616 149.74 53.5018 149.8 53.442 149.8C53.442 149.8 53.3822 149.8 53.3822 149.74C53.1429 149.561 52.9037 149.442 52.6645 149.442V150.753C53.3822 150.932 53.6812 151.17 53.6812 151.647C53.6812 152.124 53.2626 152.481 52.6645 152.541V152.899C52.6645 152.958 52.6047 153.018 52.5449 153.018C52.4851 153.018 52.4253 152.958 52.4253 152.899V152.541C52.0067 152.481 51.6479 152.362 51.3489 152.064C51.2891 152.064 51.2891 152.005 51.2891 151.945C51.2891 151.885 51.3489 151.826 51.4087 151.826C51.4685 151.826 51.4685 151.826 51.4685 151.885C51.7077 152.124 52.0067 152.303 52.4253 152.303V150.932C51.7077 150.753 51.4087 150.515 51.4087 150.038C51.4087 149.561 51.8273 149.204 52.4253 149.204V149.025C52.4253 148.965 52.4851 148.906 52.5449 148.906ZM52.4253 150.753V149.442C51.9469 149.442 51.6479 149.74 51.6479 150.098C51.6479 150.396 51.8273 150.574 52.4253 150.753ZM52.6645 151.051V152.362C53.1429 152.362 53.442 152.064 53.442 151.707C53.442 151.349 53.2626 151.17 52.6645 151.051Z" fill="#A6A6A6"/>
  <path d="M56.1929 151.885H54.3988H54.339C54.2792 151.826 54.2792 151.766 54.339 151.707L56.2527 149.323C56.3125 149.263 56.3723 149.263 56.4321 149.323C56.4321 149.323 56.4321 149.382 56.4919 149.382V151.647H56.7312C56.791 151.647 56.8508 151.707 56.8508 151.766C56.8508 151.826 56.791 151.885 56.7312 151.885H56.4919V152.481C56.4919 152.541 56.4321 152.601 56.3723 152.601C56.3125 152.601 56.2527 152.541 56.2527 152.481V151.885H56.1929ZM56.1929 151.647V149.68L54.6381 151.647H56.1929Z" fill="#A6A6A6"/>
  <path d="M57.8076 152.064C57.9272 152.064 58.0468 152.183 58.0468 152.303C58.0468 152.422 57.9272 152.541 57.8076 152.541C57.688 152.541 57.5684 152.422 57.5684 152.303C57.5684 152.183 57.688 152.064 57.8076 152.064Z" fill="#A6A6A6"/>
  <path d="M58.6447 152.243C58.5849 152.183 58.5849 152.124 58.6447 152.064C58.7045 152.005 58.7643 152.005 58.8241 152.064C59.0035 152.243 59.2427 152.303 59.4819 152.303C59.7212 152.303 59.9604 152.243 60.1398 152.064C60.3192 151.885 60.379 151.647 60.379 151.409C60.379 151.17 60.3192 150.932 60.1398 150.753C59.9604 150.574 59.7212 150.515 59.4819 150.515C59.2427 150.515 59.0035 150.574 58.8241 150.753C58.7643 150.813 58.7045 150.813 58.6447 150.753C58.6447 150.753 58.6447 150.753 58.6447 150.694C58.6447 150.694 58.6447 150.694 58.6447 150.634L58.8241 149.263C58.8241 149.204 58.8241 149.204 58.8839 149.204H58.9437H60.4986C60.5584 149.204 60.6182 149.263 60.6182 149.323C60.6182 149.383 60.5584 149.442 60.4986 149.442H59.0633L58.9437 150.455C59.1231 150.336 59.3025 150.276 59.5417 150.276C59.8408 150.276 60.1398 150.396 60.3192 150.634C60.5584 150.872 60.678 151.111 60.678 151.409C60.678 151.707 60.5584 152.005 60.3192 152.183C60.08 152.422 59.781 152.541 59.5417 152.541C59.1231 152.541 58.8241 152.481 58.6447 152.243Z" fill="#A6A6A6"/>
  <path d="M61.5153 150.872C61.5153 150.396 61.6349 150.038 61.8143 149.68C61.9937 149.383 62.2927 149.204 62.6515 149.204C63.0103 149.204 63.3093 149.383 63.4887 149.68C63.6681 149.978 63.7878 150.396 63.7878 150.872C63.7878 151.349 63.6681 151.707 63.4887 152.064C63.3093 152.362 63.0103 152.541 62.6515 152.541C62.2927 152.541 61.9937 152.362 61.8143 152.064C61.6349 151.766 61.5153 151.349 61.5153 150.872ZM61.7545 150.872C61.7545 151.29 61.8741 151.647 62.0535 151.885C62.2329 152.124 62.4721 152.303 62.7113 152.303C62.9505 152.303 63.1897 152.183 63.3691 151.885C63.5485 151.647 63.6681 151.29 63.6681 150.872C63.6681 150.455 63.5485 150.098 63.3691 149.859C63.1897 149.621 62.9505 149.442 62.7113 149.442C62.4721 149.442 62.2329 149.561 62.0535 149.859C61.8741 150.098 61.7545 150.515 61.7545 150.872Z" fill="#A6A6A6"/>
  <path d="M93.8823 119.406H83.5691C79.1508 119.406 75.5691 122.988 75.5691 127.406V137.628C75.5691 142.046 79.1508 145.628 83.5691 145.628H93.8822C98.3005 145.628 101.882 142.046 101.882 137.628V127.406C101.882 122.988 98.3005 119.406 93.8823 119.406Z" fill="#FFD8D0"/>
  <path d="M94.9452 135.974C94.9452 138.417 94.9452 142.946 94.9452 142.946H82.4464C82.4464 142.946 82.4464 138.417 82.4464 135.974C82.4464 133.53 82.9846 127.154 88.6659 127.154C94.4069 127.154 94.9452 133.53 94.9452 135.974Z" fill="white"/>
  <path d="M95.304 143.9H82.0876C81.7288 143.9 81.4298 143.602 81.4298 143.244C81.4298 142.887 81.7288 142.589 82.0876 142.589H95.304C95.6628 142.589 95.9618 142.887 95.9618 143.244C95.9618 143.602 95.6628 143.9 95.304 143.9Z" fill="white"/>
  <path d="M90.6992 125.723H86.7522V128.703H90.6992V125.723Z" fill="white"/>
  <path d="M91.1178 124.293H86.2738V126.26H91.1178V124.293Z" fill="#455A64"/>
  <path d="M89.6228 122.386H87.8287V124.651H89.6228V122.386Z" fill="#455A64"/>
  <path d="M86.8718 121.552C86.3933 121.909 86.2139 122.624 86.9316 123.042C87.5296 123.399 90.6991 122.624 91.0579 122.624C91.4167 122.684 92.1942 123.042 92.3138 123.042C92.4334 123.042 92.7922 122.863 92.7324 122.684C92.7324 122.505 91.656 121.731 90.8187 121.552C89.9815 121.373 87.5296 121.075 86.8718 121.552Z" fill="#455A64"/>
  <path d="M83.5826 148.906C83.6424 148.906 83.7022 148.965 83.7022 149.025V149.204C84.0611 149.204 84.3003 149.323 84.5395 149.561C84.5993 149.621 84.5993 149.621 84.5993 149.68C84.5993 149.74 84.5395 149.8 84.4797 149.8C84.4797 149.8 84.4199 149.8 84.4199 149.74C84.1807 149.561 83.9415 149.442 83.7022 149.442V150.753C84.4199 150.932 84.7189 151.17 84.7189 151.647C84.7189 152.124 84.3003 152.481 83.7022 152.541V152.899C83.7022 152.958 83.6424 153.018 83.5826 153.018C83.5228 153.018 83.463 152.958 83.463 152.899V152.541C83.0444 152.481 82.6856 152.362 82.3866 152.064C82.3268 152.064 82.3268 152.005 82.3268 151.945C82.3268 151.885 82.3866 151.826 82.4464 151.826C82.5062 151.826 82.5062 151.826 82.5062 151.885C82.7454 152.124 83.0444 152.303 83.463 152.303V150.932C82.7454 150.753 82.4464 150.515 82.4464 150.038C82.4464 149.561 82.865 149.204 83.463 149.204V149.025C83.463 148.965 83.5228 148.906 83.5826 148.906ZM83.463 150.753V149.442C82.9846 149.442 82.6856 149.74 82.6856 150.098C82.7454 150.396 82.865 150.574 83.463 150.753ZM83.7022 151.051V152.362C84.1807 152.362 84.4797 152.064 84.4797 151.707C84.4797 151.349 84.3003 151.17 83.7022 151.051Z" fill="#A6A6A6"/>
  <path d="M87.3502 149.442L86.5129 150.336C86.7521 150.396 86.9316 150.455 87.111 150.634C87.3502 150.872 87.4698 151.17 87.4698 151.409C87.4698 151.707 87.3502 152.005 87.111 152.184C86.8718 152.422 86.5727 152.541 86.3335 152.541C86.0345 152.541 85.7355 152.422 85.5561 152.184C85.4963 152.124 85.4963 152.064 85.5561 152.005C85.6159 151.945 85.6757 151.945 85.7355 152.005C85.9149 152.184 86.1541 152.243 86.3933 152.243C86.6325 152.243 86.8718 152.184 87.0512 152.005C87.2306 151.826 87.2904 151.588 87.2904 151.349C87.2904 151.111 87.2306 150.872 87.0512 150.694C86.8718 150.515 86.6325 150.455 86.3933 150.455C86.3335 150.455 86.3335 150.455 86.2737 150.396C86.2139 150.336 86.2139 150.276 86.2737 150.217L87.111 149.383H85.8551C85.7953 149.383 85.7355 149.323 85.7355 149.263C85.7355 149.204 85.7953 149.144 85.8551 149.144H87.41C87.4698 149.144 87.5296 149.204 87.5296 149.263C87.41 149.383 87.41 149.383 87.3502 149.442C87.41 149.442 87.3502 149.442 87.3502 149.442Z" fill="#A6A6A6"/>
  <path d="M88.606 152.064C88.7256 152.064 88.8452 152.183 88.8452 152.303C88.8452 152.422 88.7256 152.541 88.606 152.541C88.4864 152.541 88.3668 152.422 88.3668 152.303C88.3668 152.183 88.4864 152.064 88.606 152.064Z" fill="#A6A6A6"/>
  <path d="M89.4433 152.243C89.3835 152.183 89.3835 152.124 89.4433 152.064C89.5031 152.005 89.5629 152.005 89.6227 152.064C89.8021 152.243 90.0413 152.303 90.2805 152.303C90.5197 152.303 90.7589 152.243 90.9384 152.064C91.1178 151.885 91.1776 151.647 91.1776 151.409C91.1776 151.17 91.1178 150.932 90.9384 150.753C90.7589 150.574 90.5197 150.515 90.2805 150.515C90.0413 150.515 89.8021 150.574 89.6227 150.753C89.5629 150.813 89.5031 150.813 89.4433 150.753C89.4433 150.753 89.4433 150.753 89.4433 150.694C89.4433 150.694 89.4433 150.694 89.4433 150.634L89.6227 149.263C89.6227 149.204 89.6227 149.204 89.6825 149.204H89.7423H91.2972C91.357 149.204 91.4168 149.263 91.4168 149.323C91.4168 149.383 91.357 149.442 91.2972 149.442H89.8619L89.7423 150.455C89.9217 150.336 90.1011 150.276 90.3403 150.276C90.6393 150.276 90.9384 150.396 91.1178 150.634C91.357 150.872 91.4766 151.111 91.4766 151.409C91.4766 151.707 91.357 152.005 91.1178 152.183C90.8786 152.422 90.5795 152.541 90.3403 152.541C89.9217 152.541 89.6825 152.481 89.4433 152.243Z" fill="#A6A6A6"/>
  <path d="M92.3138 150.872C92.3138 150.396 92.4334 150.038 92.6129 149.68C92.7923 149.383 93.0913 149.204 93.4501 149.204C93.8089 149.204 94.1079 149.383 94.2873 149.68C94.4667 149.978 94.5863 150.396 94.5863 150.872C94.5863 151.349 94.4667 151.707 94.2873 152.064C94.1079 152.362 93.8089 152.541 93.4501 152.541C93.0913 152.541 92.7923 152.362 92.6129 152.064C92.4334 151.766 92.3138 151.349 92.3138 150.872ZM92.553 150.872C92.553 151.29 92.6727 151.647 92.8521 151.885C93.0315 152.124 93.2707 152.303 93.5099 152.303C93.7491 152.303 93.9883 152.183 94.1677 151.885C94.3471 151.647 94.4667 151.29 94.4667 150.872C94.4667 150.455 94.3471 150.098 94.1677 149.859C93.9883 149.621 93.7491 149.442 93.5099 149.442C93.2707 149.442 93.0315 149.561 92.8521 149.859C92.6727 150.098 92.553 150.515 92.553 150.872Z" fill="#A6A6A6"/>
  <path d="M78.7356 176.26H36.8199C32.5577 176.26 29.1024 179.715 29.1024 183.977C29.1024 188.24 32.5577 191.695 36.82 191.695H78.7356C82.9979 191.695 86.4532 188.24 86.4532 183.977C86.4532 179.715 82.9979 176.26 78.7356 176.26Z" fill="#263238"/>
  <path d="M37.9531 185.02H36.2787L35.9198 185.914C35.86 186.093 35.7404 186.153 35.561 186.153C35.5012 186.153 35.5012 186.153 35.4414 186.153C35.262 186.093 35.1424 185.855 35.2022 185.676L36.6973 181.683C36.7571 181.504 36.9365 181.445 37.0561 181.445C37.2355 181.445 37.3551 181.504 37.4149 181.683L38.91 185.676C38.9698 185.855 38.91 186.093 38.6708 186.153C38.611 186.153 38.6109 186.153 38.5511 186.153C38.3717 186.153 38.2521 186.093 38.1923 185.914L37.9531 185.02ZM37.6541 184.305L37.1159 182.875L36.5777 184.305H37.6541Z" fill="white"/>
  <path d="M39.9266 185.795V181.802C39.9266 181.564 40.106 181.445 40.2855 181.445H41.0629C42.3785 181.445 43.455 182.517 43.455 183.828C43.455 185.139 42.3785 186.212 41.0629 186.212H40.2855C40.0462 186.153 39.9266 185.974 39.9266 185.795ZM40.6443 185.378H41.0629C41.9599 185.378 42.6776 184.663 42.6776 183.769C42.6776 182.875 41.9599 182.16 41.0629 182.16H40.6443V185.378Z" fill="white"/>
  <path d="M44.5912 185.795V181.802C44.5912 181.564 44.7706 181.445 44.95 181.445H45.7274C47.0431 181.445 48.1195 182.517 48.1195 183.828C48.1195 185.139 47.0431 186.212 45.7274 186.212H44.95C44.7706 186.153 44.5912 185.974 44.5912 185.795ZM45.3686 185.378H45.7872C46.6843 185.378 47.4019 184.663 47.4019 183.769C47.4019 182.875 46.6843 182.16 45.7872 182.16H45.3686V185.378Z" fill="white"/>
  <path d="M54.4587 182.16H53.3823V185.795C53.3823 186.033 53.2028 186.153 53.0234 186.153C52.844 186.153 52.6646 185.974 52.6646 185.795V182.16H51.5882C51.349 182.16 51.2294 181.981 51.2294 181.802C51.2294 181.564 51.4088 181.445 51.5882 181.445H54.5185C54.6979 181.445 54.8773 181.623 54.8773 181.802C54.8175 181.981 54.6381 182.16 54.4587 182.16Z" fill="white"/>
  <path d="M59.3625 181.981C59.7811 182.458 60.0203 183.054 60.0203 183.709C60.0203 184.365 59.7811 184.961 59.3625 185.437C58.9439 185.855 58.3459 186.153 57.7478 186.153C57.09 186.153 56.492 185.855 56.0734 185.437C55.6547 185.02 55.4155 184.365 55.4155 183.709C55.4155 183.054 55.6547 182.458 56.0734 181.981C56.492 181.504 57.09 181.266 57.7478 181.266C58.3459 181.266 58.9439 181.564 59.3625 181.981ZM59.2429 183.709C59.2429 183.232 59.0635 182.815 58.7645 182.517C58.4655 182.219 58.1066 182.04 57.688 182.04C57.2694 182.04 56.8508 182.219 56.6116 182.517C56.3126 182.815 56.1332 183.232 56.1332 183.709C56.1332 184.186 56.3126 184.603 56.6116 184.901C56.9106 185.199 57.2694 185.378 57.688 185.378C58.1066 185.378 58.4655 185.199 58.7645 184.901C59.0635 184.603 59.2429 184.186 59.2429 183.709Z" fill="white"/>
  <path d="M63.1899 183.709C63.1899 182.338 64.3262 181.266 65.7017 181.266C66.2997 181.266 66.8379 181.445 67.2565 181.802C67.4359 181.921 67.4359 182.16 67.3163 182.338C67.1967 182.517 66.9575 182.517 66.7781 182.398C66.4791 182.16 66.1203 182.04 65.7017 182.04C65.2232 182.04 64.8046 182.219 64.5056 182.517C64.2066 182.815 64.0272 183.232 64.0272 183.709C64.0272 184.186 64.2066 184.603 64.5056 184.901C64.8046 185.199 65.283 185.378 65.7017 185.378C66.1203 185.378 66.4791 185.259 66.7781 185.02C66.9575 184.901 67.1967 184.961 67.3163 185.08C67.4359 185.259 67.4359 185.497 67.2565 185.616C66.8379 185.974 66.2997 186.153 65.7017 186.153C64.3262 186.153 63.1899 185.08 63.1899 183.709Z" fill="white"/>
  <path d="M70.9642 185.02H69.2898L68.9309 185.914C68.8711 186.093 68.7515 186.153 68.5721 186.153C68.5123 186.153 68.5123 186.153 68.4525 186.153C68.2731 186.093 68.1535 185.855 68.2133 185.676L69.7084 181.683C69.7682 181.504 69.9476 181.445 70.0672 181.445C70.2466 181.445 70.3662 181.504 70.426 181.683L71.9211 185.676C71.9809 185.855 71.9211 186.093 71.6819 186.153C71.6221 186.153 71.6221 186.153 71.5623 186.153C71.3829 186.153 71.2633 186.093 71.2034 185.914L70.9642 185.02ZM70.725 184.305L70.1868 182.875L69.6486 184.305H70.725Z" fill="white"/>
  <path d="M76.1072 185.557C76.167 185.735 76.0474 185.974 75.868 186.033C75.868 186.033 75.8081 186.033 75.6885 186.033C75.6287 186.033 75.5091 186.033 75.4493 185.974C75.3895 185.914 75.2699 185.855 75.2101 185.735C75.0905 185.557 75.0905 185.318 75.0905 184.901C75.0905 184.782 75.0307 184.663 75.0307 184.603C74.9709 184.544 74.9111 184.484 74.8513 184.424C74.7317 184.305 74.5523 184.246 74.4925 184.246H73.5954V185.735C73.5954 185.914 73.416 186.093 73.2366 186.093C72.9974 186.093 72.8778 185.914 72.8778 185.735V181.743C72.8778 181.504 73.0572 181.385 73.2366 181.385H74.4327C75.2699 181.385 75.868 182.041 75.868 182.815C75.868 183.292 75.6885 183.65 75.3297 183.948C75.3895 184.007 75.5091 184.126 75.5689 184.186C75.6885 184.365 75.8081 184.663 75.8081 184.901C75.8081 185.08 75.8081 185.259 75.8081 185.318C75.9876 185.378 76.0474 185.497 76.1072 185.557ZM75.1503 182.875C75.1503 182.458 74.8513 182.16 74.4327 182.16H73.5954V183.53H74.4327C74.8513 183.53 75.1503 183.232 75.1503 182.875Z" fill="white"/>
  <path d="M79.9943 182.16H78.9179V185.795C78.9179 186.033 78.7385 186.153 78.5591 186.153C78.3797 186.153 78.2003 185.974 78.2003 185.795V182.16H77.1238C76.8846 182.16 76.765 181.981 76.765 181.802C76.765 181.564 76.9444 181.445 77.1238 181.445H80.0542C80.2336 181.445 80.413 181.623 80.413 181.802C80.3532 181.981 80.1738 182.16 79.9943 182.16Z" fill="white"/>
</svg>