<svg width="83" height="117" viewBox="0 0 83 117" fill="none" xmlns="http://www.w3.org/2000/svg">
<path d="M36.1977 63.3486H62.9185C66.4328 63.3486 69.2806 60.5008 69.2806 56.9865V6.93807C69.2806 5.12033 70.553 0.515381 76.0668 0.515381H42.4992C38.9849 0.515381 36.1371 3.36318 36.1371 6.87747V63.3486H36.1977Z" fill="#FFC727"/>
<path opacity="0.1" d="M36.1977 63.3486H62.9185C66.4328 63.3486 69.2806 60.5008 69.2806 56.9865V6.93807C69.2806 5.12033 70.553 0.515381 76.0668 0.515381H42.4992C38.9849 0.515381 36.1371 3.36318 36.1371 6.87747V63.3486H36.1977Z" fill="black"/>
<g opacity="0.1">
<path opacity="0.1" d="M65.0391 6.93799H41.0449V8.02864H65.0391V6.93799Z" fill="black"/>
<path opacity="0.1" d="M65.0391 10.0281H41.0449V11.1187H65.0391V10.0281Z" fill="black"/>
<path opacity="0.1" d="M65.0391 13.1184H41.0449V14.209H65.0391V13.1184Z" fill="black"/>
<path opacity="0.1" d="M65.0391 16.2085H41.0449V17.2991H65.0391V16.2085Z" fill="black"/>
<path opacity="0.1" d="M65.0391 19.2986H41.0449V20.3892H65.0391V19.2986Z" fill="black"/>
<path opacity="0.1" d="M65.0391 22.3887H41.0449V23.4793H65.0391V22.3887Z" fill="black"/>
<path opacity="0.1" d="M65.0391 25.479H41.0449V26.5697H65.0391V25.479Z" fill="black"/>
<path opacity="0.1" d="M65.0391 28.5691H41.0449V29.6597H65.0391V28.5691Z" fill="black"/>
<path opacity="0.1" d="M65.0391 31.72H41.0449V32.8106H65.0391V31.72Z" fill="black"/>
<path opacity="0.1" d="M65.0391 34.8101H41.0449V35.9007H65.0391V34.8101Z" fill="black"/>
<path opacity="0.1" d="M65.0391 37.9001H41.0449V38.9908H65.0391V37.9001Z" fill="black"/>
<path opacity="0.1" d="M65.0391 40.9902H41.0449V42.0809H65.0391V40.9902Z" fill="black"/>
<path opacity="0.1" d="M65.0391 44.0806H41.0449V45.1712H65.0391V44.0806Z" fill="black"/>
<path opacity="0.1" d="M65.0391 47.1707H41.0449V48.2613H65.0391V47.1707Z" fill="black"/>
<path opacity="0.1" d="M65.0391 50.2607H41.0449V51.3514H65.0391V50.2607Z" fill="black"/>
<path opacity="0.1" d="M65.0391 53.3511H41.0449V54.4417H65.0391V53.3511Z" fill="black"/>
</g>
<path d="M4 49.4833V109.893H24.2375V109.953C24.2375 113.468 27.0247 116.316 30.539 116.376H30.7814C31.0238 116.376 31.2055 116.376 31.4479 116.316L32.6597 116.073C32.9627 115.952 33.2656 115.831 33.508 115.71C33.6292 115.649 33.811 115.588 33.9321 115.467C33.9927 115.407 34.0533 115.407 34.1139 115.346C34.2957 115.225 34.4775 115.104 34.6592 114.983L34.7198 114.922C34.841 114.801 34.9622 114.74 35.0834 114.619C35.144 114.558 35.2046 114.498 35.2651 114.437C35.9922 113.71 36.5376 112.801 36.8405 111.832V111.771C36.9011 111.589 36.9011 111.468 36.9617 111.286C37.0223 111.105 37.0223 110.862 37.0829 110.681C37.0829 110.559 37.0829 110.499 37.0829 110.378C37.0829 110.317 37.0829 110.317 37.0829 110.256C37.0829 110.135 37.0829 110.014 37.0829 109.893V49.4227C37.0829 47.6049 38.3553 43 43.8691 43H10.3621C6.84779 43.1212 4 45.969 4 49.4833Z" fill="#FFC727"/>
<g opacity="0.1">
<path opacity="0.1" d="M38.8031 39.8394H14.809V40.93H38.8031V39.8394Z" fill="black"/>
<path opacity="0.1" d="M41.0451 36.9915H17.0509V38.0821H41.0451V36.9915Z" fill="black"/>
<path opacity="0.1" d="M38.8031 42.9294H14.809V44.0201H38.8031V42.9294Z" fill="black"/>
<path opacity="0.1" d="M38.8031 46.0195H14.809V47.1101H38.8031V46.0195Z" fill="black"/>
<path opacity="0.1" d="M38.8031 49.1704H14.809V50.2611H38.8031V49.1704Z" fill="black"/>
<path opacity="0.1" d="M38.8031 52.2605H14.809V53.3512H38.8031V52.2605Z" fill="black"/>
<path opacity="0.1" d="M38.8031 55.3506H14.809V56.4412H38.8031V55.3506Z" fill="black"/>
<path opacity="0.1" d="M38.8031 58.4409H14.809V59.5315H38.8031V58.4409Z" fill="black"/>
<path opacity="0.1" d="M38.8031 61.531H14.809V62.6217H38.8031V61.531Z" fill="black"/>
<path opacity="0.1" d="M38.8031 64.6211H14.809V65.7118H38.8031V64.6211Z" fill="black"/>
<path opacity="0.1" d="M38.8031 67.7114H14.809V68.8021H38.8031V67.7114Z" fill="black"/>
<path opacity="0.1" d="M38.8031 70.8015H14.809V71.8922H38.8031V70.8015Z" fill="black"/>
<path opacity="0.1" d="M38.8031 73.9521H14.809V75.0428H38.8031V73.9521Z" fill="black"/>
<path opacity="0.1" d="M38.8031 77.0425H14.809V78.1331H38.8031V77.0425Z" fill="black"/>
<path opacity="0.1" d="M38.8031 80.1326H14.809V81.2232H38.8031V80.1326Z" fill="black"/>
<path opacity="0.1" d="M38.8031 83.2227H14.809V84.3133H38.8031V83.2227Z" fill="black"/>
<path opacity="0.1" d="M38.8031 86.3127H14.809V87.4034H38.8031V86.3127Z" fill="black"/>
<path opacity="0.1" d="M38.8031 89.4031H14.809V90.4937H38.8031V89.4031Z" fill="black"/>
<path opacity="0.1" d="M38.8031 92.4932H14.809V93.5838H38.8031V92.4932Z" fill="black"/>
<path opacity="0.1" d="M38.8031 96.9771H26.806V99.5219H38.8031V96.9771Z" fill="black"/>
</g>
<path d="M62.7368 63.3486C62.7974 63.3486 62.858 63.3486 62.9186 63.3486C63.161 63.3486 63.4033 63.3486 63.6457 63.2881C63.4033 63.2881 63.2215 63.3486 62.9792 63.3486H62.7368Z" fill="#FFC727"/>
<path d="M75.7639 0.515381C72.189 0.515381 69.3412 3.42377 69.3412 6.93807V19.0563H82.1866V6.93807C82.1866 3.42377 79.2782 0.515381 75.7639 0.515381Z" fill="#FFC727"/>
<path opacity="0.2" d="M75.7639 0.515381C72.189 0.515381 69.3412 3.42377 69.3412 6.93807V19.0563H82.1866V6.93807C82.1866 3.42377 79.2782 0.515381 75.7639 0.515381Z" fill="black"/>
<path d="M43.4686 42.2628V63.4092H56.314H62.6155C59.1618 63.3486 56.314 60.5008 56.314 56.9865V42.2628C56.314 38.6879 53.4056 35.8401 49.8913 35.8401C48.1342 35.8401 46.4982 36.5672 45.347 37.7184C44.1957 38.8697 43.4686 40.445 43.4686 42.2628Z" fill="#FFC727"/>
<path opacity="0.2" d="M43.4686 42.2628V63.4092H56.314H62.6155C59.1618 63.3486 56.314 60.5008 56.314 56.9865V42.2628C56.314 38.6879 53.4056 35.8401 49.8913 35.8401C48.1342 35.8401 46.4982 36.5672 45.347 37.7184C44.1957 38.8697 43.4686 40.445 43.4686 42.2628Z" fill="black"/>
<path d="M0.994141 102.612V102.672C0.994141 106.187 3.78134 109.035 7.29564 109.095H36.9248C33.4711 109.035 30.6233 106.187 30.6233 102.672V102.612H0.994141Z" fill="#FFC727"/>
<path opacity="0.2" d="M0.994141 102.612V102.672C0.994141 106.187 3.78134 109.035 7.29564 109.095H36.9248C33.4711 109.035 30.6233 106.187 30.6233 102.672V102.612H0.994141Z" fill="black"/>
</svg>
