<svg width="88" height="218" viewBox="0 0 88 218" fill="none" xmlns="http://www.w3.org/2000/svg">
<path d="M9.8666 210.914C11.3208 211.156 50.5234 205.521 51.8564 204.37C52.4017 203.946 51.917 198.19 51.0687 191.222C51.0687 191.161 51.0687 191.1 51.0687 190.979C50.887 189.525 45.9185 165.834 45.9185 165.834L19.6824 169.53L25.7415 194.312L25.8021 194.736C25.8021 194.736 11.7449 203.582 10.4119 205.036C9.07891 206.551 8.41241 210.671 9.8666 210.914Z" fill="#F7A9A0"/>
<path d="M51.8564 204.37C50.5234 205.521 11.3208 211.217 9.8666 210.914C8.41241 210.671 9.07891 206.551 10.4119 205.097C11.7449 203.643 25.8021 194.796 25.8021 194.796L25.7415 194.372L25.075 191.525L50.4628 187.707C50.6446 188.737 51.0687 190.797 51.0687 191.04C51.0687 191.1 51.0687 191.161 51.0687 191.282C51.917 198.19 52.4017 203.946 51.8564 204.37Z" fill="#FFC727"/>
<path d="M9.86664 210.914C10.5937 211.035 21.2578 209.641 31.6795 208.066C33.8002 207.763 35.8603 207.4 37.8598 207.097C45.252 205.945 51.3717 204.794 51.9171 204.37C52.4624 203.946 51.9776 198.311 51.19 191.525C51.19 191.403 51.19 191.343 51.1294 191.222C51.1294 191.161 51.1294 191.1 51.1294 190.979L25.8022 194.312L25.8628 194.736C25.8628 194.736 11.8056 203.582 10.4726 205.036C9.07895 206.551 8.41244 210.671 9.86664 210.914Z" fill="#A6A6A6"/>
<path d="M10.109 209.339C16.7135 208.248 43.3737 204.37 49.9781 203.764C50.0387 203.764 50.0387 203.825 49.9781 203.825C43.4949 205.097 16.7741 208.733 10.1696 209.46C9.98784 209.46 9.92725 209.399 10.109 209.339Z" fill="#263238"/>
<path d="M22.9544 194.857C25.4992 194.009 28.7106 193.948 30.9525 195.524C31.013 195.584 30.9525 195.705 30.8919 195.705C28.2258 195.281 25.7416 195.099 23.015 195.221C22.7726 195.221 22.7726 194.918 22.9544 194.857Z" fill="#263238"/>
<path d="M21.1972 196.251C23.742 195.402 26.9534 195.342 29.1952 196.917C29.2558 196.978 29.1952 197.099 29.1346 197.099C26.4686 196.675 23.9844 196.493 21.2578 196.614C21.076 196.614 21.0154 196.311 21.1972 196.251Z" fill="#263238"/>
<path d="M19.5007 197.705C22.0456 196.857 25.2569 196.796 27.4988 198.372C27.5594 198.432 27.4988 198.553 27.4382 198.553C24.7722 198.129 22.2879 197.947 19.5613 198.069C19.3796 198.008 19.319 197.766 19.5007 197.705Z" fill="#263238"/>
<path d="M21.9849 190.01L51.4928 185.95C51.4928 185.95 44.1613 135.659 44.4037 134.508C44.7066 132.993 61.9752 62.4648 61.9752 62.4648H37.7992C37.7992 62.4648 17.9252 127.904 17.1375 134.205C15.8045 144.384 21.9849 190.01 21.9849 190.01Z" fill="#37474F"/>
<path d="M23.3178 184.011C28.3469 182.981 46.7061 180.8 48.7056 180.86C48.7662 180.86 48.7662 180.921 48.7056 180.921C46.7667 181.466 31.0129 183.648 23.3178 184.132C23.2572 184.132 23.2572 184.011 23.3178 184.011Z" fill="#263238"/>
<path d="M56.4007 67.8574C55.7948 69.6145 55.31 71.3717 54.7647 73.0682C54.2194 74.8254 53.7347 76.5825 53.2499 78.3397C52.2199 81.7934 51.2504 85.3077 50.2809 88.7614C48.2814 95.79 46.4031 102.819 44.5247 109.908C43.6159 113.422 42.707 116.876 41.7981 120.39C40.8893 123.904 39.9198 127.419 39.1321 130.933C38.7686 132.63 38.5262 134.266 38.5868 136.023C38.708 137.78 39.0109 139.476 39.3139 141.234C39.9198 144.808 40.4651 148.444 41.071 152.019C42.2223 159.29 43.4947 166.561 44.7065 173.832C44.8883 174.741 45.0095 175.589 45.1913 176.498C45.1913 176.558 45.3124 176.558 45.3124 176.498C44.343 169.287 43.1312 162.077 41.9799 154.867C41.4346 151.292 40.8287 147.777 40.2833 144.202C39.9804 142.324 39.6774 140.506 39.3745 138.628C39.1321 136.871 38.9503 135.053 39.1927 133.296C39.4351 131.539 39.9198 129.842 40.3439 128.146C40.7681 126.389 41.1922 124.692 41.677 122.935C42.5858 119.421 43.4947 115.906 44.4036 112.453C46.2213 105.424 48.1602 98.3954 50.0386 91.4274C51.9775 84.4594 53.9164 77.4914 55.8554 70.5234C56.0977 69.6751 56.3401 68.8268 56.5825 67.918C56.4613 67.8574 56.4007 67.7968 56.4007 67.8574Z" fill="#263238"/>
<path d="M35.1345 217.518C36.5281 217.942 76.1549 217.215 77.6091 216.246C78.1544 215.882 78.3968 210.126 78.5179 203.097C78.5179 203.037 78.5179 202.976 78.5179 202.855C78.5179 201.401 77.7303 177.285 77.7303 177.285L51.8577 177.71L53.009 203.097V203.521C53.009 203.521 37.9823 210.611 36.4675 211.822C34.8921 213.095 33.7409 217.094 35.1345 217.518Z" fill="#F7A9A0"/>
<path d="M78.5772 200.128C78.5772 201.037 78.5772 202.007 78.5772 202.916V203.158C78.5166 210.126 78.2743 215.943 77.6683 216.306C76.2141 217.276 36.5874 218.003 35.1938 217.579C33.8002 217.155 34.9514 213.156 36.4662 211.883C37.981 210.611 53.0076 203.582 53.0076 203.582V203.158L52.8865 200.431C57.4308 200.31 70.5186 200.189 78.5772 200.128Z" fill="#FFC727"/>
<path d="M35.1332 217.518C36.5268 217.942 76.1536 217.215 77.6078 216.246C78.1531 215.882 78.3955 210.126 78.5167 203.097C78.5167 203.037 78.5167 202.976 78.5167 202.855L52.9471 203.037V203.461C52.9471 203.461 37.9204 210.55 36.4057 211.762C34.8909 213.095 33.7396 217.094 35.1332 217.518Z" fill="#A6A6A6"/>
<path d="M35.5574 215.943C42.2225 215.64 69.1857 215.155 75.7901 215.337C75.8507 215.337 75.8507 215.397 75.7901 215.397C69.1857 215.822 42.2225 216.124 35.5574 216.064C35.4363 216.064 35.4363 215.943 35.5574 215.943Z" fill="#263238"/>
<path d="M50.0993 203.218C52.7048 202.673 55.9161 203.037 57.9762 204.854C58.0368 204.915 57.9762 205.036 57.8551 205.036C55.2496 204.249 52.826 203.764 50.0993 203.582C49.9782 203.521 49.9176 203.218 50.0993 203.218Z" fill="#263238"/>
<path d="M48.2816 204.37C50.887 203.824 54.0983 204.188 56.1584 206.006C56.219 206.066 56.1584 206.187 56.0372 206.187C53.4318 205.4 51.0082 204.915 48.2816 204.733C48.0998 204.673 48.0392 204.43 48.2816 204.37Z" fill="#263238"/>
<path d="M46.4033 205.521C49.0087 204.976 52.22 205.339 54.2801 207.157C54.3407 207.217 54.2801 207.339 54.159 207.339C51.5535 206.551 49.1299 206.066 46.4033 205.884C46.2215 205.884 46.1609 205.582 46.4033 205.521Z" fill="#263238"/>
<path d="M38.4658 62.4648C38.4658 62.4648 39.0112 74.0378 41.6772 83.1871C41.8589 83.9748 42.1013 84.7019 42.3437 85.429C42.3437 85.429 43.3737 85.429 47.6151 87.9738L51.1294 198.795L79.668 198.492C79.668 198.492 75.1236 139.779 75.1236 136.023C75.1842 129.964 71.8517 89.0039 72.2152 87.9738C75.7295 77.3703 69.9128 62.4648 69.9128 62.4648H38.4658Z" fill="#37474F"/>
<path d="M52.0988 193.463C60.1574 192.979 75.7294 192.857 77.6683 193.16C77.7289 193.16 77.7289 193.221 77.6683 193.221C75.6688 193.584 56.7643 193.948 52.0988 193.584C52.0382 193.584 52.0382 193.524 52.0988 193.463Z" fill="#263238"/>
<path d="M50.3417 147.171C49.9782 134.447 49.554 121.784 49.0693 109.059C48.7664 101.91 48.4634 94.7598 48.0393 87.5494C48.0393 87.3071 47.6151 87.3071 47.6757 87.5494C47.9787 100.334 48.4634 113.058 48.8876 125.843C49.3117 138.567 49.7358 151.231 50.16 163.955C50.4023 171.105 50.6447 178.255 50.9477 185.465C50.9477 185.586 51.1294 185.586 51.1294 185.465C51.0083 172.68 50.7053 159.956 50.3417 147.171Z" fill="#263238"/>
<path d="M72.6394 164.925C72.0334 156.624 71.4275 148.262 70.761 139.961C70.1551 131.66 69.5492 123.299 68.8827 114.997C68.5797 110.817 68.2768 106.696 67.9738 102.516C67.792 100.456 67.6709 98.3349 67.4891 96.2748C67.3073 94.2146 67.0649 92.1545 67.1255 90.0944C67.1861 87.8526 68.1556 85.853 68.7009 83.6718C69.1856 81.6117 69.3674 79.491 69.3674 77.4308C69.3068 73.0683 68.3374 68.8269 67.4285 64.5855C67.3679 64.3431 67.0043 64.4643 67.0649 64.7067C67.9738 68.5845 68.8221 72.5229 69.0039 76.522C69.0645 78.5215 69.0039 80.521 68.5797 82.4599C68.2162 84.3383 67.4285 86.0954 67.0043 87.9737C66.5196 89.9127 66.8226 91.8516 66.9437 93.8511C67.1255 95.9112 67.2467 98.0319 67.3679 100.092C67.6708 104.152 67.9738 108.272 68.2768 112.331C69.4886 128.934 70.7004 145.475 72.0334 162.077C72.7605 171.408 73.3664 180.739 74.2753 190.07C74.2753 190.131 74.3965 190.131 74.3965 190.07C73.9118 181.587 73.2453 173.226 72.6394 164.925Z" fill="#263238"/>
<path d="M66.8226 75.007C66.3379 74.8253 65.7925 74.7647 65.3078 74.6435C64.7625 74.5223 64.2778 74.3405 63.793 74.0982C62.8842 73.674 61.9147 73.1287 61.127 72.5228C60.2787 71.8563 59.794 71.008 59.4304 70.0385C59.1881 69.5538 59.0063 69.0085 58.8245 68.4632C58.7033 68.2208 58.6427 67.9784 58.5216 67.6755C58.461 67.5543 58.2186 67.009 58.158 66.8878H58.2186V66.8272C58.158 66.7666 58.158 66.7666 58.0974 66.7666C58.0974 66.7666 58.0368 66.7666 58.0368 66.8272C57.9157 67.009 58.0368 67.1907 58.0974 67.3725C58.158 67.7361 58.2792 68.039 58.3398 68.4026C58.5216 69.0085 58.6427 69.6144 58.8245 70.1597C59.1881 71.2504 59.6728 72.2804 60.5211 73.0075C61.3694 73.7346 62.3994 74.3405 63.4901 74.7041C64.0354 74.8859 64.5807 75.0676 65.1866 75.1888C65.7319 75.2494 66.2773 75.3706 66.8226 75.31C66.8832 75.1888 66.8832 75.0676 66.8226 75.007Z" fill="#263238"/>
<path d="M43.8585 81.4299C43.7979 80.4604 43.7373 79.4304 43.6161 78.4609C43.4343 76.219 43.1919 73.9166 42.7678 71.6747C42.7072 71.4929 42.4648 71.5535 42.5254 71.7353C42.7072 73.4924 42.889 75.2496 43.0708 77.0067C43.2525 78.7639 43.4343 80.521 43.4949 82.2782C43.4949 82.8235 43.4949 83.7324 42.8284 83.8536C41.9801 84.0353 41.556 82.8841 41.3136 82.2782C40.7683 80.7028 40.4653 79.0668 40.223 77.4915C39.92 75.6131 39.7988 73.7348 39.617 71.9171C39.617 71.8565 39.4958 71.8565 39.4958 71.9171C39.4958 75.6131 39.5564 79.491 40.8894 83.0053C41.1318 83.6718 41.6165 84.3989 42.4042 84.4595C42.4042 84.4595 42.4042 84.4595 42.4648 84.4595V84.5201C42.4648 84.6412 42.5254 84.7018 42.5254 84.823C42.5254 84.8836 42.586 85.0048 42.586 85.0654C42.6466 85.2472 42.6466 85.4289 42.7072 85.6107C42.7678 85.7925 42.9496 85.7319 42.9496 85.5501C43.0102 85.5501 43.0102 85.4895 43.0102 85.4289C43.0102 85.0654 42.889 84.7018 42.7678 84.3989C43.1919 84.3383 43.5555 84.0353 43.7373 83.6112C44.0402 82.8841 43.919 82.0964 43.8585 81.4299Z" fill="#263238"/>
<path d="M41.1925 84.7017C44.0403 85.8529 46.7669 87.3677 49.3723 88.9431C49.4935 89.0037 49.3723 89.1855 49.3117 89.1249C46.5851 87.7919 43.7373 86.5194 41.0713 85.0047C40.829 84.8835 40.9501 84.6411 41.1925 84.7017Z" fill="#263238"/>
<path d="M40.8894 47.4382C42.586 48.7712 44.222 49.7407 45.8579 50.5284C43.1919 45.984 43.5554 35.7441 43.919 37.1983C45.4944 44.1663 49.857 51.8008 51.5535 52.2249C56.0373 52.8309 60.0969 51.619 63.49 49.6801C60.0363 44.5298 60.1575 34.1687 60.3999 34.7746C62.9447 41.5609 68.2161 45.4993 69.125 45.4993C72.5181 42.288 74.2753 39.0766 73.7906 38.7131C70.2763 36.35 67.3073 30.2303 64.6413 23.747C61.9752 17.3849 60.6422 11.2652 56.8856 5.56959C53.4925 0.358727 46.6456 -0.610734 42.7678 2.05529C32.649 9.08389 38.7081 45.8023 40.8894 47.4382Z" fill="#263238"/>
<path d="M51.4323 2.41879C54.2195 3.08529 56.5826 5.63013 58.0367 8.05378C59.9757 11.2045 61.3087 14.7794 62.8841 18.1725C66.0954 24.777 70.0944 30.8361 75.1235 36.1682C75.2447 36.2894 75.0629 36.4711 74.9417 36.35C69.4885 32.2297 65.7318 26.3524 62.7023 20.2932C61.1269 17.2031 59.9151 13.9311 58.4003 10.841C57.6126 9.14443 56.6431 7.44787 55.4313 5.99368C54.2195 4.60008 52.8259 3.7518 51.2505 2.96411C51.0081 2.72174 51.1293 2.2976 51.4323 2.41879Z" fill="#263238"/>
<path d="M87.5447 134.326L47.7362 141.415L46.282 99.8497L74.5175 94.76L87.5447 134.326Z" fill="#EBEBEB"/>
<path d="M74.5176 94.76L77.3048 136.144L87.5447 134.326L74.5176 94.76Z" fill="#4A56E2"/>
<path d="M54.1588 101.486H52.7046C52.7046 101.425 52.7046 97.426 52.7046 93.3664C52.7652 88.9432 56.4613 86.156 59.9755 85.9742C62.6416 85.853 65.9135 87.2466 66.4588 91.6092C67.0041 96.3353 67.1253 98.5772 67.1253 98.6378L65.6711 98.6984C65.6711 98.6984 65.55 96.3959 65.0046 91.7304C64.6411 88.3373 62.2174 87.2466 60.0967 87.3678C57.1884 87.5496 54.2194 89.7915 54.1588 93.3058C54.1588 97.426 54.1588 101.425 54.1588 101.486Z" fill="#263238"/>
<path d="M77.7896 135.72C78.5166 134.993 79.2437 134.326 80.0314 133.599C80.7585 132.932 81.5462 132.266 82.3339 131.599L82.4551 131.539L82.5763 131.599C83.364 131.963 84.091 132.387 84.8787 132.811C85.6058 133.235 86.3935 133.66 87.1206 134.084C86.3329 133.781 85.5452 133.417 84.7576 133.114C83.9699 132.751 83.1822 132.387 82.4551 132.024H82.6974C81.9098 132.69 81.1221 133.357 80.3344 133.962C79.4255 134.508 78.6378 135.114 77.7896 135.72Z" fill="white"/>
<path d="M82.455 131.781C81.7885 129.236 81.2432 126.692 80.6373 124.086C80.0314 121.541 79.4861 118.936 78.9407 116.391C78.3954 113.786 77.8501 111.241 77.3654 108.635L76.5777 104.757C76.3353 103.485 76.093 102.152 75.8506 100.88C76.1535 102.152 76.4565 103.424 76.7595 104.697L77.6683 108.514C78.2742 111.059 78.8195 113.664 79.3649 116.209C79.9102 118.815 80.4555 121.36 80.9402 123.965C81.4856 126.631 82.0309 129.176 82.455 131.781Z" fill="white"/>
<path d="M55.3707 101.062C55.6131 102.092 54.9466 103.122 53.856 103.364C52.8259 103.606 51.7958 102.94 51.5535 101.849C51.3111 100.819 51.9776 99.7891 53.0683 99.5468C54.0983 99.3044 55.1284 99.9709 55.3707 101.062Z" fill="#263238"/>
<path d="M68.1555 98.2744C68.3978 99.3044 67.7313 100.334 66.6407 100.577C65.6107 100.819 64.5806 100.153 64.3383 99.062C64.0959 98.032 64.7624 97.0019 65.853 96.7596C66.8831 96.5778 67.9737 97.2443 68.1555 98.2744Z" fill="#263238"/>
<path d="M82.9398 146.202H36.2239L43.0101 98.6379H76.093L82.9398 146.202Z" fill="#FFC727"/>
<path opacity="0.1" d="M76.093 98.6379L70.9427 146.202H82.9398L76.093 98.6379Z" fill="black"/>
<path d="M52.3412 101.91L50.887 101.607C50.887 101.546 51.7353 97.5472 52.6441 93.5482C53.6136 89.1856 57.9156 87.1861 61.4905 87.7314C64.1565 88.1556 67.1255 90.2763 66.7013 94.76C66.2166 99.5467 65.853 101.789 65.853 101.91L64.3989 101.667C64.3989 101.667 64.7624 99.365 65.2471 94.6388C65.6107 91.1851 63.4294 89.6098 61.3087 89.2462C58.4003 88.7615 54.9466 90.3974 54.1589 93.9117C53.1895 97.9108 52.3412 101.849 52.3412 101.91Z" fill="#263238"/>
<path d="M71.5486 145.839C72.518 145.172 73.4875 144.505 74.5176 143.9C75.487 143.294 76.5171 142.688 77.5471 142.082L77.6683 142.021L77.7895 142.142C78.5772 142.748 79.3649 143.354 80.1526 143.96C80.9403 144.566 81.6674 145.172 82.455 145.839C81.6068 145.354 80.7585 144.808 79.9708 144.203C79.1225 143.657 78.3348 143.051 77.5471 142.506H77.7895C76.7595 143.112 75.7294 143.657 74.6993 144.203C73.6693 144.808 72.6392 145.354 71.5486 145.839Z" fill="white"/>
<path d="M77.6684 142.324C77.4866 139.295 77.3048 136.265 77.1836 133.236C77.0625 130.206 76.9413 127.176 76.8201 124.147C76.7595 121.117 76.6383 118.088 76.5777 115.058L76.5171 110.514C76.5171 108.999 76.4565 107.484 76.4565 105.969C76.5777 107.484 76.6383 108.999 76.7595 110.514L77.0019 115.058C77.123 118.088 77.2442 121.117 77.3654 124.147C77.426 127.176 77.5472 130.206 77.6078 133.236C77.6078 136.265 77.6684 139.295 77.6684 142.324Z" fill="white"/>
<path d="M51.614 103.788C52.7183 103.788 53.6135 102.893 53.6135 101.789C53.6135 100.684 52.7183 99.7891 51.614 99.7891C50.5097 99.7891 49.6145 100.684 49.6145 101.789C49.6145 102.893 50.5097 103.788 51.614 103.788Z" fill="#263238"/>
<path d="M64.9441 103.788C66.0484 103.788 66.9436 102.893 66.9436 101.789C66.9436 100.684 66.0484 99.7891 64.9441 99.7891C63.8398 99.7891 62.9446 100.684 62.9446 101.789C62.9446 102.893 63.8398 103.788 64.9441 103.788Z" fill="#263238"/>
<path d="M15.3197 12.174L20.9547 29.6849C21.1971 30.1696 20.9547 30.6543 20.4094 30.6543L11.2601 31.2602C10.7754 31.3208 10.1694 30.8967 9.92708 30.412L4.29207 12.9011C4.0497 12.4163 4.29207 11.9316 4.83739 11.9316L13.9867 11.3257C14.4714 11.3257 15.0774 11.6892 15.3197 12.174Z" fill="#A6A6A6"/>
<path d="M14.2291 12.2344L19.8642 29.7453C20.1065 30.2301 19.8642 30.7148 19.3188 30.7148L10.1695 31.3207C9.68478 31.3813 9.07886 30.9572 8.83649 30.4724L3.20149 12.9615C2.95913 12.4768 3.20149 11.9921 3.74681 11.9921L12.8961 11.3862C13.3809 11.3256 13.9868 11.7497 14.2291 12.2344Z" fill="#DBDBDB"/>
<path d="M11.7449 13.204C11.8055 13.6281 12.169 13.9311 12.5932 13.9311C13.0173 13.8705 13.3203 13.5069 13.3203 13.0828C13.2597 12.6587 12.8961 12.3557 12.472 12.3557C12.0478 12.4163 11.7449 12.7799 11.7449 13.204Z" fill="#455A64"/>
<path d="M46.6456 37.2587C42.283 48.7105 31.6189 63.9189 26.8322 64.2824C24.5297 64.4642 20.4701 65.3125 17.2587 62.8888C10.2907 57.6174 3.98923 47.0139 2.41385 40.773C1.86853 38.5917 12.4114 32.8961 14.1686 34.5927C18.2282 38.5917 23.2573 46.6504 23.9238 46.5292C26.408 46.1656 35.4362 37.4405 41.7983 31.2601C49.3722 23.9286 48.3421 32.6537 46.6456 37.2587Z" fill="#F7A9A0"/>
<path d="M1.26257 29.2607C2.11085 24.6558 3.01973 23.5651 1.62613 19.2631C0.717254 16.4759 2.11085 14.6582 4.29215 16.8395C7.86705 20.3538 8.04883 26.5341 7.50351 28.7154L1.26257 29.2607Z" fill="#F7A9A0"/>
<path d="M3.08037 42.7121C3.08037 42.7121 0.596128 36.5318 0.959676 31.5027C1.20204 28.049 2.65624 20.5357 11.9873 15.9307C14.2292 14.8401 18.107 14.8401 15.138 17.9302C13.0174 20.1115 11.0178 20.8992 10.0484 22.3534C10.0484 22.3534 15.0169 22.9593 16.0469 25.2618C16.4711 26.2919 17.6223 29.0791 18.2282 31.3815C18.2282 31.3815 17.7435 31.6239 17.1376 31.8663C17.1376 31.8663 17.8647 34.0476 16.4711 37.3195L3.08037 42.7121Z" fill="#F7A9A0"/>
<path d="M1.74731 28.2308C3.08033 26.9583 5.86753 24.2923 8.8971 22.8987C12.2902 21.3839 19.2582 19.3238 20.3489 21.8687C21.1366 23.6864 18.5917 24.7165 18.5917 24.7165C18.5917 24.7165 21.6213 24.4741 21.9849 26.2918C22.3484 27.9278 20.2883 28.5943 20.2883 28.5943C20.2883 28.5943 22.1666 28.7761 22.1666 30.412C22.1666 32.4116 18.2282 31.7451 16.5316 33.7446C16.1681 34.2899 1.74731 28.2308 1.74731 28.2308Z" fill="#F7A9A0"/>
<path d="M9.92712 26.7766C11.3207 25.7466 15.138 24.353 18.5311 24.6559C18.5917 24.6559 18.6523 24.7165 18.5917 24.7165C14.7744 25.1407 11.3813 26.2313 9.92712 26.7766C9.92712 26.8372 9.92712 26.7766 9.92712 26.7766Z" fill="#263238"/>
<path d="M11.5631 30.1697C12.8961 29.4426 16.8951 28.1096 20.2883 28.5944C20.3488 28.5944 20.4094 28.6549 20.3489 28.6549C16.3498 28.8973 13.0779 29.7456 11.5631 30.1697Z" fill="#263238"/>
<path d="M17.8041 38.4707L5.1405 53.1339C5.1405 53.1339 15.9864 63.7373 19.5007 64.5856C23.015 65.4339 25.681 64.8886 28.1652 64.2221C30.6495 63.495 42.7678 49.4378 46.7668 37.986C50.7658 26.4736 46.4638 25.9283 39.6776 32.8963C32.8914 39.8643 24.4692 46.7112 24.045 46.2264C23.6209 45.6811 17.8041 38.4707 17.8041 38.4707Z" fill="#FFC727"/>
<path opacity="0.1" d="M17.8041 38.4707L5.1405 53.1339C5.1405 53.1339 15.9864 63.7373 19.5007 64.5856C23.015 65.4339 25.681 64.8886 28.1652 64.2221C30.6495 63.495 42.7678 49.4378 46.7668 37.986C50.7658 26.4736 46.4638 25.9283 39.6776 32.8963C32.8914 39.8643 24.4692 46.7112 24.045 46.2264C23.6209 45.6811 17.8041 38.4707 17.8041 38.4707Z" fill="black"/>
<path d="M20.1067 42.5305C19.5614 43.0152 15.3805 47.7413 14.4111 48.832C13.5022 49.862 9.86671 54.2852 8.95784 55.3758C8.89724 55.4364 8.95784 55.497 9.01843 55.4364C9.50316 54.8911 10.0485 54.4064 10.5332 53.861C11.018 53.3157 13.8658 50.1044 14.7746 49.0743C15.6835 47.9837 19.8037 43.1364 20.1673 42.5911C20.2279 42.5305 20.1673 42.4699 20.1067 42.5305Z" fill="#263238"/>
<path d="M35.0726 57.3752L32.7095 77.7339C32.7095 77.7339 65.7318 77.2492 73.9116 76.4009C73.9116 76.4009 66.0953 38.7131 57.0066 29.382C52.4623 24.7165 47.312 25.2618 44.1007 28.6549C43.313 29.5032 33.7395 43.0151 32.8307 48.0442C32.043 52.5885 35.0726 57.3752 35.0726 57.3752Z" fill="#FFC727"/>
<path d="M33.7395 54.1034C33.376 52.9522 33.1336 51.7403 33.1336 50.5285C33.1336 48.0443 33.8607 45.6206 34.9513 43.4393C35.5572 42.1669 36.2843 40.9551 36.8903 39.6827C36.8903 39.6221 36.8297 39.6221 36.8297 39.6827C36.2238 40.5309 35.739 41.4398 35.2543 42.2881C35.2543 42.2275 35.2543 42.2275 35.3149 42.1669C35.4361 41.6822 35.6178 41.1974 35.7996 40.7127C35.7996 40.6521 35.739 40.6521 35.739 40.6521C35.5572 41.1368 35.3755 41.561 35.1937 42.0457C35.0725 42.3487 35.0119 42.6516 34.9513 42.9546C34.3454 44.0452 33.8607 45.1965 33.4366 46.4083C32.6489 48.7714 32.5277 51.3162 33.2548 53.7399C33.4366 54.3458 33.7395 54.9517 33.9819 55.5576C34.2848 56.2241 34.709 56.83 35.0725 57.4359C35.0725 57.4965 35.1937 57.4359 35.1331 57.3753C34.5272 56.4059 34.1031 55.2546 33.7395 54.1034Z" fill="#263238"/>
<path d="M51.614 28.8377C51.3716 29.4436 47.4937 33.0185 44.6459 32.352C43.6765 32.1097 44.7065 26.9594 44.7065 26.9594V26.5353L44.5247 20.9609L51.614 18.1131L52.644 17.7495C52.644 17.7495 52.5834 19.2643 52.5228 21.2032C52.5228 21.2638 52.5228 21.385 52.5228 21.4456C52.5228 21.5668 52.5228 21.6274 52.5228 21.7485C52.5228 22.0515 52.5228 22.3545 52.4622 22.5968C52.4622 22.8392 52.4622 23.021 52.4016 23.2633C52.4016 23.5057 52.3411 23.7481 52.3411 23.9298C52.1593 26.2929 51.7351 28.5954 51.614 28.8377Z" fill="#F7A9A0"/>
<path d="M52.4621 21.1416C50.0991 25.1407 46.3424 26.2313 44.7064 26.5343L44.5247 20.9599L51.6139 18.1121L52.6439 17.7485C52.5833 17.6879 52.5833 19.2633 52.4621 21.1416Z" fill="#263238"/>
<path d="M37.9203 12.2951C36.5873 22.0504 42.2829 23.9287 44.343 24.2316C46.2213 24.474 52.7652 25.1405 55.1282 15.5671C57.4913 5.99364 53.3711 2.29757 49.0085 1.44929C44.7066 0.661601 39.2533 2.53993 37.9203 12.2951Z" fill="#F7A9A0"/>
<path d="M40.5256 10.2956C40.768 10.2956 40.9498 10.2956 41.1921 10.235C41.4345 10.235 41.6768 10.235 41.8586 10.0533C41.9798 9.99268 41.9798 9.75031 41.9192 9.62913C41.7374 9.32617 41.4345 9.32617 41.0709 9.32617C40.7074 9.32617 40.465 9.44735 40.2227 9.68972C40.0409 9.87149 40.2227 10.2956 40.5256 10.2956Z" fill="#263238"/>
<path d="M46.9484 11.265C46.7061 11.2044 46.5243 11.1439 46.282 11.0227C46.0396 10.9015 45.8578 10.9015 45.676 10.6591C45.6154 10.5379 45.6154 10.3562 45.7366 10.235C45.979 9.99262 46.3425 10.0532 46.5849 10.1744C46.8879 10.2956 47.1302 10.4168 47.312 10.7197C47.5544 10.9621 47.2514 11.3256 46.9484 11.265Z" fill="#263238"/>
<path d="M45.3125 13.5071L45.3731 13.5677C45.2519 14.2342 45.1913 15.0219 45.7972 15.3248V15.3854C45.0095 15.143 45.0701 14.113 45.3125 13.5071Z" fill="#263238"/>
<path d="M46.0395 12.9617C47.1302 13.0828 46.8272 15.2035 45.8577 15.1429C44.8277 15.0218 45.1306 12.8405 46.0395 12.9617Z" fill="#263238"/>
<path d="M46.4031 13.0829C46.5849 13.2041 46.706 13.4464 46.9484 13.507C47.1908 13.5676 47.4331 13.3858 47.6149 13.1435H47.6755C47.6149 13.5676 47.4331 13.9312 46.9484 13.9918C46.5243 13.9918 46.2819 13.6282 46.2213 13.1435C46.2819 13.1435 46.3425 13.0223 46.4031 13.0829Z" fill="#263238"/>
<path d="M41.4952 12.9011C41.4346 12.9011 41.4952 12.9011 41.4952 12.9011C41.374 13.6282 41.1922 14.3553 40.5863 14.5371V14.5977C41.3134 14.5371 41.5558 13.5676 41.4952 12.9011Z" fill="#263238"/>
<path d="M40.9499 12.1133C39.8592 11.9316 39.5563 14.0523 40.5257 14.234C41.5558 14.4158 41.8587 12.2951 40.9499 12.1133Z" fill="#263238"/>
<path d="M40.5257 12.2346C40.344 12.2952 40.1622 12.477 39.9198 12.477C39.6774 12.477 39.5563 12.174 39.4351 11.9316H39.3745C39.3139 12.3558 39.3745 12.7799 39.738 12.9011C40.1016 13.0223 40.4045 12.7193 40.5863 12.3558C40.6469 12.2952 40.5863 12.174 40.5257 12.2346Z" fill="#263238"/>
<path d="M44.4642 18.8391C44.2824 18.9602 44.1006 19.2026 43.8583 19.2026C43.6159 19.2026 43.3735 19.0814 43.1312 18.9602C43.1312 18.9602 43.0706 18.9602 43.0706 19.0208C43.2523 19.2632 43.5553 19.5056 43.9188 19.445C44.2218 19.445 44.4036 19.142 44.4642 18.8997C44.5248 18.8391 44.4642 18.7785 44.4642 18.8391Z" fill="#263238"/>
<path d="M41.98 16.0518C41.98 16.0518 41.7376 17.0213 41.6164 17.506C41.6164 17.5666 41.7376 17.5666 41.8588 17.6272C42.6465 17.8695 43.5553 17.6878 44.1007 17.0818C44.1613 17.0213 44.1007 16.9607 44.0401 17.0212C43.3736 17.3848 42.6465 17.4454 41.9194 17.3242C41.9194 17.203 42.4647 15.6882 42.3435 15.6276C42.1011 15.5671 41.5558 15.6882 41.2528 15.7488C41.7376 13.6887 42.5859 11.7498 43.0706 9.68969C43.0706 9.6291 43.01 9.56851 42.9494 9.6291C41.9194 11.6286 41.3134 13.9311 40.7075 16.0518C40.7681 16.3547 41.7982 16.1124 41.98 16.0518Z" fill="#263238"/>
<path d="M54.2799 15.6277C51.8563 15.4459 51.4322 7.99317 51.4322 7.0843C51.4322 7.69022 51.3716 10.7198 51.1292 10.841C51.0686 10.841 50.8262 10.7804 50.4021 10.6592C50.4021 10.2956 50.4021 9.93209 50.3415 9.56855C50.3415 9.38677 50.2809 9.93209 50.1597 10.5986C50.0386 10.538 49.8568 10.4774 49.7356 10.4774C49.7962 9.81091 49.7962 9.02322 49.6144 8.17495C49.5538 7.87199 49.4326 9.205 49.1297 10.2956C47.4937 9.81091 45.1306 9.08382 42.8888 8.96263C42.2829 8.90204 41.7981 8.90204 41.3134 8.90204C41.374 7.99317 41.4952 7.02371 41.4346 7.26608C41.1922 7.87199 41.071 8.41731 41.0104 8.90204C40.7681 8.90204 40.5257 8.90204 40.3439 8.90204C40.3439 7.62962 41.0104 5.63011 40.7681 5.93306C39.9198 7.0843 39.5562 8.35672 39.435 9.02323C38.5868 9.14441 38.3444 9.32618 38.2838 9.08382C38.2838 8.65968 38.8897 5.14538 41.7375 2.66113C44.8277 -0.06548 50.8868 -0.550212 54.0982 3.93355C54.0982 3.93355 56.8248 5.87247 57.1277 8.78086C57.3701 11.7498 55.6735 15.7489 54.2799 15.6277Z" fill="#263238"/>
<path d="M53.4923 16.1125C53.4923 16.1125 55.7948 13.1435 57.1278 13.9918C58.4608 14.8401 56.6431 19.2026 55.0071 19.6874C53.3711 20.2327 52.8258 18.6573 52.8258 18.6573L53.4923 16.1125Z" fill="#F7A9A0"/>
<path d="M56.5825 15.2642C55.4312 15.6883 54.7647 16.7184 54.28 17.809C54.6435 17.3849 55.1283 17.2031 55.6736 17.6272C55.6736 17.6272 55.6736 17.6878 55.613 17.6878C55.1283 17.5666 54.8253 17.6272 54.4618 17.9908C54.2194 18.2331 54.0376 18.5967 53.8558 18.8996C53.7953 19.0208 53.6135 18.9602 53.6741 18.839C53.7347 17.3243 55.0071 15.3248 56.5825 15.2642Z" fill="#263238"/>
<path d="M58.7639 29.382C70.0944 38.6525 79.2438 52.8309 79.7285 56.4058C80.2738 60.3442 78.8802 74.7044 75.1235 81.9753C74.1541 83.9143 59.491 75.1285 60.4604 73.0684C62.3388 69.0088 65.0654 57.9812 64.7018 55.7999C64.3383 53.7398 58.5821 41.5003 54.5831 35.0776C51.0082 29.1397 53.4924 25.08 58.7639 29.382Z" fill="#F7A9A0"/>
<path d="M49.251 90.5188C50.2205 92.0336 52.0382 91.5488 52.0382 91.5488C52.0382 91.5488 52.0382 93.003 52.9471 93.9725C54.0377 95.1237 56.2796 93.9119 56.2796 93.9119C56.2796 93.9119 56.5825 95.3661 57.6732 96.3356C58.8244 97.305 61.2481 96.4567 61.2481 96.4567C61.2481 96.4567 62.2781 97.6686 63.7929 97.7897C66.4589 98.0321 68.8826 94.7602 70.458 92.7607C72.0334 90.7006 74.5782 83.4296 75.1841 82.0966L62.1569 71.9172C62.1569 71.9172 52.5229 79.067 51.0081 81.733C49.7963 83.9143 48.1603 88.8222 49.251 90.5188Z" fill="#F7A9A0"/>
<path d="M51.8564 91.2459C52.6441 88.5193 54.1589 86.2168 55.5525 83.7932C55.6131 83.7326 55.6737 83.7932 55.6131 83.8538C54.2195 86.2168 53.25 88.8828 51.9776 91.3065C51.917 91.3671 51.8564 91.3065 51.8564 91.2459Z" fill="#263238"/>
<path d="M56.1585 93.6696C56.3403 93.0637 56.7644 92.5184 57.0673 91.9731C57.4309 91.4278 57.7944 90.8218 58.2186 90.2765C59.0063 89.1859 59.7939 88.0346 60.6422 87.0046C60.7028 86.944 60.7634 87.0046 60.7028 87.0652C59.9151 88.1558 59.188 89.3071 58.4609 90.4583C58.0974 91.0036 57.7338 91.6095 57.3703 92.2154C57.0673 92.7608 56.7644 93.3667 56.2797 93.7908C56.2191 93.8514 56.0979 93.7908 56.1585 93.6696Z" fill="#263238"/>
<path d="M61.3087 96.3357C61.4299 95.7904 61.9146 95.3057 62.2176 94.8815C62.5811 94.3968 62.9447 93.8515 63.3082 93.3667C64.0353 92.3367 64.7624 91.3672 65.4289 90.2766C65.4895 90.216 65.5501 90.2766 65.4895 90.3372C64.823 91.3672 64.1565 92.4579 63.4294 93.4879C63.0659 94.0332 62.7629 94.518 62.3994 95.0027C62.0964 95.4874 61.7934 96.0327 61.3087 96.3357Z" fill="#263238"/>
<path d="M53.3106 33.8657C55.4918 40.046 64.3382 54.7092 64.2776 56.1028C64.217 57.4964 59.915 72.2201 59.915 72.2201L77.4259 82.8236C77.4259 82.8236 81.3038 62.7678 79.8496 55.7998C78.7589 50.4678 66.3983 34.8958 60.3998 30.1091C54.4012 25.3829 50.5234 25.9888 53.3106 33.8657Z" fill="#FFC727"/>
<path opacity="0.1" d="M53.3106 33.8657C55.4918 40.046 64.3382 54.7092 64.2776 56.1028C64.217 57.4964 59.915 72.2201 59.915 72.2201L77.4259 82.8236C77.4259 82.8236 81.3038 62.7678 79.8496 55.7998C78.7589 50.4678 66.3983 34.8958 60.3998 30.1091C54.4012 25.3829 50.5234 25.9888 53.3106 33.8657Z" fill="black"/>
<path d="M64.3382 55.2544C64.1564 54.2244 63.5505 53.2549 63.0657 52.3461C61.9751 50.2859 60.8844 48.2258 59.6726 46.2263C59.0061 45.1357 56.4007 40.8337 55.6736 39.4401C55.613 39.3189 55.4312 39.4401 55.4918 39.5613C55.9159 40.4096 57.1278 42.5908 58.0367 44.1662C57.9155 43.9844 57.7943 43.8633 57.6125 43.6815C57.3701 43.3785 57.0672 43.0756 56.8248 42.8332C56.5219 42.5302 56.1583 42.2879 55.916 41.9243C55.8554 41.8637 55.7948 41.9243 55.8554 41.9849C56.3401 42.6514 56.8854 43.1968 57.4307 43.8027C57.6731 44.1056 57.9761 44.4086 58.2184 44.7115C58.4002 44.8933 58.582 45.1357 58.7637 45.3175C58.8243 45.378 58.8243 45.4386 58.8849 45.4992C60.0362 47.4987 61.0662 49.4983 62.1569 51.4978C62.7022 52.4672 63.3081 53.4367 63.6717 54.4668C63.8534 54.9515 63.9746 55.4362 63.9746 55.9815C63.914 56.5875 63.7322 57.1934 63.6111 57.7387C63.0051 59.92 62.4598 62.1013 61.8539 64.3431C61.551 65.6156 61.1874 66.888 60.8844 68.1604C60.5815 69.4328 60.2179 70.7052 60.0362 71.9777C60.0362 72.0383 60.1574 72.1594 60.218 72.0382C60.6421 70.9476 60.945 69.7964 61.248 68.7057C61.551 67.5545 61.9145 66.4033 62.2175 65.3126C62.8234 63.0101 63.4293 60.7077 64.0352 58.3446C64.1564 57.3751 64.5199 56.3451 64.3382 55.2544Z" fill="#263238"/>
<path d="M77.2441 78.2793C72.518 74.9467 67.5495 71.8566 62.4598 69.0088C62.3992 69.0088 62.3387 69.0694 62.3992 69.0694C67.1254 72.4019 72.0333 75.5527 77.123 78.3399C77.2441 78.461 77.3047 78.3399 77.2441 78.2793Z" fill="#263238"/>
</svg>
