<svg xmlns="http://www.w3.org/2000/svg" width="45" height="46" viewBox="0 0 45 46" fill="none">
  <path d="M24.2612 0.966675H20.067C9.02132 0.966675 0.0670166 9.92098 0.0670166 20.9667V25.0072C0.0670166 36.0529 9.02132 45.0072 20.067 45.0072H24.2612C35.3069 45.0072 44.2612 36.0529 44.2612 25.0072V20.9667C44.2612 9.92098 35.3069 0.966675 24.2612 0.966675Z" fill="#24CCA7"/>
  <path d="M22.9116 8.05847C23.7488 8.05847 24.4066 8.71401 24.4066 9.54834V10.3231C26.4399 10.5615 28.234 11.217 29.8487 12.2301C30.3869 12.5281 30.9251 13.0644 30.9251 13.8988C30.9251 14.9715 30.0281 15.8058 28.9517 15.8058C28.5928 15.8058 28.234 15.6866 27.8752 15.5078C26.6791 14.7927 25.4831 14.2563 24.287 13.9584V20.633C29.6095 21.9441 31.882 24.0895 31.882 27.7843C31.882 31.5984 28.8919 34.161 24.4664 34.5781V36.664C24.4664 37.4983 23.8086 38.1538 22.9714 38.1538C22.1341 38.1538 21.4165 37.4983 21.4165 36.664V34.5185C18.7852 34.2206 16.3931 33.3267 14.2402 31.7772C13.6421 31.4196 13.2833 30.8237 13.2833 30.1085C13.2833 29.0358 14.1206 28.2015 15.197 28.2015C15.6156 28.2015 16.0343 28.3207 16.3333 28.5591C17.9479 29.751 19.5626 30.5257 21.4763 30.8833V24.0299C16.3931 22.7188 14.001 20.8118 14.001 16.8785C14.001 13.124 16.9911 10.5615 21.3567 10.2039V9.48874C21.3567 8.71401 22.0743 8.05847 22.9116 8.05847ZM21.4763 19.9178V13.7796C19.2636 14.018 18.1274 15.1502 18.1274 16.6997C18.1274 18.13 18.845 19.0239 21.4763 19.9178ZM24.287 24.745V31.0621C26.4997 30.8237 27.7556 29.6914 27.7556 28.0227C27.6958 26.5329 26.9782 25.5793 24.287 24.745Z" fill="white"/>
</svg>