<svg width="76" height="147" viewBox="0 0 76 147" fill="none" xmlns="http://www.w3.org/2000/svg">
<path d="M42.9559 95.3874C43.2588 87.8135 43.1376 80.2396 42.6529 72.6657C41.6228 57.0937 39.078 41.5823 35.5637 26.3739C33.5642 17.8305 31.1405 9.40827 28.5957 0.986075C28.5351 0.74371 28.111 0.804305 28.1716 1.04667C36.0484 30.6758 42.4711 61.2745 42.047 92.0549C41.9258 100.659 40.8958 109.142 40.1081 117.685C40.1081 117.927 40.4716 117.988 40.5322 117.746C42.1682 110.596 42.6529 102.901 42.9559 95.3874Z" fill="#FFD8D0"/>
<path d="M28.1716 1.10718C28.1716 1.10718 16.2351 31.4029 18.9011 38.4921C21.5671 45.5812 27.0809 47.096 27.0809 47.096C27.0809 47.096 19.81 57.5177 24.8996 67.2729C29.9893 77.0282 41.3199 76.604 42.1076 87.6316C42.047 87.6922 42.7135 41.4004 28.1716 1.10718Z" fill="#FFD8D0"/>
<path d="M40.7746 68.6059C40.7746 68.5453 40.7746 68.4848 40.7746 68.4242C39.078 47.8231 35.4425 27.3432 29.2016 7.52982C29.2016 7.46923 29.0804 7.46923 29.0804 7.52982C31.4435 16.3762 33.5642 25.2831 35.3213 34.2506C33.746 32.6752 31.7465 31.7664 29.6258 31.0999C29.5652 31.0999 29.5652 31.1605 29.6258 31.1605C31.807 32.1299 33.9277 33.2206 35.5031 35.0989C35.8667 36.8561 36.1696 38.6132 36.5332 40.3703C33.8672 37.4014 30.1711 35.8866 26.475 34.493C26.4144 34.493 26.4144 34.5536 26.475 34.5536C30.3529 36.129 34.1701 38.1285 36.7755 41.461C37.6844 46.4901 38.4721 51.5192 39.1992 56.6088C37.2603 54.5487 34.8366 53.2157 32.11 52.5492C32.0494 52.5492 31.9888 52.6704 32.0494 52.6704C34.8972 53.4581 37.3209 55.0941 39.2598 57.2753C39.2598 57.2753 39.2598 57.2753 39.3204 57.3359C39.5627 59.0931 39.8051 60.9108 39.9869 62.668C38.4721 61.3956 36.8361 60.4261 35.0184 59.6384C34.9578 59.6384 34.9578 59.699 35.0184 59.699C36.8967 60.4867 38.5327 61.6379 39.9869 63.0315H40.0475C40.2292 64.7281 40.4716 66.4246 40.5928 68.1212C37.8662 64.8493 34.4731 62.4256 30.474 60.9108C30.4134 60.9108 30.3529 60.9714 30.4134 61.032C34.2913 62.7286 37.745 65.3946 40.3504 68.7271C40.411 68.7877 40.5322 68.8483 40.5928 68.7877C40.8352 71.3931 41.0775 73.9986 41.2593 76.604C41.2593 76.6646 41.3199 76.6646 41.3199 76.604C41.1987 73.938 41.0169 71.272 40.7746 68.6059Z" fill="#263238"/>
<path d="M31.2011 28.0705C29.141 26.6769 26.475 26.071 24.0513 25.8286C23.9907 25.8286 23.9907 25.8892 24.0513 25.9498C26.5961 26.3133 28.7774 27.2828 31.1405 28.2523C31.2011 28.3129 31.2617 28.1311 31.2011 28.0705Z" fill="#263238"/>
<path d="M32.6554 60.1232C31.0194 59.1537 29.1411 58.6084 27.2627 58.3054C27.2021 58.3054 27.2021 58.366 27.2627 58.4266C29.1411 58.7902 30.8376 59.4567 32.5948 60.3049C32.6554 60.3049 32.716 60.1838 32.6554 60.1232Z" fill="#263238"/>
<path d="M74.3422 38.9766C69.3737 42.4909 64.5869 46.49 60.5273 51.0343C56.2253 55.8816 53.0746 61.3348 50.8327 67.4546C46.3489 79.9364 43.8647 93.4483 43.6223 106.718C43.5011 114.171 44.1676 121.502 45.743 128.773C45.8036 129.015 46.1672 128.955 46.1672 128.712C44.2282 115.928 44.2888 102.901 46.4095 90.1157C48.4696 77.5733 51.681 64.0009 59.6185 53.8215C63.981 48.3077 69.3737 43.9451 74.7057 39.4008C75.0087 39.1584 74.6451 38.7948 74.3422 38.9766Z" fill="#FFD8D0"/>
<path d="M45.3794 97.6898C45.3794 97.6898 49.4996 90.7824 55.4376 84.8444C61.3755 78.9065 66.4046 74.6651 67.1923 70.7266C67.98 66.7882 61.1937 63.8798 61.1937 63.8798C61.1937 63.8798 69.4342 65.334 71.7366 61.8803C73.9785 58.4266 75.0692 38.3708 75.0692 38.3708C75.0692 38.3708 60.0425 49.0955 53.0745 64.1222C46.1065 79.1488 45.3794 97.6898 45.3794 97.6898Z" fill="#FFD8D0"/>
<path d="M69.9189 43.5211C63.6174 49.7014 57.2554 56.3664 53.4987 64.4857C52.2263 67.2729 51.1356 70.1813 50.1662 73.1502C49.9844 73.7562 49.8026 74.3621 49.6208 74.9074C49.6208 74.9074 49.6208 74.968 49.5602 75.0286C47.7425 81.0877 46.4095 87.3892 45.3188 93.5695C45.3188 93.6301 45.3794 93.6301 45.3794 93.5695C46.0459 90.4188 46.7124 87.268 47.5607 84.1173H47.6213C48.8937 83.572 50.1662 83.269 51.5598 83.0872C51.6203 83.0872 51.6203 82.9054 51.5598 82.9054C50.2267 82.966 48.9543 83.2084 47.6819 83.6326C48.409 80.7848 49.1967 77.937 50.1056 75.1498C53.014 74.4227 56.0435 74.0591 59.0125 73.9985C59.0731 73.9985 59.0731 73.9379 59.0125 73.9379C55.9829 73.8167 53.1957 74.0591 50.2267 74.665C50.4085 74.1803 50.5297 73.6956 50.7115 73.2108C52.6504 72.7867 54.6499 72.3626 56.6494 72.1808C56.71 72.1808 56.71 72.1202 56.6494 72.1202C54.7105 72.1808 52.7716 72.3626 50.8327 72.8473C51.6204 70.4236 52.5292 68.0606 53.4987 65.6975C54.2864 63.7586 55.2558 61.9408 56.3465 60.1837C57.9219 59.8201 59.4972 59.4566 61.1332 59.3354C61.1938 59.3354 61.1938 59.2748 61.1332 59.2748C59.6184 59.1536 58.1036 59.2748 56.6494 59.699C57.4371 58.4265 58.2854 57.1541 59.1337 55.9423C62.5268 55.2152 65.9199 54.4881 69.3736 55.1546C69.4342 55.1546 69.4342 55.094 69.3736 55.0334C66.1017 54.1851 62.8298 54.6699 59.5578 55.3364C59.9214 54.8516 60.2849 54.3669 60.6485 53.9428C62.7086 53.2763 64.7687 52.9733 66.95 52.9733C67.0106 52.9733 67.0106 52.9127 66.95 52.9127C64.9505 52.7309 63.0115 52.9127 61.0726 53.458C63.8598 50.0043 66.95 46.7324 69.9795 43.5211C70.1613 43.4605 70.0401 43.3393 69.9189 43.5211Z" fill="#263238"/>
<path d="M69.7372 57.154C68.7678 57.0329 67.7377 56.9117 66.7683 57.0329C66.6471 57.0329 66.6471 57.2146 66.7683 57.2752C67.7377 57.2752 68.7678 57.2146 69.7372 57.2752C69.7978 57.2752 69.7978 57.154 69.7372 57.154Z" fill="#263238"/>
<path d="M58.952 76.6646C57.3766 76.6646 55.8012 77.0887 54.347 77.5734C54.2864 77.5734 54.347 77.634 54.347 77.634C55.8618 77.2705 57.4372 77.1493 58.952 76.8463C59.0731 76.8463 59.0731 76.6646 58.952 76.6646Z" fill="#263238"/>
<path d="M55.68 69.939C55.0135 69.8784 54.347 69.9996 53.7411 70.1207C53.6805 70.1207 53.6805 70.2419 53.7411 70.2419C54.4076 70.2419 55.0741 70.2419 55.7406 70.1207C55.8012 70.1207 55.8012 69.939 55.68 69.939Z" fill="#263238"/>
<path d="M1.3902 60.3051C6.23751 62.0017 11.0242 64.1224 15.3262 66.849C19.9312 69.7574 23.7484 73.4534 26.9598 77.8766C33.5036 86.9047 38.5933 97.3264 41.8652 107.99C43.683 113.989 44.8342 120.109 45.2584 126.35C45.2584 126.592 44.9554 126.592 44.8948 126.41C43.5012 115.625 40.411 105.082 35.8061 95.2057C31.2617 85.5717 25.5056 75.2712 16.7198 68.8485C11.9331 65.3948 6.54047 63.0923 1.20843 60.6686C0.905472 60.6081 1.08725 60.1839 1.3902 60.3051Z" fill="#FFD8D0"/>
<path d="M38.3509 101.144C38.3509 101.144 33.443 96.5388 27.2627 93.085C21.0824 89.6313 15.9927 87.3895 14.4779 84.3599C12.9631 81.3303 17.7499 77.4525 17.7499 77.4525C17.7499 77.4525 11.3878 80.5426 8.78233 78.3008C6.1769 75.9983 0.663086 60.0627 0.663086 60.0627C0.663086 60.0627 15.2656 65.2736 24.4149 75.8165C33.5036 86.2382 38.3509 101.144 38.3509 101.144Z" fill="#FFD8D0"/>
<path d="M37.6238 97.8111C30.2923 84.0569 20.5371 71.6356 7.14636 63.4558C10.6607 65.6977 13.9326 68.3031 16.9622 71.0903C14.2356 71.0297 11.5089 71.4539 9.08528 72.7263C9.02469 72.7263 9.08529 72.8475 9.14588 72.7869C11.8119 71.878 14.4173 71.2721 17.2651 71.3933C17.3257 71.3933 17.3257 71.3933 17.3863 71.3327C17.871 71.7568 18.3558 72.2416 18.7799 72.7263C17.3863 72.7869 15.9321 72.9686 14.5991 73.2716C14.5385 73.2716 14.5991 73.3322 14.5991 73.3322C16.1139 73.0292 17.5075 72.9686 19.0223 72.9686C21.4459 75.4529 23.7484 78.0583 25.9297 80.7849C24.9602 80.6637 23.9302 80.7243 22.9607 81.0273C22.9001 81.0273 22.9001 81.1485 22.9607 81.1485C24.0514 81.0273 25.0208 81.0273 26.1115 81.0879C26.5356 81.5726 26.8991 82.1179 27.3233 82.6027C24.2937 82.4209 21.3853 82.7239 18.4164 83.451C18.3558 83.451 18.3558 83.5115 18.4164 83.5115C21.4459 82.9056 24.4755 82.7239 27.5657 82.9056C27.9292 83.3904 28.2928 83.9357 28.6563 84.4204C26.8386 84.3598 25.142 84.6022 23.3848 85.0263C23.3243 85.0263 23.3243 85.1475 23.3848 85.1475C25.2026 84.7234 27.0203 84.6628 28.8381 84.7234C30.4134 86.9047 31.9282 89.0859 33.3824 91.3278C32.5947 91.1461 31.8071 91.2672 31.08 91.449C31.0194 91.449 31.08 91.5096 31.08 91.5096C31.9282 91.3884 32.7159 91.5096 33.5642 91.6308C34.8972 93.6303 36.109 95.6904 37.3209 97.7505C37.442 98.1141 37.6844 97.9929 37.6238 97.8111Z" fill="#263238"/>
<path d="M26.2327 86.4199C24.7785 86.2987 23.3243 86.5411 21.9913 86.9652C21.9307 86.9652 21.9913 87.0258 21.9913 87.0258C23.3849 86.7834 24.7785 86.6622 26.2327 86.6016C26.2933 86.6016 26.2933 86.4199 26.2327 86.4199Z" fill="#263238"/>
<path d="M13.4479 69.6969C12.7814 69.6363 12.1149 69.6969 11.5089 69.818C11.4484 69.818 11.4484 69.9392 11.5089 69.9392C12.1754 69.8786 12.7814 69.8786 13.4479 69.8786C13.569 69.8786 13.569 69.6969 13.4479 69.6969Z" fill="#263238"/>
<path d="M57.2554 146.769H24.2332L28.8987 112.292L30.1105 103.446H51.3175L52.5293 112.292L57.2554 146.769Z" fill="#455A64"/>
<path d="M52.5293 112.292H28.8987L30.1105 103.446H51.3175L52.5293 112.292Z" fill="#263238"/>
<path d="M54.347 100.356H27.0809V107.869H54.347V100.356Z" fill="#455A64"/>
</svg>
