<svg xmlns="http://www.w3.org/2000/svg" width="87" height="58" viewBox="0 0 87 58" fill="none">
  <path d="M86.6262 4.5292L86.7458 52.503C86.7458 55.1847 84.5929 57.3898 81.9018 57.3898L5.53379 57.5685C2.84268 57.5685 0.629989 55.4231 0.629989 52.7414L0.510376 4.76758C0.510376 2.2646 2.54367 0.238379 5.05538 0.238379L82.0812 0C84.5929 0 86.6262 2.02622 86.6262 4.5292Z" fill="#4A56E2"/>
  <path d="M74.3068 45.7687C74.3068 48.2121 72.3333 50.2383 69.8216 50.2383C67.3697 50.2383 65.3364 48.2717 65.3364 45.7687C65.3364 43.3254 67.3099 41.2991 69.8216 41.2991C72.3333 41.2991 74.3068 43.2658 74.3068 45.7687Z" fill="#A6A6A6"/>
  <path d="M79.8684 45.7687C79.8684 48.2121 77.8949 50.2383 75.3832 50.2383C72.9312 50.2383 70.8979 48.2717 70.8979 45.7687C70.8979 43.3254 72.8714 41.2991 75.3832 41.2991C77.8351 41.2991 79.8684 43.2658 79.8684 45.7687Z" fill="#FFC727"/>
  <path d="M21.4412 19.5471H10.3179C8.94239 19.5471 7.80615 18.4148 7.80615 17.0441V10.9058C7.80615 9.53513 8.94239 8.40283 10.3179 8.40283H21.4412C22.8166 8.40283 23.9529 9.53513 23.9529 10.9058V17.0441C23.9529 18.4148 22.8166 19.5471 21.4412 19.5471Z" fill="#FFC727"/>
  <path d="M76.6988 14.3624H69.403C67.7285 14.3624 66.353 12.9917 66.353 11.323C66.353 9.65437 67.7285 8.28369 69.403 8.28369H76.6988C78.3733 8.28369 79.7487 9.65437 79.7487 11.323C79.7487 12.9917 78.3733 14.3624 76.6988 14.3624Z" fill="white"/>
  <path d="M7.26803 29.7378L6.6102 30.155H6.55039C6.49059 30.155 6.43078 30.0954 6.43078 30.0954C6.37097 30.0358 6.43078 29.9166 6.49058 29.857L7.38762 29.3206C7.44743 29.261 7.56703 29.3206 7.62683 29.3802C7.62683 29.4398 7.62683 29.4398 7.62683 29.4994V33.7903C7.62683 33.8499 7.56704 33.969 7.44743 33.969C7.38763 33.969 7.26803 33.9094 7.26803 33.7903V29.7378Z" fill="#F8F8F8"/>
  <path d="M8.70334 33.6115L10.916 31.6448C11.1553 31.4064 11.3347 31.1085 11.3347 30.7509C11.3347 30.4529 11.2151 30.155 11.0357 29.9762C10.7964 29.7378 10.4974 29.559 10.1386 29.559C9.8396 29.559 9.54059 29.6782 9.30137 29.857L9.06217 30.0358C9.00236 30.0954 8.88274 30.0954 8.82294 30.0358C8.76314 29.9762 8.76314 29.857 8.82294 29.7974L9.06217 29.559C9.36118 29.3206 9.71999 29.1418 10.0788 29.1418C10.4974 29.1418 10.916 29.3206 11.2151 29.6186C11.5141 29.9166 11.6337 30.2741 11.6337 30.6317C11.6337 31.0489 11.4543 31.466 11.1553 31.764L9.30137 33.4327H11.5141C11.5739 33.4327 11.6935 33.4923 11.6935 33.6115C11.6935 33.671 11.6337 33.7902 11.5141 33.7902H8.88274C8.82294 33.7902 8.76315 33.7902 8.76315 33.7306C8.64354 33.7902 8.64354 33.671 8.70334 33.6115Z" fill="#F8F8F8"/>
  <path d="M15.5208 29.4994L14.3247 30.7509C14.6237 30.8105 14.9227 30.9297 15.1021 31.168C15.4011 31.466 15.5806 31.8832 15.5806 32.3003C15.5806 32.7175 15.4011 33.1347 15.1021 33.4326C14.8031 33.7306 14.3845 33.9094 13.9659 33.9094C13.5473 33.9094 13.1287 33.7306 12.8296 33.4326C12.7698 33.373 12.7698 33.2539 12.8296 33.1943C12.8894 33.1347 13.009 33.1347 13.0688 33.1943C13.3081 33.4326 13.6071 33.5518 13.9659 33.5518C14.2649 33.5518 14.6237 33.4326 14.8629 33.1943C15.1021 32.9559 15.2217 32.5983 15.2217 32.3003C15.2217 32.0024 15.1021 31.6448 14.8629 31.4064C14.6237 31.168 14.3247 31.0489 13.9659 31.0489C13.9061 31.0489 13.8463 31.0489 13.8463 30.9893C13.7865 30.9297 13.7865 30.8105 13.8463 30.7509L14.9825 29.559H13.1885C13.0689 29.559 13.009 29.4994 13.009 29.3802C13.009 29.261 13.0689 29.2014 13.1885 29.2014H15.4011C15.5208 29.2014 15.5806 29.261 15.5806 29.3802C15.5806 29.3802 15.5208 29.4398 15.5208 29.4994Z" fill="#F8F8F8"/>
  <path d="M19.4678 32.8963H16.9561C16.8963 32.8963 16.8963 32.8963 16.8365 32.8367C16.7767 32.7771 16.7767 32.6579 16.8365 32.5983L19.5276 29.2014C19.5874 29.1418 19.707 29.1418 19.7668 29.2014L19.8266 29.261V32.4791H20.1256C20.2452 32.4791 20.305 32.5387 20.305 32.6579C20.305 32.7175 20.2452 32.8367 20.1256 32.8367H19.8266V33.6114C19.8266 33.671 19.7668 33.7902 19.6472 33.7902C19.5874 33.7902 19.4678 33.7306 19.4678 33.6114V32.8963ZM19.4678 32.5983V29.857L17.2551 32.5983H19.4678Z" fill="#F8F8F8"/>
  <path d="M25.3284 33.3731C25.2686 33.3135 25.2686 33.1943 25.3284 33.1347C25.3882 33.0751 25.5078 33.0751 25.5676 33.1347C25.8068 33.3731 26.1058 33.4923 26.4646 33.4923C26.7636 33.4923 27.1224 33.3731 27.3617 33.1347C27.6009 32.8963 27.7205 32.5984 27.7205 32.2408C27.7205 31.9428 27.6009 31.5853 27.3617 31.3469C27.1224 31.1085 26.8234 30.9893 26.4646 30.9893C26.1656 30.9893 25.8068 31.1085 25.5676 31.3469C25.5078 31.4065 25.3882 31.4065 25.3284 31.3469L25.2686 31.2873V31.2277C25.2686 31.2277 25.2686 31.2277 25.2686 31.1681L25.5078 29.2611C25.5078 29.2015 25.5078 29.1419 25.5676 29.1419C25.5676 29.1419 25.6274 29.0823 25.6872 29.0823H27.8999C28.0195 29.0823 28.0793 29.1419 28.0793 29.2611C28.0793 29.3802 28.0195 29.4398 27.8999 29.4398H25.8666L25.6872 30.8105C25.9264 30.6913 26.2254 30.5721 26.4646 30.5721C26.8832 30.5721 27.3019 30.6913 27.6009 31.0489C27.8999 31.3469 28.0793 31.764 28.0793 32.1812C28.0793 32.5984 27.9597 33.0155 27.6009 33.3135C27.3019 33.6115 26.8832 33.7903 26.4646 33.7903C26.046 33.8499 25.6274 33.7307 25.3284 33.3731Z" fill="#F8F8F8"/>
  <path d="M29.7538 30.2145C30.0528 29.6186 30.5911 29.2014 31.3685 29.2014C31.4283 29.2014 31.5479 29.261 31.5479 29.3802C31.5479 29.4994 31.4881 29.559 31.3685 29.559C30.7107 29.559 30.292 29.9166 29.993 30.3933C29.8136 30.6913 29.7538 30.9893 29.6342 31.3468C29.9332 31.0489 30.3518 30.8105 30.7705 30.8105C31.6077 30.8105 32.3253 31.5256 32.3253 32.3599C32.3253 33.1943 31.6675 33.9094 30.7705 33.9094C29.9332 33.9094 29.2754 33.2539 29.2156 32.4195C29.2156 32.3003 29.2156 32.2407 29.2156 32.1216C29.3352 31.4064 29.4548 30.7509 29.7538 30.2145ZM29.694 32.3599C29.694 32.4195 29.694 32.4195 29.694 32.4195V32.4791C29.7538 33.0751 30.292 33.5518 30.8901 33.5518C31.5479 33.5518 32.1459 33.0155 32.1459 32.3599C32.1459 31.7044 31.6077 31.168 30.8901 31.168C30.2322 31.1084 29.694 31.6448 29.694 32.3599Z" fill="#F8F8F8"/>
  <path d="M34.1792 33.6115L35.9135 29.4994H33.6409C33.5811 29.4994 33.4615 29.4398 33.4615 29.3206C33.4615 29.261 33.5213 29.1418 33.6409 29.1418H36.0929C36.1527 29.1418 36.1527 29.1418 36.2125 29.1418C36.2723 29.1418 36.2723 29.2014 36.2723 29.261V29.3206C36.2723 29.3802 36.2723 29.3802 36.2723 29.3802L34.4782 33.671C34.4782 33.7306 34.4184 33.7902 34.3586 33.7902H34.2988C34.1792 33.7902 34.1194 33.671 34.1792 33.6115Z" fill="#F8F8F8"/>
  <path d="M38.784 29.1418C39.3222 29.1418 39.7409 29.559 39.7409 30.0954C39.7409 30.3933 39.5615 30.6913 39.3222 30.8701C39.8605 31.1085 40.2791 31.6448 40.2791 32.2408C40.2791 33.0751 39.6213 33.7306 38.784 33.7306C37.9468 33.7306 37.2889 33.0751 37.2889 32.2408C37.2889 31.5852 37.6478 31.0489 38.2458 30.8105C38.0066 30.6317 37.8272 30.3337 37.8272 30.0358C37.8272 29.6186 38.2458 29.1418 38.784 29.1418ZM38.784 33.4923C39.4419 33.4923 39.9801 32.9559 39.9801 32.3004C39.9801 31.6448 39.4419 31.1085 38.784 31.1085C38.1262 31.1085 37.588 31.6448 37.588 32.3004C37.588 32.9559 38.1262 33.4923 38.784 33.4923ZM38.784 30.8105C39.1428 30.8105 39.4419 30.5125 39.4419 30.155C39.4419 29.7974 39.1428 29.4994 38.784 29.4994C38.4252 29.4994 38.1262 29.7974 38.1262 30.155C38.1262 30.5125 38.4252 30.7509 38.784 30.8105Z" fill="#F8F8F8"/>
  <path d="M47.0965 29.1418C47.874 29.1418 48.5318 29.7378 48.6514 30.5125C48.6514 30.5125 48.6514 30.5125 48.6514 30.5721C48.6514 30.6913 48.6514 30.8105 48.6514 30.9893C48.6514 31.5852 48.5318 32.3004 48.2328 32.8367C47.9338 33.3731 47.3358 33.8498 46.6181 33.8498C46.4985 33.8498 46.4387 33.7902 46.4387 33.671C46.4387 33.5519 46.4985 33.4923 46.6181 33.4923C47.276 33.4923 47.6946 33.1347 47.9936 32.6579C48.173 32.36 48.2926 32.062 48.3524 31.7044C48.0534 32.0024 47.6348 32.2408 47.2162 32.2408C46.3789 32.2408 45.6613 31.5852 45.6613 30.6913C45.5417 29.7974 46.2593 29.1418 47.0965 29.1418ZM48.3524 30.6913C48.3524 30.0358 47.8142 29.4994 47.0965 29.4994C46.4387 29.4994 45.9005 30.0358 45.9005 30.6913C45.9005 31.3469 46.4387 31.8832 47.0965 31.8832C47.8142 31.8832 48.3524 31.3469 48.3524 30.6913Z" fill="#F8F8F8"/>
  <path d="M49.8475 31.466C49.8475 30.8105 50.0269 30.2741 50.2662 29.857C50.5652 29.4398 50.9838 29.1418 51.4622 29.1418C51.9406 29.1418 52.3592 29.4398 52.6582 29.857C52.9573 30.2741 53.1367 30.8701 53.1367 31.466C53.1367 32.1216 52.9573 32.6579 52.6582 33.0751C52.3592 33.4923 51.9406 33.7902 51.4622 33.7902C50.9838 33.7902 50.5652 33.4923 50.2662 33.0751C50.0269 32.6579 49.8475 32.062 49.8475 31.466ZM50.2064 31.466C50.2064 32.062 50.3858 32.5387 50.625 32.8963C50.8642 33.2539 51.1632 33.4327 51.522 33.4327C51.8808 33.4327 52.1798 33.2539 52.419 32.8963C52.6583 32.5387 52.8376 32.0024 52.8376 31.466C52.8376 30.8701 52.6583 30.3933 52.419 30.0358C52.1798 29.6782 51.8808 29.4994 51.522 29.4994C51.1632 29.4994 50.8642 29.6782 50.625 30.0358C50.326 30.3933 50.2064 30.8701 50.2064 31.466Z" fill="#F8F8F8"/>
  <path d="M55.2895 29.559L54.6317 29.9762H54.5719C54.5121 29.9762 54.4523 29.9166 54.4523 29.9166C54.3925 29.857 54.4523 29.7378 54.5121 29.6782L55.4091 29.1419C55.4689 29.0823 55.5885 29.1419 55.6483 29.2015C55.6483 29.2611 55.6483 29.2611 55.6483 29.3207V33.6115C55.6483 33.6711 55.5885 33.7903 55.4689 33.7903C55.4091 33.7903 55.2895 33.7307 55.2895 33.6115V29.559Z" fill="#F8F8F8"/>
  <path d="M56.7248 33.4923L58.9375 31.5257C59.1768 31.2873 59.3562 30.9893 59.3562 30.6318C59.3562 30.3338 59.2366 30.0358 59.0571 29.857C58.8179 29.6187 58.5189 29.4399 58.1601 29.4399C57.8611 29.4399 57.5621 29.5591 57.3229 29.7378L57.0836 29.9166C57.0238 29.9762 56.9042 29.9762 56.8444 29.9166C56.7846 29.857 56.7846 29.7378 56.8444 29.6782L57.0836 29.4399C57.3827 29.2015 57.7415 29.0227 58.1003 29.0227C58.5189 29.0227 58.9375 29.2015 59.2366 29.4995C59.5356 29.7974 59.6552 30.155 59.6552 30.5126C59.6552 30.9297 59.4758 31.3469 59.1768 31.6449L57.3229 33.3135H59.5356C59.5954 33.3135 59.715 33.3731 59.715 33.4923C59.715 33.5519 59.6552 33.6711 59.5356 33.6711H56.9042C56.8444 33.6711 56.7846 33.6711 56.7846 33.6115C56.665 33.6711 56.665 33.5519 56.7248 33.4923Z" fill="#F8F8F8"/>
  <path d="M67.5491 29.3802L66.353 30.6317C66.6521 30.6913 66.9511 30.8105 67.1305 31.0489C67.4295 31.3469 67.6089 31.764 67.6089 32.1812C67.6089 32.5984 67.4295 33.0155 67.1305 33.3135C66.8315 33.6115 66.4128 33.7903 65.9942 33.7903C65.5756 33.7903 65.157 33.6115 64.858 33.3135C64.7982 33.2539 64.7982 33.1347 64.858 33.0751C64.9178 33.0155 65.0374 33.0155 65.0972 33.0751C65.3364 33.3135 65.6354 33.4327 65.9942 33.4327C66.2932 33.4327 66.652 33.3135 66.8913 33.0751C67.1305 32.8367 67.2501 32.4792 67.2501 32.1812C67.2501 31.8832 67.1305 31.5257 66.8913 31.2873C66.652 31.0489 66.353 30.9297 65.9942 30.9297C65.9344 30.9297 65.8746 30.9297 65.8746 30.8701C65.8148 30.8105 65.8148 30.6913 65.8746 30.6317L67.0109 29.4398H65.2168C65.0972 29.4398 65.0374 29.3802 65.0374 29.2611C65.0374 29.1419 65.0972 29.0823 65.2168 29.0823H67.4295C67.5491 29.0823 67.6089 29.1419 67.6089 29.2611C67.6089 29.2611 67.6089 29.3207 67.5491 29.3802C67.5491 29.3802 67.5491 29.3207 67.5491 29.3802Z" fill="#F8F8F8"/>
  <path d="M71.496 32.7771H68.9843C68.9245 32.7771 68.9245 32.7771 68.8647 32.7175C68.8049 32.6579 68.8049 32.5387 68.8647 32.4791L71.5558 29.0822C71.6156 29.0226 71.7352 29.0226 71.795 29.0822L71.8548 29.1418V32.3599H72.1538C72.2734 32.3599 72.3332 32.4195 72.3332 32.5387C72.3332 32.5983 72.2734 32.7175 72.1538 32.7175H71.8548V33.4922C71.8548 33.5518 71.795 33.671 71.6754 33.671C71.6156 33.671 71.496 33.6114 71.496 33.4922V32.7771ZM71.496 32.4791V29.7378L69.2833 32.4791H71.496Z" fill="#F8F8F8"/>
  <path d="M73.3498 33.2539C73.29 33.1943 73.29 33.0751 73.3498 33.0155C73.4096 32.9559 73.5293 32.9559 73.5891 33.0155C73.8283 33.2539 74.1273 33.3731 74.4861 33.3731C74.7851 33.3731 75.1439 33.2539 75.3832 33.0155C75.6224 32.7771 75.742 32.4792 75.742 32.1216C75.742 31.8236 75.6224 31.4661 75.3832 31.2277C75.1439 30.9893 74.8449 30.8701 74.4861 30.8701C74.1871 30.8701 73.8283 30.9893 73.5891 31.2277C73.5293 31.2873 73.4096 31.2873 73.3498 31.2277L73.29 31.1681V31.1085C73.29 31.1085 73.29 31.1085 73.29 31.0489L73.5292 29.1419C73.5292 29.0823 73.5293 29.0227 73.5891 29.0227C73.5891 29.0227 73.6488 28.9631 73.7087 28.9631H75.9214C76.041 28.9631 76.1008 29.0227 76.1008 29.1419C76.1008 29.261 76.041 29.3206 75.9214 29.3206H73.8881L73.7087 30.6913C73.9479 30.5721 74.2469 30.4529 74.4861 30.4529C74.9047 30.4529 75.3233 30.5721 75.6224 30.9297C75.9214 31.2277 76.1008 31.6448 76.1008 32.062C76.1008 32.4792 75.9812 32.8963 75.6224 33.1943C75.3233 33.4923 74.9047 33.6711 74.4861 33.6711C74.0675 33.7307 73.6489 33.6115 73.3498 33.2539Z" fill="#F8F8F8"/>
  <path d="M77.7754 30.0954C78.0744 29.4994 78.6126 29.0823 79.3901 29.0823C79.4499 29.0823 79.5695 29.1419 79.5695 29.2611C79.5695 29.3802 79.5097 29.4398 79.3901 29.4398C78.7322 29.4398 78.3136 29.7974 78.0146 30.2742C77.8352 30.5721 77.7754 30.8701 77.6558 31.2277C77.9548 30.9297 78.3734 30.6913 78.792 30.6913C79.6293 30.6913 80.3469 31.4065 80.3469 32.2408C80.3469 33.0751 79.6891 33.7903 78.792 33.7903C77.9548 33.7903 77.297 33.1347 77.2372 32.3004C77.2372 32.1812 77.2372 32.1216 77.2372 32.0024C77.3568 31.2873 77.4764 30.6317 77.7754 30.0954ZM77.7156 32.2408C77.7156 32.3004 77.7156 32.3004 77.7156 32.3004V32.36C77.7754 32.9559 78.3136 33.4327 78.9117 33.4327C79.5695 33.4327 80.1675 32.8963 80.1675 32.2408C80.1675 31.5853 79.6293 31.0489 78.9117 31.0489C78.2538 30.9893 77.7156 31.5257 77.7156 32.2408Z" fill="#F8F8F8"/>
  <path d="M48.7691 41.8423L7.86414 41.9481L7.86941 43.9743L48.7744 43.8685L48.7691 41.8423Z" fill="#A6A6A6"/>
  <path d="M36.8084 46.2679L7.86389 46.3427L7.86917 48.3689L36.8137 48.2941L36.8084 46.2679Z" fill="#A6A6A6"/>
  <path d="M63.4805 8.25738L43.0878 8.31012L43.093 10.3363L63.4858 10.2836L63.4805 8.25738Z" fill="#A6A6A6"/>
</svg>