<svg width="122" height="217" viewBox="0 0 122 217" fill="none" xmlns="http://www.w3.org/2000/svg">
<path d="M121.649 10.7542V205.858C121.649 211.615 117.044 216.28 111.409 216.28H10.5245C4.88949 216.28 0.284546 211.615 0.284546 205.858V10.7542C0.284546 4.99806 4.88949 0.33252 10.5245 0.33252H111.47C117.044 0.393111 121.649 5.05865 121.649 10.7542Z" fill="#263238"/>
<path d="M115.287 20.5701V199.496C115.287 204.95 111.167 209.373 106.138 209.373H15.8565C10.7668 209.373 6.70715 204.95 6.70715 199.496V20.5701C6.70715 9.42126 10.8274 6.93701 15.8565 6.93701H33.9127C34.9427 6.93701 35.791 8.14884 35.791 9.60303V10.2695C35.791 13.7232 37.6693 13.7838 40.0324 13.7838H81.8405C84.2035 13.7838 86.0818 13.7838 86.0818 10.2695V9.60303C86.0818 8.14884 86.9301 6.93701 87.9602 6.93701H106.077C111.167 6.9976 115.287 10.3907 115.287 20.5701Z" fill="white"/>
<path d="M66.6927 9.42123H55.3016C54.938 9.42123 54.5745 9.11828 54.5745 8.69414C54.5745 8.33059 54.8774 7.96704 55.3016 7.96704H66.6927C67.0563 7.96704 67.4198 8.27 67.4198 8.69414C67.3593 9.11828 67.0563 9.42123 66.6927 9.42123Z" fill="white"/>
<path d="M104.138 86.5541L104.259 134.967C104.259 137.693 102.078 139.875 99.3514 139.875L22.5822 140.056C19.8556 140.056 17.6743 137.875 17.6743 135.148L17.5531 86.7359C17.5531 84.1911 19.5526 82.1915 22.0975 82.1915L99.5332 82.0098C102.078 82.0098 104.138 84.0699 104.138 86.5541Z" fill="#4A56E2"/>
<path d="M91.7332 128.824C92.0822 126.373 90.3776 124.103 87.9261 123.754C85.4745 123.405 83.2043 125.109 82.8554 127.561C82.5065 130.012 84.211 132.283 86.6626 132.632C89.1141 132.98 91.3843 131.276 91.7332 128.824Z" fill="#37474F"/>
<path d="M97.352 128.18C97.352 130.665 95.3525 132.664 92.8682 132.725C90.384 132.725 88.3844 130.725 88.3239 128.241C88.3239 125.757 90.3234 123.757 92.8076 123.697C95.2919 123.697 97.352 125.696 97.352 128.18Z" fill="#FFC727"/>
<path d="M38.5783 101.763H27.4295C26.0359 101.763 24.8846 100.611 24.8846 99.2178V93.0981C24.8846 91.7045 26.0359 90.5532 27.4295 90.5532H38.5783C39.9719 90.5532 41.1231 91.7045 41.1231 93.0981V99.2178C41.1231 100.611 39.9719 101.702 38.5783 101.763Z" fill="#FFC727"/>
<path d="M94.1406 96.4911H86.809C85.1125 96.4911 83.7189 95.0975 83.7189 93.401C83.7189 91.7044 85.1125 90.3108 86.809 90.3108H94.1406C95.8371 90.3108 97.2307 91.7044 97.2307 93.401C97.2307 95.1581 95.8977 96.4911 94.1406 96.4911Z" fill="white"/>
<path d="M24.3393 112.003L23.6728 112.366H23.6122C23.5516 112.366 23.491 112.305 23.491 112.305C23.4304 112.245 23.491 112.124 23.5516 112.063L24.4605 111.518C24.5211 111.457 24.6423 111.518 24.7029 111.578C24.7029 111.639 24.7029 111.639 24.7029 111.7V116.002C24.7029 116.062 24.6423 116.183 24.5211 116.183C24.4605 116.183 24.3393 116.123 24.3393 116.002V112.003Z" fill="#F8F8F8"/>
<path d="M25.7936 115.941L27.9749 113.941C28.2172 113.699 28.399 113.396 28.399 113.032C28.399 112.729 28.2778 112.427 28.0961 112.245C27.8537 112.002 27.5507 111.821 27.1872 111.821C26.8842 111.821 26.5813 111.942 26.3389 112.124L26.0965 112.305C26.0359 112.366 25.9148 112.366 25.8542 112.305C25.7936 112.245 25.7936 112.124 25.8542 112.063L26.0965 111.821C26.3995 111.578 26.763 111.396 27.1266 111.396C27.5507 111.396 27.9749 111.578 28.2778 111.881C28.5808 112.184 28.702 112.548 28.702 112.911C28.702 113.335 28.5202 113.76 28.2172 114.063L26.3389 115.759H28.5808C28.6414 115.759 28.7626 115.82 28.7626 115.941C28.7626 116.001 28.702 116.123 28.5808 116.123H25.9754C25.9148 116.123 25.8542 116.123 25.8542 116.062C25.733 116.123 25.733 116.001 25.7936 115.941Z" fill="#F8F8F8"/>
<path d="M32.6403 111.821L31.4285 113.093C31.7315 113.154 32.0344 113.275 32.2162 113.517C32.5191 113.82 32.7009 114.244 32.7009 114.669C32.7009 115.093 32.5191 115.517 32.2162 115.82C31.9132 116.123 31.4891 116.305 31.065 116.305C30.6408 116.305 30.2773 116.123 29.9137 115.82C29.8531 115.759 29.8531 115.638 29.9137 115.577C29.9743 115.517 30.0955 115.517 30.1561 115.577C30.3985 115.82 30.7014 115.941 31.065 115.941C31.3679 115.941 31.7315 115.82 31.9738 115.577C32.2162 115.335 32.3374 115.032 32.3374 114.669C32.3374 114.366 32.2162 114.002 31.9738 113.76C31.7315 113.517 31.4285 113.396 31.065 113.396C31.0044 113.396 30.9438 113.396 30.9438 113.336C30.8832 113.275 30.8832 113.154 30.9438 113.093L32.095 111.881H30.2773C30.1561 111.881 30.0955 111.821 30.0955 111.7C30.0955 111.578 30.1561 111.518 30.2773 111.518H32.4586C32.5797 111.518 32.6403 111.578 32.6403 111.7C32.7009 111.7 32.6403 111.76 32.6403 111.821C32.6403 111.821 32.6403 111.76 32.6403 111.821Z" fill="#F8F8F8"/>
<path d="M36.5788 115.274H34.0339C33.9734 115.274 33.9733 115.274 33.9128 115.214C33.8522 115.153 33.8522 115.032 33.9128 114.972L36.6394 111.578C36.7 111.518 36.8211 111.518 36.8817 111.578L36.9423 111.639V114.85H37.2453C37.3665 114.85 37.427 114.911 37.427 115.032C37.427 115.093 37.3665 115.214 37.2453 115.214H36.9423V116.002C36.9423 116.062 36.8817 116.183 36.7605 116.183C36.7 116.183 36.5788 116.123 36.5788 116.002V115.274ZM36.5788 114.911V112.124L34.3369 114.911H36.5788Z" fill="#F8F8F8"/>
<path d="M42.5166 115.759C42.4561 115.699 42.4561 115.577 42.5166 115.517C42.5772 115.456 42.6984 115.456 42.759 115.517C43.0014 115.759 43.3043 115.88 43.6679 115.88C43.9708 115.88 44.3344 115.759 44.5768 115.517C44.8191 115.275 44.9403 114.972 44.9403 114.608C44.9403 114.305 44.8191 113.942 44.5768 113.699C44.3344 113.457 44.0314 113.336 43.6679 113.336C43.3649 113.336 43.0014 113.457 42.759 113.699C42.6984 113.76 42.5772 113.76 42.5166 113.699L42.4561 113.639V113.578C42.4561 113.578 42.4561 113.578 42.4561 113.517L42.6984 111.639C42.6984 111.578 42.6984 111.518 42.759 111.518C42.759 111.518 42.8196 111.457 42.8802 111.457H45.0615C45.1827 111.457 45.2433 111.518 45.2433 111.639C45.2433 111.76 45.1827 111.821 45.0615 111.821H43.0014L42.8196 113.214C43.062 113.093 43.3649 112.972 43.6073 112.972C44.0314 112.972 44.395 113.093 44.7585 113.457C45.0615 113.76 45.2433 114.184 45.2433 114.608C45.2433 115.032 45.1221 115.456 44.7585 115.759C44.4556 116.062 44.0314 116.244 43.6073 116.244C43.2437 116.183 42.8196 116.062 42.5166 115.759Z" fill="#F8F8F8"/>
<path d="M47.0005 112.487C47.3035 111.942 47.8488 111.518 48.6365 111.457C48.6971 111.457 48.8183 111.518 48.8183 111.639C48.8183 111.76 48.7577 111.821 48.6365 111.821C47.97 111.821 47.5458 112.184 47.2429 112.669C47.0611 112.972 47.0005 113.275 46.8793 113.639C47.1823 113.336 47.6064 113.093 48.0306 113.093C48.8788 113.093 49.6059 113.76 49.6059 114.669C49.6059 115.517 48.9394 116.244 48.0306 116.244C47.1823 116.244 46.5158 115.577 46.4552 114.729C46.4552 114.608 46.4552 114.547 46.4552 114.426C46.5158 113.76 46.637 113.093 47.0005 112.487ZM46.8793 114.669C46.8793 114.729 46.8793 114.729 46.8793 114.729V114.79C46.9399 115.396 47.4852 115.88 48.0912 115.88C48.7577 115.88 49.303 115.335 49.303 114.669C49.303 114.002 48.7577 113.457 48.0306 113.457C47.4247 113.396 46.8793 113.942 46.8793 114.669Z" fill="#F8F8F8"/>
<path d="M51.3631 115.941L53.1202 111.821H50.8178C50.7572 111.821 50.636 111.76 50.636 111.639C50.636 111.578 50.6966 111.457 50.8178 111.457H53.302C53.3626 111.457 53.3626 111.457 53.4232 111.457C53.4838 111.457 53.4838 111.518 53.4838 111.578V111.639C53.4838 111.7 53.4838 111.7 53.4838 111.7L51.666 116.062C51.666 116.123 51.6055 116.183 51.5449 116.183H51.4843C51.3631 116.123 51.3631 116.002 51.3631 115.941Z" fill="#F8F8F8"/>
<path d="M56.0286 111.457C56.5739 111.457 56.998 111.881 56.998 112.427C56.998 112.73 56.8163 113.033 56.5739 113.214C57.1192 113.457 57.5434 114.002 57.5434 114.608C57.5434 115.456 56.8769 116.123 56.0286 116.123C55.1803 116.123 54.5138 115.456 54.5138 114.608C54.5138 114.002 54.8773 113.396 55.4833 113.214C55.2409 113.033 55.1197 112.73 55.1197 112.427C55.0591 111.881 55.4833 111.457 56.0286 111.457ZM56.0286 115.82C56.6951 115.82 57.2404 115.275 57.2404 114.608C57.2404 113.942 56.6951 113.396 56.0286 113.396C55.3621 113.396 54.8168 113.942 54.8168 114.608C54.8168 115.335 55.3621 115.82 56.0286 115.82ZM56.0286 113.093C56.3921 113.093 56.6951 112.79 56.6951 112.427C56.6951 112.063 56.3921 111.76 56.0286 111.76C55.665 111.76 55.3621 112.063 55.3621 112.427C55.3621 112.79 55.665 113.093 56.0286 113.093Z" fill="#F8F8F8"/>
<path d="M64.3903 111.457C65.1779 111.457 65.8445 112.063 65.9656 112.851C65.9656 112.851 65.9656 112.851 65.9656 112.911C65.9656 113.033 65.9656 113.154 65.9656 113.336C65.9656 113.942 65.8445 114.669 65.5415 115.214C65.2385 115.759 64.6932 116.183 63.9055 116.244C63.7843 116.244 63.7238 116.183 63.7238 116.062C63.7238 115.941 63.7843 115.88 63.9055 115.88C64.572 115.88 64.9962 115.517 65.2991 115.032C65.4809 114.729 65.6021 114.426 65.6627 114.063C65.3597 114.366 64.9356 114.608 64.5114 114.608C63.6632 114.608 62.9361 113.942 62.9361 113.033C62.8755 112.124 63.542 111.457 64.3903 111.457ZM65.6627 112.972C65.6627 112.306 65.1174 111.76 64.4509 111.76C63.7844 111.76 63.239 112.306 63.239 112.972C63.239 113.639 63.7844 114.184 64.4509 114.184C65.1174 114.184 65.6627 113.639 65.6627 112.972Z" fill="#F8F8F8"/>
<path d="M67.1774 113.76C67.1774 113.154 67.3591 112.548 67.6015 112.124C67.9045 111.699 68.3286 111.396 68.7527 111.396C69.2375 111.396 69.6616 111.699 69.904 112.124C70.2069 112.548 70.3887 113.154 70.3887 113.76C70.3887 114.365 70.2069 114.971 69.9646 115.396C69.6616 115.82 69.2375 116.123 68.8133 116.123C68.3286 116.123 67.9045 115.82 67.6621 115.396C67.3591 114.971 67.1774 114.426 67.1774 113.76ZM67.4803 113.76C67.4803 114.365 67.6621 114.85 67.9045 115.214C68.1468 115.577 68.4498 115.759 68.8133 115.759C69.1769 115.759 69.4798 115.577 69.7222 115.214C69.9646 114.85 70.1463 114.305 70.1463 113.76C70.1463 113.154 69.9646 112.669 69.7222 112.305C69.4798 111.942 69.1769 111.76 68.8133 111.76C68.4498 111.76 68.1468 111.942 67.9045 112.305C67.6621 112.669 67.4803 113.214 67.4803 113.76Z" fill="#F8F8F8"/>
<path d="M72.6306 111.881L71.9641 112.245H71.9035C71.8429 112.245 71.7823 112.184 71.7823 112.184C71.7217 112.124 71.7823 112.002 71.8429 111.942L72.7518 111.396C72.8124 111.336 72.9335 111.396 72.9941 111.457C72.9941 111.518 72.9941 111.518 72.9941 111.578V115.88C72.9941 115.941 72.9336 116.062 72.8124 116.062C72.7518 116.062 72.6306 116.001 72.6306 115.88V111.881Z" fill="#F8F8F8"/>
<path d="M74.0848 115.82L76.2661 113.82C76.5085 113.578 76.6903 113.275 76.6903 112.911C76.6903 112.608 76.5691 112.305 76.3873 112.124C76.145 111.881 75.842 111.7 75.4784 111.7C75.1755 111.7 74.8725 111.821 74.6302 112.002L74.3878 112.184C74.3272 112.245 74.206 112.245 74.1454 112.184C74.0848 112.124 74.0848 112.002 74.1454 111.942L74.3878 111.7C74.6908 111.457 75.0543 111.275 75.4179 111.275C75.842 111.275 76.2661 111.457 76.5691 111.76C76.8721 112.063 76.9932 112.427 76.9932 112.79C76.9932 113.214 76.8115 113.638 76.5085 113.941L74.6302 115.638H76.8721C76.9326 115.638 77.0538 115.699 77.0538 115.82C77.0538 115.88 76.9932 116.002 76.8721 116.002H74.2666C74.206 116.002 74.1454 116.002 74.1454 115.941C74.0243 116.002 74.0243 115.88 74.0848 115.82Z" fill="#F8F8F8"/>
<path d="M84.9308 111.699L83.7189 112.972C84.0219 113.032 84.3248 113.154 84.5066 113.396C84.8096 113.699 84.9913 114.123 84.9913 114.547C84.9913 114.971 84.8096 115.396 84.5066 115.698C84.2036 116.001 83.7795 116.183 83.3554 116.183C82.9312 116.183 82.5677 116.001 82.2041 115.698C82.1435 115.638 82.1435 115.517 82.2041 115.456C82.2647 115.396 82.3859 115.396 82.4465 115.456C82.6889 115.698 82.9918 115.82 83.3554 115.82C83.6583 115.82 84.0219 115.698 84.2642 115.456C84.5066 115.214 84.6278 114.911 84.6278 114.547C84.6278 114.244 84.5066 113.881 84.2642 113.638C84.0219 113.396 83.7189 113.275 83.3554 113.275C83.2948 113.275 83.2342 113.275 83.2342 113.214C83.1736 113.154 83.1736 113.032 83.2342 112.972L84.3854 111.76H82.5677C82.4465 111.76 82.3859 111.699 82.3859 111.578C82.3859 111.457 82.4465 111.396 82.5677 111.396H84.749C84.8702 111.396 84.9308 111.457 84.9308 111.578C84.9913 111.578 84.9913 111.578 84.9308 111.699C84.9913 111.639 84.9913 111.639 84.9308 111.699Z" fill="#F8F8F8"/>
<path d="M88.9297 115.093H86.3849C86.3243 115.093 86.3243 115.093 86.2637 115.032C86.2031 114.971 86.2031 114.85 86.2637 114.79L88.9903 111.397C89.0509 111.336 89.1721 111.336 89.2327 111.397L89.2933 111.457V114.668H89.5962C89.7174 114.668 89.778 114.729 89.778 114.85C89.778 114.911 89.7174 115.032 89.5962 115.032H89.2933V115.82C89.2933 115.88 89.2327 116.001 89.1115 116.001C89.0509 116.001 88.9297 115.941 88.9297 115.82V115.093ZM88.9297 114.79V112.002L86.6879 114.79H88.9297Z" fill="#F8F8F8"/>
<path d="M90.808 115.638C90.7474 115.577 90.7474 115.456 90.808 115.396C90.8686 115.335 90.9898 115.335 91.0504 115.396C91.2928 115.638 91.5957 115.759 91.9593 115.759C92.2622 115.759 92.6258 115.638 92.8681 115.396C93.1105 115.153 93.2317 114.85 93.2317 114.487C93.2317 114.184 93.1105 113.82 92.8681 113.578C92.6258 113.335 92.3228 113.214 91.9593 113.214C91.6563 113.214 91.2928 113.335 91.0504 113.578C90.9898 113.638 90.8686 113.638 90.808 113.578L90.7474 113.517V113.457C90.7474 113.457 90.7474 113.457 90.7474 113.396L90.9898 111.518C90.9898 111.457 90.9898 111.397 91.0504 111.397C91.0504 111.397 91.111 111.336 91.1716 111.336H93.3529C93.474 111.336 93.5346 111.397 93.5346 111.518C93.5346 111.639 93.474 111.699 93.3529 111.699H91.2928L91.111 113.093C91.3533 112.972 91.6563 112.851 91.8987 112.851C92.3228 112.851 92.6864 112.972 93.0499 113.335C93.3529 113.638 93.5346 114.063 93.5346 114.487C93.5346 114.911 93.4134 115.335 93.0499 115.638C92.7469 115.941 92.3228 116.123 91.8987 116.123C91.5351 116.062 91.111 115.941 90.808 115.638Z" fill="#F8F8F8"/>
<path d="M95.2918 112.366C95.5948 111.821 96.1401 111.397 96.9278 111.336C96.9884 111.336 97.1095 111.397 97.1095 111.518C97.1095 111.639 97.0489 111.699 96.9278 111.699C96.2613 111.699 95.8371 112.063 95.5342 112.548C95.3524 112.851 95.2918 113.154 95.1706 113.517C95.4736 113.214 95.8977 112.972 96.3218 112.972C97.1701 112.972 97.8972 113.638 97.8972 114.547C97.8972 115.396 97.2307 116.123 96.3218 116.123C95.4736 116.123 94.8071 115.456 94.7465 114.608C94.7465 114.487 94.7465 114.426 94.7465 114.305C94.8071 113.638 94.9282 112.911 95.2918 112.366ZM95.1706 114.547C95.1706 114.608 95.1706 114.608 95.1706 114.608V114.668C95.2312 115.274 95.7765 115.759 96.3824 115.759C97.0489 115.759 97.5943 115.214 97.5943 114.547C97.5943 113.881 97.0489 113.335 96.3218 113.335C95.7159 113.275 95.1706 113.82 95.1706 114.547Z" fill="#F8F8F8"/>
<path d="M66.0846 124.25L24.9431 124.356L24.9483 126.356L66.0898 126.249L66.0846 124.25Z" fill="#263238"/>
<path d="M54.0269 128.749L24.943 128.824L24.9482 130.824L54.032 130.748L54.0269 128.749Z" fill="#263238"/>
<path d="M80.8689 90.4059L60.389 90.459L60.3942 92.4585L80.8741 92.4054L80.8689 90.4059Z" fill="#263238"/>
<path d="M18.2197 72.3756C18.2197 72.315 18.2802 72.1938 18.4014 72.1938H19.6133C20.2798 72.1938 20.8857 72.7392 20.8857 73.4663C20.8857 74.1328 20.3404 74.7387 19.6133 74.7387H18.5226V76.4958C18.5226 76.5564 18.462 76.6776 18.3408 76.6776C18.2802 76.6776 18.1591 76.617 18.1591 76.4958V72.3756H18.2197ZM19.6133 74.4963C20.1586 74.4963 20.5827 74.0722 20.5827 73.5269C20.5827 72.9815 20.1586 72.5574 19.6133 72.5574H18.5226V74.4963H19.6133Z" fill="#263238"/>
<path d="M24.4605 73.7087V76.4959C24.4605 76.5565 24.4 76.6777 24.2788 76.6777C24.2182 76.6777 24.097 76.6171 24.097 76.4959V76.0112C23.8546 76.3747 23.4305 76.6171 22.9458 76.6171C22.1581 76.6171 21.4916 75.89 21.4916 75.0417C21.4916 74.1935 22.1581 73.4664 22.9458 73.4664C23.4305 73.4664 23.8546 73.7087 24.097 74.0723V73.5875C24.097 73.5269 24.1576 73.4058 24.2788 73.4058C24.4 73.5875 24.4605 73.6481 24.4605 73.7087ZM24.1576 75.1023C24.1576 74.4358 23.6123 73.8299 23.0064 73.8299C22.4004 73.8299 21.8551 74.3752 21.8551 75.1023C21.8551 75.7688 22.4004 76.3747 23.0064 76.3747C23.6123 76.3747 24.1576 75.8294 24.1576 75.1023Z" fill="#263238"/>
<path d="M25.733 73.7088C25.733 73.6482 25.7936 73.5876 25.8542 73.5876C25.9148 73.5876 26.036 73.6482 26.036 73.7088V75.4054C26.036 75.9507 26.4601 76.3749 27.0055 76.3749C27.5508 76.3749 27.9749 75.9507 27.9749 75.4054V73.7088V73.6482L28.0355 73.5876C28.0355 73.5876 28.0961 73.5876 28.0961 73.6482L28.1567 73.7088V73.7694V75.466V75.5266V76.496C28.1567 77.2837 27.4902 77.9502 26.7025 77.9502C26.4601 77.9502 26.2784 77.8896 26.036 77.829C25.9754 77.7685 25.9148 77.7079 25.9754 77.6473C26.036 77.5867 26.0966 77.5261 26.1572 77.5867C26.339 77.6473 26.4601 77.7079 26.6419 77.7079C27.3084 77.7079 27.7931 77.2231 27.7931 76.5566V76.3749C27.5508 76.6172 27.2478 76.799 26.8237 76.799C26.1572 76.799 25.5513 76.2537 25.5513 75.5266V73.7088H25.733Z" fill="#263238"/>
<path d="M34.0946 74.8601C34.0946 74.3147 33.6705 73.8906 33.1251 73.8906C32.5798 73.8906 32.1557 74.3147 32.1557 74.8601V76.5566C32.1557 76.6172 32.0951 76.6172 32.0951 76.6172H32.0345C32.0345 76.6172 32.0345 76.6172 31.9739 76.6172V74.9207C31.9739 74.3753 31.5498 73.9512 31.0044 73.9512C30.4591 73.9512 30.035 74.3753 30.035 74.9207V76.6172C30.035 76.6778 30.035 76.7384 29.9744 76.7384C29.9744 76.7384 29.9744 76.7384 29.9138 76.7384C29.8532 76.7384 29.7926 76.6778 29.7926 76.6172V76.5566V74.8601V74.7995V73.7088C29.7926 73.6482 29.8532 73.5876 29.9138 73.5876C29.9744 73.5876 30.0956 73.6482 30.0956 73.7088V74.0118C30.3379 73.7694 30.6409 73.5876 31.065 73.5876C31.5497 73.5876 31.9739 73.83 32.1557 74.2542C32.398 73.8906 32.8222 73.5876 33.2463 73.5876C33.9128 73.5876 34.5187 74.133 34.5187 74.8601V76.5566C34.5187 76.6172 34.4581 76.6778 34.337 76.6778C34.2764 76.6778 34.2158 76.6172 34.2158 76.5566V74.8601H34.0946Z" fill="#263238"/>
<path d="M35.4882 75.163C35.4882 74.3147 36.1547 73.5876 37.0029 73.5876C37.7906 73.5876 38.4571 74.1936 38.5177 75.0418C38.5177 75.1024 38.4571 75.163 38.336 75.163H35.7911C35.8517 75.8295 36.3364 76.3749 37.0029 76.3749C37.4271 76.3749 37.7906 76.1325 37.9724 75.8295C38.033 75.7689 38.0936 75.7689 38.1542 75.7689C38.2148 75.8295 38.2754 75.8901 38.2148 76.0113C37.9724 76.4354 37.4877 76.7384 36.9423 76.7384C36.1547 76.6778 35.4882 76.0113 35.4882 75.163ZM35.7911 74.8601H38.1542C38.033 74.2542 37.5483 73.83 37.0029 73.83C36.397 73.8906 35.9123 74.3147 35.7911 74.8601Z" fill="#263238"/>
<path d="M41.7896 74.8601C41.7896 74.3147 41.3655 73.8906 40.8202 73.8906C40.2749 73.8906 39.8507 74.3147 39.8507 74.8601V76.5566C39.8507 76.5566 39.8507 76.6172 39.7901 76.6172C39.7901 76.6778 39.7295 76.6778 39.6689 76.6778H39.6084C39.5478 76.6778 39.5478 76.6172 39.4872 76.6172V76.5566V74.8601V74.7995V73.7694C39.4872 73.7088 39.5478 73.5876 39.6689 73.5876C39.7295 73.5876 39.7901 73.6482 39.7901 73.7694V74.0724C40.0325 73.83 40.3355 73.6482 40.7596 73.6482C41.4261 73.6482 42.032 74.1936 42.032 74.9207V76.6172C42.032 76.6778 41.9714 76.799 41.8502 76.799C41.7897 76.799 41.6685 76.7384 41.6685 76.6172V74.8601H41.7896Z" fill="#263238"/>
<path d="M44.5163 73.7088C44.5163 73.7694 44.4557 73.8906 44.3345 73.8906H43.971V76.1325C43.971 76.3143 44.1527 76.3749 44.2133 76.3749C44.2739 76.3749 44.3951 76.4355 44.3951 76.5566C44.3951 76.6172 44.3345 76.7384 44.2133 76.7384C43.9104 76.7384 43.668 76.496 43.668 76.1931V73.9512H43.3044C43.1227 73.9512 43.1227 73.8906 43.1227 73.7694C43.1227 73.7088 43.1227 73.5877 43.3044 73.5877H43.668V72.4364C43.668 72.3758 43.7286 72.2546 43.8498 72.2546C43.9104 72.2546 44.0316 72.3152 44.0316 72.4364V73.5877H44.4557C44.4557 73.5877 44.5163 73.6482 44.5163 73.7088Z" fill="#263238"/>
<path d="M52.2719 74.8601C52.2719 74.3147 51.8478 73.8906 51.3025 73.8906C50.7572 73.8906 50.333 74.3147 50.333 74.8601V76.5566C50.333 76.6172 50.2724 76.6172 50.2724 76.6172H50.2118C50.2118 76.6172 50.2118 76.6172 50.1513 76.6172V74.9207C50.1513 74.3753 49.7271 73.9512 49.1818 73.9512C48.6365 73.9512 48.2123 74.3753 48.2123 74.9207V76.6172C48.2123 76.6778 48.2123 76.7384 48.1517 76.7384C48.1517 76.7384 48.1517 76.7384 48.0912 76.7384C48.0306 76.7384 47.97 76.6778 47.97 76.6172V76.5566V74.8601V74.7995V73.7088C47.97 73.6482 48.0306 73.5876 48.0912 73.5876C48.1517 73.5876 48.2729 73.6482 48.2729 73.7088V74.0118C48.5153 73.7694 48.8182 73.5876 49.2424 73.5876C49.7271 73.5876 50.1513 73.83 50.333 74.2542C50.5754 73.8906 50.9995 73.5876 51.4237 73.5876C52.0902 73.5876 52.6961 74.133 52.6961 74.8601V76.5566C52.6961 76.6172 52.6355 76.6778 52.5143 76.6778C52.4537 76.6778 52.3931 76.6172 52.3931 76.5566V74.8601H52.2719Z" fill="#263238"/>
<path d="M53.6655 75.163C53.6655 74.3147 54.332 73.5876 55.1803 73.5876C55.968 73.5876 56.6345 74.1936 56.6951 75.0418C56.6951 75.1024 56.6345 75.163 56.5133 75.163H53.9685C54.0291 75.8295 54.5138 76.3749 55.1803 76.3749C55.6045 76.3749 55.968 76.1325 56.1498 75.8295C56.2104 75.7689 56.271 75.7689 56.3315 75.7689C56.3921 75.8295 56.4527 75.8901 56.3921 76.0113C56.1498 76.4354 55.665 76.7384 55.1197 76.7384C54.332 76.6778 53.6655 76.0113 53.6655 75.163ZM53.9685 74.8601H56.3315C56.2104 74.2542 55.7256 73.83 55.1803 73.83C54.5744 73.8906 54.0897 74.3147 53.9685 74.8601Z" fill="#263238"/>
<path d="M58.5735 73.7088C58.5735 73.7694 58.5129 73.8906 58.3917 73.8906H57.9675V76.1325C57.9675 76.3143 58.1493 76.3749 58.2099 76.3749C58.2705 76.3749 58.3917 76.4355 58.3917 76.5566C58.3917 76.6172 58.3311 76.7384 58.2099 76.7384C57.9069 76.7384 57.6646 76.496 57.6646 76.1931V73.9512H57.301C57.1193 73.9512 57.1193 73.8906 57.1193 73.7694C57.1193 73.7088 57.1193 73.5877 57.301 73.5877H57.6646V72.4364C57.6646 72.3758 57.7252 72.2546 57.8464 72.2546C57.9069 72.2546 58.0281 72.3152 58.0281 72.4364V73.5877H58.4523C58.5129 73.5877 58.5735 73.6482 58.5735 73.7088Z" fill="#263238"/>
<path d="M62.1483 74.7994C62.1483 74.254 61.7242 73.8905 61.1789 73.8905C60.6335 73.8905 60.2094 74.254 60.2094 74.7994V76.4959C60.2094 76.5565 60.1488 76.5565 60.0882 76.5565C60.0276 76.5565 60.0276 76.5565 59.967 76.4959V76.4353V76.3747V74.6782V74.6176V72.2545C59.967 72.1939 60.0276 72.0728 60.1488 72.0728C60.2094 72.0728 60.3306 72.1333 60.3306 72.2545V73.8905C60.573 73.5875 60.9365 73.4058 61.3001 73.4058C62.0272 73.4058 62.5725 73.8905 62.5725 74.6176V76.3141C62.5725 76.3747 62.5119 76.4959 62.3907 76.4959C62.3301 76.4959 62.2695 76.4353 62.2695 76.3141V74.7994H62.1483Z" fill="#263238"/>
<path d="M65.1173 73.5876C65.905 73.5876 66.5715 74.3147 66.5715 75.163C66.5715 76.0113 65.905 76.7384 65.1173 76.7384C64.3296 76.7384 63.6631 76.0113 63.6631 75.163C63.6025 74.3147 64.269 73.5876 65.1173 73.5876ZM65.1173 76.3749C65.7232 76.3749 66.2686 75.8295 66.2686 75.1024C66.2686 74.4359 65.7232 73.83 65.1173 73.83C64.5114 73.83 63.9661 74.3753 63.9661 75.1024C63.9055 75.8295 64.4508 76.3749 65.1173 76.3749Z" fill="#263238"/>
<path d="M70.2071 76.0719C69.9647 76.4355 69.48 76.6778 68.9952 76.6778C68.147 76.6778 67.4805 76.0113 67.4805 75.163C67.4805 74.3147 68.147 73.5877 68.9952 73.5877C69.48 73.5877 69.9041 73.83 70.2071 74.1936V72.4364C70.2071 72.3758 70.2677 72.2546 70.3888 72.2546C70.4494 72.2546 70.51 72.3152 70.51 72.4364V75.1024V75.163V76.5566C70.51 76.6172 70.4494 76.7384 70.3888 76.7384C70.3283 76.7384 70.2071 76.6778 70.2071 76.5566V76.0719ZM70.2071 75.163V75.0418C70.2071 74.3753 69.6617 73.83 68.9952 73.83C68.3287 73.83 67.7834 74.3753 67.7834 75.1024C67.7834 75.7689 68.3287 76.3143 68.9952 76.3143C69.6617 76.3749 70.2071 75.8295 70.2071 75.163Z" fill="#263238"/>
<path d="M19.3709 42.7466H18.0379C17.9773 42.7466 17.8561 42.686 17.8561 42.5648C17.8561 42.5042 17.9167 42.3831 18.0379 42.3831H21.0068C21.0674 42.3831 21.1886 42.4436 21.1886 42.5648C21.1886 42.6254 21.128 42.7466 21.0068 42.7466H19.6738V46.685C19.6738 46.7456 19.6132 46.8668 19.4921 46.8668C19.4315 46.8668 19.3103 46.8062 19.3103 46.685V42.7466H19.3709Z" fill="#263238"/>
<path d="M22.7033 43.7766C23.491 43.7766 24.1575 44.5037 24.1575 45.352C24.1575 46.2003 23.491 46.9274 22.7033 46.9274C21.9156 46.9274 21.2491 46.2003 21.2491 45.352C21.2491 44.5037 21.9156 43.7766 22.7033 43.7766ZM22.7033 46.5638C23.3093 46.5638 23.8546 46.0185 23.8546 45.2914C23.8546 44.6249 23.3093 44.019 22.7033 44.019C22.0974 44.019 21.5521 44.5643 21.5521 45.2914C21.5521 46.0185 22.0974 46.5638 22.7033 46.5638Z" fill="#263238"/>
<path d="M26.3389 43.9583C26.3389 44.0189 26.2783 44.1401 26.1571 44.1401H25.7936V46.382C25.7936 46.5638 25.9754 46.6244 26.0359 46.6244C26.0965 46.6244 26.2177 46.685 26.2177 46.8061C26.2177 46.8667 26.1571 46.9879 26.0359 46.9879C25.733 46.9879 25.4906 46.7455 25.4906 46.4426V44.2007H25.1271C24.9453 44.2007 24.9453 44.1401 24.9453 44.0189C24.9453 43.9583 24.9453 43.8372 25.1271 43.8372H25.4906V42.6859C25.4906 42.6253 25.5512 42.5042 25.6724 42.5042C25.733 42.5042 25.8542 42.5647 25.8542 42.6859V43.8372H26.2783C26.2177 43.7766 26.3389 43.8978 26.3389 43.9583Z" fill="#263238"/>
<path d="M30.1562 43.9585V46.7457C30.1562 46.8063 30.0956 46.9275 29.9744 46.9275C29.9139 46.9275 29.7927 46.8669 29.7927 46.7457V46.2609C29.5503 46.6245 29.1262 46.8669 28.6414 46.8669C27.8538 46.8669 27.1873 46.1398 27.1873 45.2915C27.1873 44.4432 27.8538 43.7161 28.6414 43.7161C29.1262 43.7161 29.5503 43.9585 29.7927 44.322V43.8373C29.7927 43.7767 29.8533 43.6555 29.9744 43.6555C30.0956 43.7767 30.1562 43.8373 30.1562 43.9585ZM29.8533 45.3521C29.8533 44.6856 29.3079 44.0797 28.702 44.0797C28.0961 44.0797 27.5508 44.625 27.5508 45.3521C27.5508 46.0186 28.0961 46.6245 28.702 46.6245C29.3685 46.5639 29.8533 46.0186 29.8533 45.3521Z" fill="#263238"/>
<path d="M31.6104 42.6254C31.6104 42.5648 31.6709 42.4436 31.7921 42.4436C31.8527 42.4436 31.9739 42.5042 31.9739 42.6254V46.7456C31.9739 46.8062 31.9133 46.9274 31.7921 46.9274C31.7315 46.9274 31.6104 46.8668 31.6104 46.7456V42.6254Z" fill="#263238"/>
<path d="M35.0641 45.4126V45.352V45.2914V43.9584C35.0641 43.8978 35.1247 43.7766 35.2459 43.7766C35.3065 43.7766 35.4276 43.8372 35.4276 43.9584V44.3825C35.67 44.019 36.0941 43.7766 36.5789 43.7766C37.4271 43.7766 38.0936 44.4431 38.0936 45.2914C38.0936 46.1397 37.4271 46.8062 36.5789 46.8062C36.0941 46.8062 35.67 46.5638 35.4276 46.2003V47.9574C35.4276 48.018 35.367 48.1392 35.2459 48.1392C35.1853 48.1392 35.0641 48.0786 35.0641 47.9574V45.4126ZM35.367 45.352C35.367 46.0185 35.9124 46.5638 36.5183 46.5638C37.1848 46.5638 37.7301 46.0185 37.7301 45.352C37.7301 44.6855 37.1848 44.1402 36.5183 44.1402C35.9124 44.0796 35.4276 44.6249 35.367 45.352Z" fill="#263238"/>
<path d="M39.2449 43.9584C39.2449 43.8978 39.3055 43.7766 39.4266 43.7766C39.4872 43.7766 39.5478 43.8372 39.5478 43.9584V44.6249C39.5478 44.6249 39.5478 44.5643 39.6084 44.5643C39.8508 44.2008 40.2749 43.7766 40.8203 43.7766C40.8809 43.7766 41.002 43.8372 41.002 43.9584C41.002 44.019 40.9414 44.1402 40.8203 44.1402C40.3961 44.1402 40.1538 44.3825 39.9114 44.6249C39.7296 44.9278 39.6084 45.2308 39.5478 45.352V45.4126V46.7456C39.5478 46.8062 39.4872 46.9274 39.4266 46.9274C39.3661 46.9274 39.2449 46.8668 39.2449 46.7456V43.9584Z" fill="#263238"/>
<path d="M42.0321 42.9284C42.0321 42.8678 42.0927 42.7466 42.2139 42.7466C42.2745 42.7466 42.3956 42.8072 42.3956 42.9284V43.0495C42.3956 43.1101 42.3351 43.2313 42.2139 43.2313C42.1533 43.2313 42.0321 43.1707 42.0321 43.0495V42.9284ZM42.0321 43.9584C42.0321 43.8978 42.0927 43.7766 42.2139 43.7766C42.2745 43.7766 42.3956 43.8372 42.3956 43.9584V46.7456C42.3956 46.8062 42.3351 46.9274 42.2139 46.9274C42.1533 46.9274 42.0321 46.8668 42.0321 46.7456V43.9584Z" fill="#263238"/>
<path d="M43.5469 45.3519C43.5469 44.5037 44.274 43.8372 45.1222 43.8372C45.4858 43.8372 45.8493 43.9583 46.0917 44.2007C46.1523 44.2613 46.1523 44.3219 46.0917 44.3825C46.0311 44.4431 45.9705 44.4431 45.9099 44.3825C45.6676 44.2007 45.4252 44.0795 45.1222 44.0795C44.3951 44.0795 43.8498 44.6248 43.8498 45.3519C43.8498 46.0184 44.3951 46.6244 45.1222 46.6244C45.4252 46.6244 45.7282 46.5032 45.9099 46.382C45.9705 46.3214 46.0917 46.3214 46.0917 46.382C46.1523 46.4426 46.1523 46.5638 46.0311 46.6244C45.7887 46.8061 45.4252 46.9273 45.0617 46.9273C44.274 46.8667 43.5469 46.2002 43.5469 45.3519Z" fill="#263238"/>
<path d="M47.1217 45.352C47.1217 44.5037 47.7882 43.7766 48.6365 43.7766C49.4242 43.7766 50.0907 44.3825 50.1513 45.2308C50.1513 45.2914 50.0907 45.352 49.9695 45.352H47.4247C47.4853 46.0185 47.97 46.5638 48.6365 46.5638C49.0606 46.5638 49.4242 46.3215 49.606 46.0185C49.6666 45.9579 49.7271 45.9579 49.7877 45.9579C49.8483 46.0185 49.9089 46.0791 49.8483 46.2003C49.606 46.6244 49.1212 46.9274 48.5759 46.9274C47.7882 46.8668 47.1217 46.2003 47.1217 45.352ZM47.4247 45.1096H49.7877C49.6666 44.5037 49.1818 44.0796 48.6365 44.0796C48.0306 44.0796 47.5458 44.5037 47.4247 45.1096Z" fill="#263238"/>
<path d="M21.8551 50.9868C22.158 50.9868 22.4004 51.2292 22.4004 51.5321V51.8351C23.1275 51.8957 23.794 52.1381 24.3393 52.5016C24.5211 52.6228 24.7029 52.8046 24.7029 53.1075C24.7029 53.4711 24.3999 53.774 23.9758 53.774C23.8546 53.774 23.7334 53.7134 23.6122 53.6528C23.1881 53.4105 22.764 53.1681 22.2792 53.1075V55.5312C24.2181 56.0159 25.0058 56.8036 25.0058 58.1366C25.0058 59.5302 23.9152 60.4391 22.2792 60.6209V61.4085C22.2792 61.7115 22.0369 61.9539 21.7339 61.9539C21.4309 61.9539 21.1886 61.7115 21.1886 61.4085V60.6209C20.2191 60.4997 19.3708 60.1967 18.5832 59.6514C18.3408 59.5302 18.2196 59.2878 18.2196 59.0455C18.2196 58.6819 18.5226 58.379 18.8861 58.379C19.0679 58.379 19.1891 58.4396 19.3103 58.5002C19.9162 58.9243 20.4615 59.2273 21.1886 59.3484V56.8642C19.3102 56.3795 18.462 55.7129 18.462 54.2588C18.462 52.9257 19.5526 51.9563 21.128 51.8351V51.5321C21.3098 51.2292 21.5521 50.9868 21.8551 50.9868ZM21.3098 55.2888V53.0469C20.5221 53.1075 20.0979 53.5317 20.0979 54.1376C20.0979 54.6829 20.3403 54.9859 21.3098 55.2888ZM22.3398 57.046V59.3484C23.1275 59.2878 23.6122 58.8637 23.6122 58.2578C23.6122 57.7125 23.3093 57.3489 22.3398 57.046Z" fill="#24CCA7"/>
<path d="M32.3373 57.6518C32.3373 59.2877 31.0043 60.6813 29.3078 60.6813C27.6112 60.6813 26.2782 59.3483 26.2782 57.6518C26.2782 56.6217 26.8235 55.6523 27.6112 55.1069C27.3688 54.7434 27.1871 54.3193 27.1871 53.8345C27.1871 52.6833 28.0959 51.7744 29.3078 51.7744C30.459 51.7744 31.3679 52.6833 31.3679 53.8345C31.3679 54.3193 31.1861 54.7434 30.9437 55.1069C31.792 55.6523 32.3373 56.5611 32.3373 57.6518ZM30.9437 57.6518C30.9437 56.7429 30.2166 56.0158 29.3078 56.0158C28.3989 56.0158 27.6718 56.7429 27.6718 57.6518C27.6718 58.5606 28.3989 59.2877 29.3078 59.2877C30.2166 59.2877 30.9437 58.5001 30.9437 57.6518ZM28.5807 53.8345C28.5807 54.1981 28.8836 54.5616 29.3078 54.5616C29.6713 54.5616 29.9743 54.2587 29.9743 53.8345C29.9743 53.471 29.6713 53.168 29.3078 53.168C28.8836 53.168 28.5807 53.471 28.5807 53.8345Z" fill="#24CCA7"/>
<path d="M34.3369 54.8646C34.3369 53.168 35.7305 51.7744 37.4271 51.7744C39.0024 51.7744 40.3355 52.9862 40.4566 54.501C40.4566 54.7434 40.4566 54.9858 40.4566 55.2281C40.4566 56.0764 40.3355 56.9853 40.0325 57.8336C39.7295 58.6818 39.1842 59.4695 38.3965 60.0148C37.8512 60.3784 37.2453 60.5602 36.5182 60.6208C36.1547 60.6208 35.7911 60.3178 35.7911 59.9543C35.7911 59.5907 36.0941 59.2877 36.4576 59.2272C36.9423 59.2272 37.3059 59.0454 37.6694 58.8636C37.9724 58.6212 38.2753 58.3789 38.4571 57.9547C38.5177 57.8336 38.5783 57.7124 38.6389 57.6518C38.2754 57.8336 37.8512 57.8941 37.4271 57.8941C35.6699 57.8941 34.3369 56.5611 34.3369 54.8646ZM35.7305 54.8646C35.7305 55.7734 36.4576 56.5611 37.4271 56.5611C38.3359 56.5611 39.063 55.7734 39.063 54.8646C39.063 53.9557 38.3359 53.2286 37.4271 53.2286C36.4576 53.168 35.7305 53.8951 35.7305 54.8646Z" fill="#24CCA7"/>
<path d="M42.4562 61.7722C43.0621 61.5904 43.365 61.1663 43.3044 60.621C42.9409 60.4998 42.5773 60.1968 42.5773 59.7727V59.6515C42.5773 59.1668 42.9409 58.8032 43.4256 58.8032C43.9709 58.8032 44.3345 59.2274 44.3345 59.8939V60.015C44.3345 60.8633 44.0921 61.4692 43.7286 61.8934C43.365 62.1963 42.8803 62.4387 42.5167 62.4387C42.2744 62.4387 42.1532 62.2569 42.1532 62.0752C42.1532 61.954 42.2744 61.8328 42.4562 61.7722Z" fill="#24CCA7"/>
<path d="M45.2433 54.8646C45.2433 53.168 46.6369 51.7744 48.3334 51.7744C49.9088 51.7744 51.2418 52.9862 51.363 54.501C51.363 54.7434 51.363 54.9858 51.363 55.2281C51.363 56.0764 51.2418 56.9853 50.9389 57.8336C50.6359 58.6818 50.0906 59.4695 49.3029 60.0148C48.7576 60.3784 48.1517 60.5602 47.4246 60.6208C47.061 60.6208 46.6975 60.3178 46.6975 59.9543C46.6975 59.5907 47.0004 59.2877 47.364 59.2272C47.8487 59.2272 48.2123 59.0454 48.5758 58.8636C48.8788 58.6212 49.1817 58.3789 49.3635 57.9547C49.4241 57.8336 49.4847 57.7124 49.5453 57.6518C49.1817 57.8336 48.7576 57.8941 48.3334 57.8941C46.6369 57.8941 45.2433 56.5611 45.2433 54.8646ZM46.6369 54.8646C46.6369 55.7734 47.364 56.5611 48.3334 56.5611C49.2423 56.5611 49.9694 55.7734 49.9694 54.8646C49.9694 53.9557 49.2423 53.2286 48.3334 53.2286C47.364 53.168 46.6369 53.8951 46.6369 54.8646Z" fill="#24CCA7"/>
<path d="M53.3625 54.8646C53.3625 53.168 54.7562 51.7744 56.4527 51.7744C58.0281 51.7744 59.3611 52.9862 59.4823 54.501C59.4823 54.7434 59.4823 54.9858 59.4823 55.2281C59.4823 56.0764 59.3611 56.9853 59.0581 57.8336C58.7552 58.6818 58.2098 59.4695 57.4222 60.0148C56.8768 60.3784 56.2709 60.5602 55.5438 60.6208C55.1803 60.6208 54.8167 60.3178 54.8167 59.9543C54.8167 59.5907 55.1197 59.2877 55.4832 59.2272C55.968 59.2272 56.3315 59.0454 56.6951 58.8636C56.998 58.6212 57.301 58.3789 57.4828 57.9547C57.5433 57.8336 57.6039 57.7124 57.6645 57.6518C57.301 57.8336 56.8768 57.8941 56.4527 57.8941C54.7562 57.8941 53.3625 56.5611 53.3625 54.8646ZM54.7561 54.8646C54.7561 55.7734 55.4832 56.5611 56.4527 56.5611C57.3616 56.5611 58.0887 55.7734 58.0887 54.8646C58.0887 53.9557 57.3616 53.2286 56.4527 53.2286C55.4832 53.168 54.7561 53.8951 54.7561 54.8646Z" fill="#24CCA7"/>
<path d="M39.669 25.7204C39.669 25.6598 39.7296 25.5386 39.8508 25.5386H41.0626C41.7291 25.5386 42.335 26.0839 42.335 26.811C42.335 27.4775 41.7897 28.0834 41.0626 28.0834H39.9719V29.8406C39.9719 29.9012 39.9114 30.0223 39.7902 30.0223C39.7296 30.0223 39.6084 29.9617 39.6084 29.8406V25.7204H39.669ZM41.0626 27.841C41.6079 27.841 42.0321 27.4169 42.0321 26.8716C42.0321 26.3263 41.6079 25.9021 41.0626 25.9021H39.9719V27.841H41.0626Z" fill="#263238"/>
<path d="M45.8494 27.0534V29.8407C45.8494 29.9012 45.7888 30.0224 45.6676 30.0224C45.607 30.0224 45.4858 29.9618 45.4858 29.8407V29.3559C45.2434 29.7195 44.8193 29.9618 44.3346 29.9618C43.5469 29.9618 42.8804 29.2347 42.8804 28.3865C42.8804 27.5382 43.5469 26.8111 44.3346 26.8111C44.8193 26.8111 45.2434 27.0534 45.4858 27.417V26.9323C45.4858 26.8717 45.5464 26.7505 45.6676 26.7505C45.7888 26.9323 45.8494 26.9929 45.8494 27.0534ZM45.5464 28.447C45.5464 27.7805 45.0011 27.1746 44.3952 27.1746C43.7892 27.1746 43.2439 27.72 43.2439 28.447C43.2439 29.1136 43.7892 29.7195 44.3952 29.7195C45.0617 29.7195 45.5464 29.1741 45.5464 28.447Z" fill="#263238"/>
<path d="M47.1217 27.0533C47.1217 26.9927 47.1823 26.9321 47.2429 26.9321C47.3035 26.9321 47.4247 26.9927 47.4247 27.0533V28.7499C47.4247 29.2952 47.8488 29.7193 48.3941 29.7193C48.9395 29.7193 49.3636 29.2952 49.3636 28.7499V27.0533V26.9927L49.4242 26.9321C49.4242 26.9321 49.4848 26.9321 49.4848 26.9927L49.5454 27.0533V27.1139V28.8105V28.8711V29.8405C49.5454 30.6282 48.8789 31.2947 48.0912 31.2947C47.8488 31.2947 47.667 31.2341 47.4247 31.1735C47.3641 31.1129 47.3035 31.0523 47.3641 30.9917C47.4247 30.9312 47.4853 30.8706 47.5459 30.9312C47.7276 30.9917 47.8488 31.0523 48.0306 31.0523C48.6971 31.0523 49.1818 30.5676 49.1818 29.9011V29.7193C48.9395 29.9617 48.6365 30.1435 48.2124 30.1435C47.5459 30.1435 46.9399 29.5981 46.9399 28.8711V27.0533H47.1217Z" fill="#263238"/>
<path d="M55.5439 28.2045C55.5439 27.6592 55.1198 27.2351 54.5745 27.2351C54.0292 27.2351 53.605 27.6592 53.605 28.2045V29.9011C53.605 29.9617 53.5444 29.9617 53.5444 29.9617H53.4838C53.4838 29.9617 53.4838 29.9617 53.4232 29.9617V28.2651C53.4232 27.7198 52.9991 27.2957 52.4538 27.2957C51.9084 27.2957 51.4843 27.7198 51.4843 28.2651V29.9617C51.4843 30.0223 51.4843 30.0829 51.4237 30.0829C51.4237 30.0829 51.4237 30.0829 51.3631 30.0829C51.3025 30.0829 51.2419 30.0223 51.2419 29.9617V29.9011V28.2045V28.144V27.0533C51.2419 26.9927 51.3025 26.9321 51.3631 26.9321C51.4237 26.9321 51.5449 26.9927 51.5449 27.0533V27.3563C51.7873 27.1139 52.0902 26.9321 52.5144 26.9321C52.9991 26.9321 53.4232 27.1745 53.605 27.5986C53.8474 27.2351 54.2715 26.9321 54.6957 26.9321C55.3622 26.9321 55.9681 27.4775 55.9681 28.2045V29.9011C55.9681 29.9617 55.9075 30.0223 55.7863 30.0223C55.7257 30.0223 55.6651 29.9617 55.6651 29.9011V28.2045H55.5439Z" fill="#263238"/>
<path d="M56.877 28.447C56.877 27.5987 57.5435 26.8716 58.3917 26.8716C59.1794 26.8716 59.8459 27.4775 59.9065 28.3258C59.9065 28.3864 59.8459 28.447 59.7247 28.447H57.1799C57.2405 29.1135 57.7252 29.6588 58.3917 29.6588C58.8159 29.6588 59.1794 29.4164 59.3612 29.1135C59.4218 29.0529 59.4824 29.0529 59.543 29.0529C59.6035 29.1135 59.6641 29.1741 59.6036 29.2952C59.3612 29.7194 58.8765 30.0223 58.3311 30.0223C57.5435 30.0223 56.877 29.2952 56.877 28.447ZM57.2405 28.2046H59.6036C59.4824 27.5987 58.9976 27.1745 58.4523 27.1745C57.8464 27.2351 57.3617 27.6593 57.2405 28.2046Z" fill="#263238"/>
<path d="M63.1785 28.2045C63.1785 27.6592 62.7543 27.2351 62.209 27.2351C61.6637 27.2351 61.2395 27.6592 61.2395 28.2045V29.9011C61.2395 29.9011 61.2395 29.9617 61.1789 29.9617C61.1789 30.0223 61.1183 30.0223 61.0578 30.0223H60.9972C60.9366 30.0223 60.9366 29.9617 60.876 29.9617V29.9011V28.2045V28.144V27.1139C60.876 27.0533 60.9366 26.9321 61.0578 26.9321C61.1183 26.9321 61.1789 26.9927 61.1789 27.1139V27.4169C61.4213 27.1745 61.7243 26.9927 62.1484 26.9927C62.8149 26.9927 63.4208 27.538 63.4208 28.2651V29.9617C63.4208 30.0223 63.3602 30.1435 63.239 30.1435C63.1785 30.1435 63.1179 30.0829 63.1179 29.9617V28.2045H63.1785Z" fill="#263238"/>
<path d="M65.9657 27.0533C65.9657 27.1139 65.9051 27.2351 65.784 27.2351H65.3598V29.477C65.3598 29.6587 65.5416 29.7193 65.6022 29.7193C65.6628 29.7193 65.784 29.7799 65.784 29.9011C65.784 29.9617 65.7234 30.0829 65.6022 30.0829C65.2992 30.0829 65.0569 29.8405 65.0569 29.5376V27.2957H64.6933C64.5721 27.2957 64.5721 27.2351 64.5721 27.1139C64.5721 27.0533 64.5721 26.9321 64.6933 26.9321H65.0569V25.7809C65.0569 25.7203 65.1175 25.5991 65.178 25.5991C65.2386 25.5991 65.3598 25.6597 65.3598 25.7809V26.9321H65.784C65.8445 26.9321 65.9657 26.9927 65.9657 27.0533Z" fill="#263238"/>
<path d="M69.5405 30.0223C69.4194 30.0223 69.3588 29.9617 69.3588 29.8406V25.7204C69.3588 25.6598 69.4194 25.5386 69.5405 25.5386H70.3282C71.5401 25.5386 72.5701 26.508 72.5701 27.7805C72.5701 28.9923 71.6007 29.9617 70.3282 29.9617H69.5405V30.0223ZM70.3282 29.7194C71.3583 29.7194 72.2066 28.8711 72.2066 27.841C72.2066 26.811 71.3583 25.9627 70.3282 25.9021H69.6617V29.7194H70.3282Z" fill="#263238"/>
<path d="M75.8421 27.0534V29.8407C75.8421 29.9012 75.7815 30.0224 75.7209 30.0224C75.6603 30.0224 75.5392 29.9618 75.5392 29.8407V29.3559C75.2968 29.7195 74.8726 29.9618 74.3879 29.9618C73.6002 29.9618 72.9337 29.2347 72.9337 28.3865C72.9337 27.5382 73.6002 26.8111 74.3879 26.8111C74.8726 26.8111 75.2968 27.0534 75.5392 27.417V26.9323C75.5392 26.8717 75.5997 26.7505 75.7209 26.7505C75.7815 26.9323 75.8421 26.9929 75.8421 27.0534ZM75.5392 28.447C75.5392 27.7805 74.9938 27.1746 74.3879 27.1746C73.782 27.1746 73.2367 27.72 73.2367 28.447C73.2367 29.1136 73.782 29.7195 74.3879 29.7195C75.0544 29.7195 75.5392 29.1741 75.5392 28.447Z" fill="#263238"/>
<path d="M78.2657 27.0533C78.2657 27.1139 78.2051 27.2351 78.0839 27.2351H77.6598V29.477C77.6598 29.6587 77.8415 29.7193 77.9021 29.7193C77.9627 29.7193 78.0839 29.7799 78.0839 29.9011C78.0839 29.9617 78.0233 30.0829 77.9021 30.0829C77.5992 30.0829 77.3568 29.8405 77.3568 29.5376V27.2957H76.9933C76.8721 27.2957 76.8721 27.2351 76.8721 27.1139C76.8721 27.0533 76.8721 26.9321 76.9933 26.9321H77.3568V25.7809C77.3568 25.7203 77.4174 25.5991 77.478 25.5991C77.5386 25.5991 77.6598 25.6597 77.6598 25.7809V26.9321H78.0839C78.2051 26.9321 78.2657 26.9927 78.2657 27.0533Z" fill="#263238"/>
<path d="M82.1435 27.0534V29.8407C82.1435 29.9012 82.0829 30.0224 81.9617 30.0224C81.9011 30.0224 81.8405 29.9618 81.8405 29.8407V29.3559C81.5982 29.7195 81.174 29.9618 80.6893 29.9618C79.9016 29.9618 79.2351 29.2347 79.2351 28.3865C79.2351 27.5382 79.9016 26.8111 80.6893 26.8111C81.174 26.8111 81.5982 27.0534 81.8405 27.417V26.9323C81.8405 26.8717 81.9011 26.7505 81.9617 26.7505C82.0829 26.9323 82.1435 26.9929 82.1435 27.0534ZM81.8405 28.447C81.8405 27.7805 81.2952 27.1746 80.6893 27.1746C80.0834 27.1746 79.5381 27.72 79.5381 28.447C79.5381 29.1136 80.0834 29.7195 80.6893 29.7195C81.2952 29.7195 81.8405 29.1741 81.8405 28.447Z" fill="#263238"/>
<path d="M21.0068 29.5981L18.8861 27.6591L21.0068 25.7202L21.4309 26.1444L19.8556 27.6591L21.4309 29.1739L21.0068 29.5981Z" fill="#4A56E2"/>
<path d="M20.6432 31.0524C18.7649 31.0524 17.2501 29.5376 17.2501 27.6592C17.2501 25.7809 18.7649 24.2661 20.6432 24.2661C22.5216 24.2661 24.0364 25.7809 24.0364 27.6592C24.0364 29.5376 22.5216 31.0524 20.6432 31.0524ZM20.6432 24.872C19.1285 24.872 17.856 26.0839 17.856 27.6592C17.856 29.174 19.0679 30.4464 20.6432 30.4464C22.158 30.4464 23.4304 29.2346 23.4304 27.6592C23.4304 26.1444 22.158 24.872 20.6432 24.872Z" fill="#4A56E2"/>
<path d="M101.29 146.358C105.072 146.358 108.137 143.292 108.137 139.511C108.137 135.729 105.072 132.664 101.29 132.664C97.509 132.664 94.4436 135.729 94.4436 139.511C94.4436 143.292 97.509 146.358 101.29 146.358Z" fill="#FFC727"/>
<path d="M99.2909 143.873L96.7461 139.935L97.8367 139.208L99.4121 141.753L104.441 135.451L105.411 136.239L99.2909 143.873Z" fill="white"/>
<path d="M62.9359 146.661C62.9359 147.751 62.0271 148.66 60.9364 148.66C59.8458 148.66 58.9369 147.751 58.9369 146.661C58.9369 145.57 59.8458 144.661 60.9364 144.661C62.0271 144.661 62.9359 145.57 62.9359 146.661Z" fill="#4A56E2"/>
<path d="M51.6659 146.661C51.6659 147.448 50.9994 148.115 50.2118 148.115C49.4241 148.115 48.7576 147.448 48.7576 146.661C48.7576 145.873 49.4241 145.207 50.2118 145.207C50.9994 145.207 51.6659 145.873 51.6659 146.661Z" fill="#EBEBEB"/>
<path d="M73.1758 146.661C73.1758 147.448 72.5093 148.115 71.7217 148.115C70.934 148.115 70.2675 147.448 70.2675 146.661C70.2675 145.873 70.934 145.207 71.7217 145.207C72.5093 145.207 73.1758 145.873 73.1758 146.661Z" fill="#EBEBEB"/>
<path d="M18.0378 160.718C18.0984 160.657 18.159 160.657 18.2196 160.718C18.5226 160.96 19.1285 161.324 19.6738 161.263C20.0374 161.263 20.4009 161.142 20.6433 160.96C20.8856 160.779 21.0068 160.536 21.0068 160.294C21.0068 160.052 20.8856 159.87 20.6433 159.688C20.4009 159.506 20.0374 159.385 19.6132 159.324C19.1891 159.264 18.8255 159.143 18.5832 158.961C18.3408 158.779 18.0984 158.537 18.0984 158.173C18.0984 157.81 18.2802 157.567 18.5832 157.325C18.8861 157.143 19.2497 157.022 19.6738 157.022C20.2797 157.022 20.7039 157.325 21.0674 157.507C21.128 157.567 21.128 157.628 21.128 157.688C21.0674 157.749 21.0068 157.749 20.9462 157.749C20.5827 157.507 20.2191 157.264 19.7344 157.264C19.3709 157.264 19.0679 157.386 18.8255 157.507C18.5832 157.688 18.462 157.87 18.462 158.113C18.462 158.355 18.5832 158.476 18.7649 158.658C19.0073 158.84 19.3103 158.9 19.7344 159.021C20.1585 159.082 20.5827 159.203 20.8856 159.446C21.1886 159.627 21.3704 159.93 21.3704 160.294C21.3704 160.657 21.1886 160.96 20.8856 161.203C20.5827 161.445 20.2191 161.566 19.7344 161.566C19.0679 161.566 18.462 161.203 18.0984 160.9C17.9773 160.9 17.9773 160.779 18.0378 160.718Z" fill="#263238"/>
<path d="M25.0058 158.658V161.445C25.0058 161.506 24.9452 161.627 24.8241 161.627C24.7635 161.627 24.6423 161.566 24.6423 161.445V160.96C24.3999 161.324 23.9758 161.566 23.4911 161.566C22.7034 161.566 22.0369 160.839 22.0369 159.991C22.0369 159.143 22.7034 158.416 23.4911 158.416C23.9758 158.416 24.3999 158.658 24.6423 159.021V158.537C24.6423 158.476 24.7029 158.355 24.8241 158.355C24.8847 158.476 25.0058 158.537 25.0058 158.658ZM24.7029 160.052C24.7029 159.385 24.1576 158.779 23.5516 158.779C22.9457 158.779 22.4004 159.324 22.4004 160.052C22.4004 160.718 22.9457 161.324 23.5516 161.324C24.1576 161.263 24.7029 160.718 24.7029 160.052Z" fill="#263238"/>
<path d="M27.1871 161.566L27.1265 161.506L25.9753 158.719C25.9147 158.658 25.9753 158.537 26.0359 158.537C26.0965 158.476 26.2177 158.537 26.2177 158.597L27.2477 161.021L28.2778 158.597C28.2778 158.537 28.399 158.476 28.4595 158.537C28.5201 158.597 28.5807 158.658 28.5201 158.719L27.3689 161.445C27.3689 161.445 27.3689 161.506 27.3083 161.506C27.3083 161.566 27.2477 161.566 27.1871 161.566C27.2477 161.566 27.2477 161.566 27.1871 161.566Z" fill="#263238"/>
<path d="M29.429 160.051C29.429 159.203 30.0955 158.476 30.9437 158.476C31.7314 158.476 32.3979 159.082 32.4585 159.93C32.4585 159.991 32.3979 160.051 32.2767 160.051H29.7319C29.7925 160.718 30.2772 161.263 30.9437 161.263C31.3679 161.263 31.7314 161.021 31.9132 160.718C31.9738 160.657 32.0344 160.657 32.095 160.657C32.1556 160.718 32.2162 160.779 32.1556 160.9C31.9132 161.324 31.4285 161.627 30.8831 161.627C30.0955 161.566 29.429 160.9 29.429 160.051ZM29.7925 159.809H32.1556C32.0344 159.203 31.5497 158.779 31.0043 158.779C30.3378 158.779 29.8531 159.203 29.7925 159.809Z" fill="#263238"/>
<path d="M35.1852 159.991C35.1852 159.143 35.9123 158.476 36.7606 158.476C37.1241 158.476 37.4877 158.597 37.73 158.84C37.7906 158.9 37.7906 158.961 37.73 159.021C37.6694 159.082 37.6088 159.082 37.5482 159.021C37.3059 158.84 37.0635 158.718 36.7606 158.718C36.0335 158.718 35.4881 159.264 35.4881 159.991C35.4881 160.657 36.0335 161.263 36.7606 161.263C37.0635 161.263 37.3665 161.142 37.5482 161.021C37.6088 160.96 37.73 160.96 37.73 161.021C37.7906 161.082 37.7906 161.203 37.6694 161.263C37.4271 161.445 37.0635 161.566 36.7 161.566C35.9123 161.566 35.1852 160.9 35.1852 159.991Z" fill="#263238"/>
<path d="M41.6079 158.658V161.445C41.6079 161.506 41.5473 161.627 41.4261 161.627C41.3655 161.627 41.2444 161.566 41.2444 161.445V160.96C41.002 161.324 40.5778 161.566 40.0931 161.566C39.3054 161.566 38.6389 160.839 38.6389 159.991C38.6389 159.143 39.3054 158.416 40.0931 158.416C40.5778 158.416 41.002 158.658 41.2444 159.021V158.537C41.2444 158.476 41.3049 158.355 41.4261 158.355C41.5473 158.476 41.6079 158.537 41.6079 158.658ZM41.3049 160.052C41.3049 159.385 40.7596 158.779 40.1537 158.779C39.5478 158.779 39.0025 159.324 39.0025 160.052C39.0025 160.718 39.5478 161.324 40.1537 161.324C40.8202 161.263 41.3049 160.718 41.3049 160.052Z" fill="#263238"/>
<path d="M42.9409 158.658C42.9409 158.597 43.0015 158.476 43.1227 158.476C43.1833 158.476 43.2439 158.537 43.2439 158.658V159.324C43.2439 159.324 43.2439 159.264 43.3045 159.264C43.5468 158.9 43.971 158.476 44.5163 158.476C44.5769 158.476 44.6981 158.537 44.6981 158.658C44.6981 158.718 44.6375 158.779 44.5163 158.779C44.0922 158.779 43.8498 159.021 43.6074 159.264C43.4256 159.567 43.3045 159.87 43.2439 159.991V160.051V161.384C43.2439 161.445 43.1833 161.566 43.1227 161.566C43.0621 161.566 42.9409 161.506 42.9409 161.384V158.658Z" fill="#263238"/>
<path d="M48.0306 160.96C47.7882 161.324 47.3035 161.566 46.8187 161.566C45.9705 161.566 45.304 160.9 45.304 160.051C45.304 159.203 45.9705 158.476 46.8187 158.476C47.3035 158.476 47.7276 158.718 48.0306 159.082V157.325C48.0306 157.264 48.0911 157.204 48.2123 157.204C48.2729 157.204 48.3941 157.264 48.3941 157.325V159.991V160.051V161.445C48.3941 161.506 48.3335 161.627 48.2123 161.627C48.1517 161.627 48.0306 161.566 48.0306 161.445V160.96ZM48.0306 160.112V159.991C48.0306 159.324 47.4852 158.779 46.8187 158.779C46.1522 158.779 45.6069 159.324 45.6069 160.051C45.6069 160.718 46.1522 161.263 46.8187 161.263C47.4852 161.263 48.0306 160.718 48.0306 160.112Z" fill="#263238"/>
<path d="M53.8474 159.749C53.8474 159.203 53.4233 158.779 52.8779 158.779C52.3326 158.779 51.9085 159.203 51.9085 159.749V161.445C51.9085 161.445 51.9085 161.506 51.8479 161.506C51.8479 161.566 51.7873 161.566 51.7267 161.566H51.6661C51.6055 161.566 51.6055 161.506 51.5449 161.506V161.445V159.749V159.688V158.658C51.5449 158.597 51.6055 158.476 51.7267 158.476C51.7873 158.476 51.8479 158.537 51.8479 158.658V158.961C52.0902 158.718 52.3932 158.537 52.8173 158.537C53.4839 158.537 54.0898 159.082 54.0898 159.809V161.506C54.0898 161.566 54.0292 161.687 53.908 161.687C53.8474 161.687 53.7262 161.627 53.7262 161.506V159.749H53.8474Z" fill="#263238"/>
<path d="M55.4833 158.597C55.4833 158.537 55.5439 158.476 55.6651 158.476C55.7256 158.476 55.8468 158.537 55.8468 158.597V160.294C55.8468 160.839 56.271 161.263 56.8163 161.263C57.3616 161.263 57.7858 160.839 57.7858 160.294V158.597C57.7858 158.537 57.8464 158.476 57.9675 158.476C58.0281 158.476 58.1493 158.537 58.1493 158.597V160.294C58.1493 160.96 57.604 161.566 56.8769 161.566C56.2104 161.566 55.6045 161.021 55.6045 160.294V158.597H55.4833Z" fill="#263238"/>
<path d="M63.845 159.749C63.845 159.203 63.4208 158.779 62.8755 158.779C62.3302 158.779 61.906 159.203 61.906 159.749V161.445C61.906 161.506 61.8454 161.506 61.8454 161.506H61.7849C61.7849 161.506 61.7849 161.506 61.7243 161.506V159.809C61.7243 159.264 61.3001 158.84 60.7548 158.84C60.2095 158.84 59.7853 159.264 59.7853 159.809V161.506C59.7853 161.566 59.7853 161.627 59.7247 161.627C59.7247 161.627 59.7247 161.627 59.6641 161.627C59.6036 161.627 59.543 161.566 59.543 161.506V161.445V159.749V159.688V158.597C59.543 158.537 59.6036 158.476 59.6641 158.476C59.7247 158.476 59.8459 158.537 59.8459 158.597V158.9C60.0883 158.658 60.3913 158.476 60.8154 158.476C61.3001 158.476 61.7243 158.718 61.906 159.143C62.1484 158.779 62.5725 158.476 62.9967 158.476C63.6632 158.476 64.2691 159.021 64.2691 159.749V161.445C64.2691 161.506 64.2085 161.566 64.0873 161.566C64.0267 161.566 63.9661 161.506 63.9661 161.445V159.749H63.845Z" fill="#263238"/>
<path d="M65.4203 160.112V160.051V159.991V157.325C65.4203 157.264 65.4809 157.204 65.5415 157.204C65.6021 157.204 65.7232 157.264 65.7232 157.325V159.082C65.9656 158.718 66.4503 158.476 66.9351 158.476C67.7834 158.476 68.4499 159.143 68.4499 160.051C68.4499 160.9 67.7834 161.566 66.9351 161.566C66.4503 161.566 66.0262 161.324 65.7232 160.96V161.384C65.7232 161.445 65.6627 161.566 65.5415 161.566C65.4809 161.566 65.4203 161.506 65.4203 161.384V160.112ZM65.7232 160.051C65.7232 160.718 66.2686 161.263 66.9351 161.263C67.6016 161.263 68.1469 160.718 68.1469 160.051C68.1469 159.385 67.6016 158.779 66.9351 158.779C66.2686 158.779 65.7838 159.324 65.7232 160.051Z" fill="#263238"/>
<path d="M69.3588 160.051C69.3588 159.203 70.0253 158.476 70.8736 158.476C71.6612 158.476 72.3277 159.082 72.3883 159.93C72.3883 159.991 72.3278 160.051 72.2066 160.051H69.6617C69.7223 160.718 70.207 161.263 70.8736 161.263C71.2977 161.263 71.6612 161.021 71.843 160.718C71.9036 160.657 71.9642 160.657 72.0248 160.657C72.0854 160.718 72.146 160.779 72.0854 160.9C71.843 161.324 71.3583 161.627 70.813 161.627C70.0253 161.566 69.3588 160.9 69.3588 160.051ZM69.7223 159.809H72.0854C71.9642 159.203 71.4795 158.779 70.9341 158.779C70.3282 158.779 69.8435 159.203 69.7223 159.809Z" fill="#263238"/>
<path d="M73.2972 158.658C73.2972 158.597 73.3578 158.476 73.479 158.476C73.5396 158.476 73.6002 158.537 73.6002 158.658V159.324C73.6002 159.324 73.6002 159.264 73.6608 159.264C73.9032 158.9 74.3273 158.476 74.8726 158.476C74.9332 158.476 74.9938 158.537 74.9938 158.658C74.9938 158.718 74.9332 158.779 74.8726 158.779C74.4485 158.779 74.2061 159.021 73.9638 159.264C73.782 159.567 73.6608 159.87 73.6002 159.991V160.051V161.384C73.6002 161.445 73.5396 161.566 73.479 161.566C73.4184 161.566 73.2972 161.506 73.2972 161.384V158.658Z" fill="#263238"/>
<path opacity="0.5" d="M99.9574 162.717H91.4746C89.778 162.717 88.3239 161.324 88.3239 159.567V159.264C88.3239 157.567 89.7174 156.113 91.4746 156.113H99.9574C101.654 156.113 103.108 157.507 103.108 159.264V159.567C103.048 161.324 101.654 162.717 99.9574 162.717Z" fill="#4A56E2"/>
<path d="M102.502 159.446C102.502 160.96 101.29 162.233 99.7151 162.233C98.2003 162.233 96.9279 161.021 96.9279 159.446C96.9279 157.931 98.1397 156.658 99.7151 156.658C101.29 156.658 102.502 157.931 102.502 159.446Z" fill="#4A56E2"/>
<path d="M90.443 177.986H31.4299C28.1162 177.986 25.4299 180.673 25.4299 183.986V185.619C25.4299 188.933 28.1162 191.619 31.4299 191.619H90.443C93.7567 191.619 96.443 188.933 96.443 185.619V183.986C96.443 180.673 93.7567 177.986 90.443 177.986Z" fill="#24CCA7"/>
<path d="M31.5496 182.228C31.5496 182.167 31.6102 182.046 31.7314 182.046H32.9432C33.6097 182.046 34.2156 182.591 34.2156 183.318C34.2156 184.045 33.6703 184.591 32.9432 184.591H31.8526V186.348C31.8526 186.408 31.792 186.469 31.6708 186.469C31.6102 186.469 31.489 186.408 31.489 186.348V182.228H31.5496ZM32.9432 184.288C33.4885 184.288 33.9127 183.864 33.9127 183.318C33.9127 182.773 33.4885 182.349 32.9432 182.349H31.8526V184.288H32.9432Z" fill="white"/>
<path d="M35.1851 183.561C35.1851 183.5 35.2457 183.44 35.3668 183.44C35.4274 183.44 35.488 183.5 35.488 183.561V184.227C35.488 184.227 35.488 184.167 35.5486 184.167C35.791 183.803 36.2151 183.379 36.7604 183.379C36.821 183.379 36.9422 183.439 36.9422 183.5C36.9422 183.561 36.8816 183.682 36.7604 183.682C36.3363 183.682 36.0939 183.924 35.8516 184.167C35.6698 184.47 35.5486 184.773 35.488 184.894V184.954V186.287C35.488 186.348 35.4274 186.408 35.3668 186.408C35.3062 186.408 35.1851 186.348 35.1851 186.287V183.561Z" fill="white"/>
<path d="M39.1235 183.379C39.9112 183.379 40.5777 184.106 40.5777 184.954C40.5777 185.803 39.9112 186.53 39.1235 186.53C38.3359 186.53 37.6694 185.803 37.6694 184.954C37.6088 184.106 38.2753 183.379 39.1235 183.379ZM39.1235 186.166C39.7295 186.166 40.2748 185.621 40.2748 184.894C40.2748 184.227 39.7295 183.621 39.1235 183.621C38.5176 183.621 37.9723 184.167 37.9723 184.894C37.9723 185.621 38.457 186.166 39.1235 186.166Z" fill="white"/>
<path d="M41.5471 184.954C41.5471 184.106 42.2742 183.439 43.1225 183.439C43.4861 183.439 43.8496 183.561 44.092 183.803C44.1526 183.864 44.1526 183.924 44.092 183.985C44.0314 184.045 43.9708 184.045 43.9102 183.985C43.6678 183.803 43.4255 183.682 43.1225 183.682C42.3954 183.682 41.8501 184.227 41.8501 184.954C41.8501 185.621 42.3954 186.227 43.1225 186.227C43.4255 186.227 43.7284 186.105 43.9102 185.984C43.9708 185.924 44.092 185.924 44.092 185.984C44.1526 186.045 44.1526 186.166 44.0314 186.227C43.789 186.408 43.4255 186.53 43.0619 186.53C42.2136 186.469 41.5471 185.803 41.5471 184.954Z" fill="white"/>
<path d="M45.0615 184.954C45.0615 184.106 45.728 183.379 46.5763 183.379C47.364 183.379 48.0305 183.985 48.0911 184.833C48.0911 184.894 48.0305 184.954 47.9093 184.954H45.3645C45.4251 185.621 45.9098 186.166 46.5763 186.166C47.0004 186.166 47.364 185.924 47.5458 185.621C47.6064 185.56 47.667 185.56 47.7275 185.56C47.7881 185.621 47.8487 185.681 47.7881 185.803C47.5458 186.227 47.061 186.53 46.5157 186.53C45.728 186.469 45.0615 185.803 45.0615 184.954ZM45.3645 184.712H47.7275C47.6064 184.106 47.1216 183.682 46.5763 183.682C45.9704 183.682 45.4857 184.106 45.3645 184.712Z" fill="white"/>
<path d="M48.8788 184.954C48.8788 184.106 49.5453 183.379 50.3936 183.379C51.1812 183.379 51.8477 183.985 51.9083 184.833C51.9083 184.894 51.8477 184.954 51.7266 184.954H49.1817C49.2423 185.621 49.7271 186.166 50.3936 186.166C50.8177 186.166 51.1812 185.924 51.363 185.621C51.4236 185.56 51.4842 185.56 51.5448 185.56C51.6054 185.621 51.666 185.681 51.6054 185.803C51.363 186.227 50.8783 186.53 50.333 186.53C49.5453 186.469 48.8788 185.803 48.8788 184.954ZM49.2423 184.712H51.6054C51.4842 184.106 50.9995 183.682 50.4541 183.682C49.7876 183.682 49.3029 184.106 49.2423 184.712Z" fill="white"/>
<path d="M55.4225 185.863C55.1802 186.227 54.6954 186.469 54.2107 186.469C53.3624 186.469 52.6959 185.803 52.6959 184.954C52.6959 184.106 53.3624 183.379 54.2107 183.379C54.6954 183.379 55.1196 183.621 55.4225 183.985V182.228C55.4225 182.167 55.4831 182.046 55.6043 182.046C55.6649 182.046 55.7861 182.107 55.7861 182.228V184.894V184.954V186.348C55.7861 186.408 55.7255 186.469 55.6043 186.469C55.5437 186.469 55.4225 186.408 55.4225 186.348V185.863ZM55.4225 185.015V184.894C55.4225 184.227 54.8772 183.682 54.2107 183.682C53.5442 183.682 52.9989 184.227 52.9989 184.954C52.9989 185.621 53.5442 186.166 54.2107 186.166C54.8772 186.166 55.4225 185.621 55.4225 185.015Z" fill="white"/>
<path d="M60.1488 183.561C60.1488 183.621 60.0882 183.742 59.967 183.742H59.5429V185.984C59.5429 186.166 59.7246 186.227 59.7852 186.227C59.8458 186.227 59.967 186.287 59.967 186.408C59.967 186.469 59.9064 186.53 59.7852 186.53C59.4823 186.53 59.2399 186.287 59.2399 185.984V183.742H58.8764C58.6946 183.742 58.6946 183.682 58.6946 183.561C58.6946 183.5 58.6946 183.379 58.8764 183.379H59.2399V182.228C59.2399 182.167 59.3005 182.046 59.4217 182.046C59.4823 182.046 59.6035 182.107 59.6035 182.228V183.379H60.0276C60.0276 183.379 60.1488 183.439 60.1488 183.561Z" fill="white"/>
<path d="M62.8147 183.379C63.6024 183.379 64.2689 184.106 64.2689 184.954C64.2689 185.803 63.6024 186.53 62.8147 186.53C62.027 186.53 61.3605 185.803 61.3605 184.954C61.3605 184.106 61.9664 183.379 62.8147 183.379ZM62.8147 186.166C63.4206 186.166 63.9659 185.621 63.9659 184.894C63.9659 184.227 63.4206 183.621 62.8147 183.621C62.2088 183.621 61.6634 184.167 61.6634 184.894C61.6634 185.621 62.1482 186.166 62.8147 186.166Z" fill="white"/>
<path d="M67.1167 184.954C67.1167 184.106 67.8438 183.439 68.6921 183.439C69.0556 183.439 69.4192 183.561 69.6615 183.803C69.7221 183.864 69.7221 183.924 69.6615 183.985C69.601 184.045 69.5404 184.045 69.4798 183.985C69.2374 183.803 68.995 183.682 68.6921 183.682C67.965 183.682 67.4197 184.227 67.4197 184.954C67.4197 185.621 67.965 186.227 68.6921 186.227C68.995 186.227 69.298 186.105 69.4798 185.984C69.5404 185.924 69.6615 185.924 69.6615 185.984C69.7221 186.045 69.7221 186.166 69.601 186.227C69.3586 186.408 68.995 186.53 68.6315 186.53C67.8438 186.469 67.1167 185.803 67.1167 184.954Z" fill="white"/>
<path d="M72.1458 183.379C72.9335 183.379 73.6 184.106 73.6 184.954C73.6 185.803 72.9335 186.53 72.1458 186.53C71.3581 186.53 70.6917 185.803 70.6917 184.954C70.6917 184.106 71.3581 183.379 72.1458 183.379ZM72.1458 186.166C72.7517 186.166 73.2971 185.621 73.2971 184.894C73.2971 184.227 72.7517 183.621 72.1458 183.621C71.5399 183.621 70.9946 184.167 70.9946 184.894C70.9946 185.621 71.5399 186.166 72.1458 186.166Z" fill="white"/>
<path d="M76.9931 184.651C76.9931 184.106 76.569 183.682 76.0237 183.682C75.4784 183.682 75.0542 184.106 75.0542 184.651V186.348C75.0542 186.348 75.0542 186.408 74.9936 186.408C74.9936 186.469 74.933 186.469 74.8724 186.469H74.8119C74.7513 186.469 74.7513 186.408 74.6907 186.408V186.348V184.651V184.591V183.561C74.6907 183.5 74.7513 183.439 74.8119 183.439C74.8724 183.439 74.933 183.5 74.933 183.561V183.864C75.1754 183.621 75.4784 183.439 75.9025 183.439C76.569 183.439 77.1749 183.985 77.1749 184.712V186.408C77.1749 186.469 77.1143 186.53 76.9931 186.53C76.9325 186.53 76.872 186.469 76.872 186.408V184.651H76.9931Z" fill="white"/>
<path d="M80.0228 182.228C80.0228 182.288 79.9622 182.409 79.9016 182.409C79.6592 182.409 79.5986 182.47 79.538 182.531C79.4775 182.591 79.4169 182.773 79.4169 183.015V183.318H79.841C79.9016 183.318 80.0228 183.379 80.0228 183.44C80.0228 183.5 79.9622 183.621 79.841 183.621H79.4169V186.287C79.4169 186.348 79.3563 186.408 79.2351 186.408C79.1745 186.408 79.0533 186.348 79.0533 186.287V183.621H78.6292C78.5686 183.621 78.4474 183.561 78.4474 183.44C78.4474 183.379 78.508 183.318 78.6292 183.318H79.0533V183.015C79.0533 182.712 79.1139 182.47 79.2351 182.288C79.3563 182.106 79.5986 182.046 79.841 182.046C79.9622 182.046 80.0228 182.107 80.0228 182.228Z" fill="white"/>
<path d="M80.9922 182.531C80.9922 182.47 81.0528 182.349 81.1739 182.349C81.2345 182.349 81.3557 182.409 81.3557 182.531V182.652C81.3557 182.712 81.2951 182.834 81.1739 182.834C81.1134 182.834 80.9922 182.773 80.9922 182.652V182.531ZM80.9922 183.561C80.9922 183.5 81.0528 183.379 81.1739 183.379C81.2345 183.379 81.3557 183.44 81.3557 183.561V186.348C81.3557 186.409 81.2951 186.469 81.1739 186.469C81.1134 186.469 80.9922 186.409 80.9922 186.348V183.561Z" fill="white"/>
<path d="M82.7493 183.561C82.7493 183.5 82.8099 183.44 82.931 183.44C82.9916 183.44 83.0522 183.5 83.0522 183.561V184.227C83.0522 184.227 83.0522 184.167 83.1128 184.167C83.3552 183.803 83.7793 183.379 84.3246 183.379C84.3852 183.379 84.4458 183.439 84.4458 183.5C84.4458 183.561 84.3852 183.682 84.3246 183.682C83.9005 183.682 83.6581 183.924 83.4158 184.167C83.234 184.47 83.1128 184.773 83.0522 184.894V184.954V186.287C83.0522 186.348 82.9916 186.408 82.931 186.408C82.8704 186.408 82.7493 186.348 82.7493 186.287V183.561Z" fill="white"/>
<path d="M89.9597 184.651C89.9597 184.106 89.5355 183.682 88.9902 183.682C88.4449 183.682 88.0208 184.106 88.0208 184.651V186.348C88.0208 186.408 87.9602 186.408 87.9602 186.408H87.8996C87.8996 186.408 87.8996 186.408 87.839 186.408V184.712C87.839 184.167 87.4149 183.742 86.8695 183.742C86.3242 183.742 85.9001 184.167 85.9001 184.712V186.408C85.9001 186.469 85.9001 186.53 85.8395 186.53C85.8395 186.53 85.8395 186.53 85.7789 186.53C85.7183 186.53 85.6577 186.469 85.6577 186.408V186.348V184.651V184.591V183.5C85.6577 183.439 85.7183 183.379 85.7789 183.379C85.8395 183.379 85.9607 183.439 85.9607 183.5V183.803C86.203 183.561 86.506 183.379 86.9301 183.379C87.4149 183.379 87.839 183.621 88.0208 184.045C88.2631 183.682 88.6873 183.379 89.1114 183.379C89.7779 183.379 90.3838 183.924 90.3838 184.651V186.348C90.3838 186.408 90.3232 186.469 90.2021 186.469C90.1415 186.469 90.0809 186.408 90.0809 186.348V184.651H89.9597Z" fill="white"/>
</svg>
