<svg xmlns="http://www.w3.org/2000/svg" width="156" height="215" viewBox="0 0 156 215" fill="none">
  <path d="M84.8297 208.286C86.1453 208.703 123.223 208.226 124.598 207.333C125.137 206.975 125.376 201.611 125.495 195.056C125.495 194.996 125.495 194.937 125.495 194.877C125.495 193.507 125.555 192.136 125.555 190.765C125.555 190.586 125.555 190.408 125.555 190.169C125.615 180.753 125.436 170.98 125.436 170.98L100.618 171.218L101.335 190.229V191.004L101.515 194.937V195.354C101.515 195.354 87.4012 201.85 85.9659 203.042C84.5905 204.114 83.514 207.869 84.8297 208.286Z" fill="#F7A9A0"/>
  <path d="M84.8297 208.286C86.1453 208.703 123.223 208.227 124.598 207.333C125.137 206.975 125.376 201.612 125.496 195.056C125.496 194.996 125.496 194.937 125.496 194.877C125.496 193.507 125.555 192.136 125.555 190.765C125.555 190.586 125.555 190.408 125.555 190.169L101.395 190.229V191.004L101.574 194.937V195.354C101.574 195.354 87.461 201.85 86.0257 203.042C84.5905 204.114 83.514 207.869 84.8297 208.286Z" fill="#EBEBEB"/>
  <path d="M84.8297 208.286C85.6072 208.524 100.02 208.465 111.263 208.167C118.259 207.988 124.12 207.69 124.658 207.333C125.197 206.975 125.436 201.731 125.555 195.354C125.555 195.235 125.555 195.175 125.555 195.056C125.555 194.996 125.555 194.937 125.555 194.818L101.634 194.877V195.294C101.634 195.294 87.5209 201.79 86.0856 202.982C84.5905 204.114 83.5141 207.869 84.8297 208.286Z" fill="#FFC727"/>
  <path d="M85.1886 206.856C91.4679 206.617 116.645 206.26 122.864 206.498C122.924 206.498 122.924 206.558 122.864 206.558C116.645 206.915 91.4679 207.094 85.1886 206.975C85.069 206.915 85.069 206.856 85.1886 206.856Z" fill="#263238"/>
  <path d="M98.8833 194.996C101.335 194.52 104.325 194.818 106.239 196.546C106.299 196.605 106.239 196.725 106.119 196.665C103.668 195.95 101.395 195.473 98.8833 195.235C98.7039 195.294 98.7039 194.996 98.8833 194.996Z" fill="#263238"/>
  <path d="M97.1491 196.069C99.601 195.592 102.591 195.89 104.505 197.619C104.565 197.678 104.505 197.797 104.385 197.738C101.933 197.023 99.6608 196.546 97.1491 196.308C96.9697 196.367 96.9697 196.129 97.1491 196.069Z" fill="#263238"/>
  <path d="M95.3551 197.142C97.807 196.665 100.797 196.963 102.711 198.691C102.771 198.751 102.711 198.87 102.591 198.81C100.139 198.095 97.8668 197.619 95.3551 197.38C95.2354 197.44 95.1756 197.201 95.3551 197.142Z" fill="#263238"/>
  <path d="M96.7903 193.149C98.5246 194.46 100.797 194.996 102.89 195.712C103.129 195.771 103.249 195.592 103.249 195.414C103.309 195.414 103.309 195.354 103.309 195.354C102.591 193.328 101.156 191.182 99.4217 189.812C98.405 188.977 96.5511 188.381 95.6541 189.752C94.7571 190.944 95.7737 192.374 96.7903 193.149ZM96.1325 191.182C95.6541 188.501 98.5844 189.871 99.3021 190.527C99.7805 190.944 100.199 191.421 100.618 191.898C101.455 192.911 102.173 194.043 102.95 195.116C101.993 194.698 100.977 194.341 99.9599 193.983C98.7638 193.566 96.3717 192.672 96.1325 191.182Z" fill="#263238"/>
  <path d="M111.442 191.48C110.844 189.931 108.93 190.11 107.734 190.706C105.761 191.659 103.847 193.387 102.711 195.235C102.711 195.294 102.711 195.294 102.771 195.354C102.711 195.533 102.83 195.771 103.07 195.771C105.223 195.533 107.555 195.533 109.588 194.639C110.724 194.103 112.04 192.911 111.442 191.48ZM106.239 194.698C105.163 194.818 104.146 194.937 103.07 195.116C104.026 194.222 104.983 193.328 106.06 192.553C106.598 192.195 107.136 191.778 107.674 191.48C108.571 191.004 111.681 190.348 110.605 192.851C110.007 194.222 107.495 194.52 106.239 194.698Z" fill="#263238"/>
  <path d="M88.2983 201.91C89.7933 201.85 91.2286 202.505 92.0659 203.399C92.8433 204.234 93.5609 205.426 93.5011 206.737C93.5011 206.796 93.4413 206.796 93.4413 206.737C93.0227 204.293 90.81 202.208 88.2983 202.029C88.2385 201.969 88.2385 201.91 88.2983 201.91Z" fill="#263238"/>
  <path d="M121.309 200.837C124.12 200.777 124.18 205.187 121.369 205.187C118.499 205.187 118.439 200.837 121.309 200.837Z" fill="#263238"/>
  <path d="M111.203 208.107C118.2 207.929 124.06 207.631 124.598 207.273C125.137 206.915 125.376 201.671 125.495 195.294C122.625 197.857 115.449 204.234 111.203 208.107Z" fill="#263238"/>
  <path d="M133.031 64.4839C133.031 64.4839 127.469 126.939 126.572 131.707C126.333 132.779 126.213 138.679 126.153 146.307C125.974 162.875 126.094 192.732 126.094 192.732H99.9597C99.9597 192.732 100.737 141.004 101.873 131.468C103.01 121.933 110.425 64.4839 110.425 64.4839H133.031Z" fill="#455A64"/>
  <path d="M101.096 188.143C105.163 188.083 104.026 188.024 108.093 187.964C110.066 187.964 123.223 187.845 125.077 188.143C125.137 188.143 125.137 188.203 125.077 188.203C123.223 188.501 110.066 188.381 108.093 188.381C104.026 188.322 105.163 188.322 101.096 188.203C101.036 188.262 101.036 188.143 101.096 188.143Z" fill="#263238"/>
  <path d="M121.13 158.584C121.13 154.83 121.19 151.015 121.19 147.261C121.19 143.626 121.19 139.931 121.369 136.296C121.728 128.906 123.223 121.635 124.299 114.305C125.376 106.975 126.273 99.6448 127.05 92.2551C127.947 83.9714 128.785 75.7473 129.622 67.4636C129.622 67.404 129.741 67.404 129.682 67.4636C128.426 82.1835 127.05 96.963 125.017 111.623C124.479 115.259 123.941 118.894 123.343 122.529C122.745 126.224 122.146 129.859 121.847 133.614C121.548 137.249 121.489 140.884 121.489 144.579C121.429 148.334 121.429 152.148 121.369 155.902C121.309 164.305 121.19 177.178 121.13 185.58C121.13 185.759 120.891 185.759 120.891 185.58C121.01 178.072 121.07 166.093 121.13 158.584Z" fill="#263238"/>
  <path d="M138.592 64.4839C138.592 64.4839 127.529 126.939 126.632 131.707C126.393 132.779 126.273 138.679 126.213 146.307L113.774 64.4839H138.592Z" fill="#263238"/>
  <path d="M115.15 210.491C116.465 210.789 153.423 207.75 154.799 206.737C155.337 206.379 155.158 200.956 154.799 194.46C154.799 194.4 154.799 194.341 154.799 194.281C154.739 192.911 154.619 191.54 154.559 190.169C154.559 189.99 154.559 189.812 154.5 189.573C153.902 180.157 153.064 170.443 153.064 170.443L128.306 172.47L130.399 191.361L130.459 192.136L130.878 196.069L130.937 196.486C130.937 196.486 117.302 203.995 115.987 205.247C114.671 206.379 113.834 210.133 115.15 210.491Z" fill="#F7A9A0"/>
  <path d="M115.15 210.491C116.465 210.789 153.423 207.75 154.799 206.737C155.337 206.379 155.158 200.956 154.799 194.46C154.799 194.4 154.799 194.341 154.799 194.281C154.739 192.911 154.619 191.54 154.559 190.169C154.559 189.99 154.559 189.812 154.5 189.573L130.399 191.361L130.459 192.136L130.878 196.069L130.937 196.486C130.937 196.486 117.302 203.995 115.987 205.247C114.671 206.379 113.834 210.133 115.15 210.491Z" fill="#EBEBEB"/>
  <path d="M115.15 210.491C116.465 210.789 153.423 207.75 154.799 206.736C155.337 206.379 155.158 200.956 154.799 194.46C154.799 194.4 154.799 194.341 154.799 194.281L130.938 196.009L130.997 196.427C130.997 196.427 117.362 203.935 116.047 205.187C114.671 206.379 113.834 210.133 115.15 210.491Z" fill="#FFC727"/>
  <path d="M115.449 209.001C121.668 208.346 146.785 206.2 153.005 206.021C153.064 206.021 153.064 206.081 153.005 206.081C146.845 206.856 121.668 208.822 115.449 209.12C115.329 209.12 115.329 209.001 115.449 209.001Z" fill="#263238"/>
  <path d="M128.306 196.248C130.698 195.592 133.748 195.711 135.782 197.321C135.841 197.38 135.782 197.499 135.662 197.499C133.15 196.963 130.878 196.665 128.306 196.605C128.127 196.546 128.127 196.248 128.306 196.248Z" fill="#263238"/>
  <path d="M126.572 197.44C128.964 196.784 132.014 196.903 134.047 198.512C134.107 198.572 134.047 198.691 133.928 198.691C131.416 198.155 129.143 197.857 126.572 197.797C126.452 197.738 126.452 197.499 126.572 197.44Z" fill="#263238"/>
  <path d="M124.897 198.632C127.29 197.976 130.339 198.095 132.373 199.704C132.433 199.764 132.373 199.883 132.253 199.883C129.741 199.347 127.469 199.049 124.897 198.989C124.778 198.93 124.718 198.691 124.897 198.632Z" fill="#263238"/>
  <path d="M126.034 194.579C127.888 195.771 130.16 196.129 132.253 196.725C132.492 196.784 132.612 196.546 132.612 196.367C132.672 196.367 132.672 196.307 132.672 196.248C131.835 194.281 130.22 192.195 128.426 190.944C127.349 190.169 125.495 189.752 124.658 191.123C123.821 192.493 124.957 193.864 126.034 194.579ZM125.256 192.613C124.598 189.99 127.589 191.123 128.366 191.719C128.844 192.076 129.323 192.553 129.801 193.03C130.758 193.983 131.536 195.056 132.373 196.069C131.356 195.711 130.339 195.473 129.323 195.175C128.067 194.818 125.615 194.102 125.256 192.613Z" fill="#263238"/>
  <path d="M140.566 191.838C139.848 190.348 137.994 190.646 136.798 191.301C134.944 192.374 133.09 194.281 132.074 196.188C132.074 196.248 132.074 196.248 132.134 196.307C132.134 196.486 132.253 196.725 132.433 196.665C134.585 196.248 136.918 196.129 138.831 195.116C139.968 194.52 141.224 193.268 140.566 191.838ZM135.542 195.413C134.526 195.652 133.449 195.771 132.433 196.069C133.33 195.116 134.227 194.162 135.243 193.268C135.722 192.851 136.26 192.434 136.798 192.136C137.635 191.599 140.745 190.705 139.848 193.268C139.31 194.698 136.798 195.175 135.542 195.413Z" fill="#263238"/>
  <path d="M117.601 204.055C119.097 203.816 120.592 204.412 121.489 205.187C122.326 205.962 123.103 207.094 123.223 208.346C123.223 208.405 123.163 208.405 123.163 208.346C122.565 205.962 120.113 204.055 117.661 204.114C117.601 204.174 117.601 204.055 117.601 204.055Z" fill="#263238"/>
  <path d="M150.373 200.122C153.184 199.824 153.603 204.174 150.792 204.472C147.981 204.77 147.563 200.42 150.373 200.122Z" fill="#263238"/>
  <path d="M129.861 194.102L155.995 192.97C155.995 192.97 148.878 135.878 148.759 132.362C148.4 123.244 142.36 64.4243 142.36 64.4243H110.485C110.485 64.4243 112.518 78.0119 115.927 86.5936C115.927 86.5936 118.558 87.4279 122.625 89.6329C122.625 89.6329 125.615 128.548 125.735 133.375C125.854 143.03 129.861 194.102 129.861 194.102Z" fill="#455A64"/>
  <path d="M130.579 189.335C134.645 189.097 133.449 189.097 137.576 188.858C139.549 188.739 152.646 188.083 154.56 188.322C154.619 188.322 154.619 188.381 154.56 188.381C152.706 188.739 139.609 189.216 137.576 189.275C133.509 189.395 134.645 189.335 130.579 189.395C130.459 189.454 130.459 189.335 130.579 189.335Z" fill="#263238"/>
  <path d="M139.968 67.9404C141.164 82.7795 142.36 97.559 143.735 112.339C145.111 127.178 146.725 142.017 148.639 156.796C149.716 165.08 150.912 176.701 152.227 184.925C152.227 184.985 152.167 184.985 152.167 184.925C149.536 170.324 147.622 152.148 145.948 137.368C144.274 122.589 142.958 107.809 141.762 93.0298C141.104 84.6865 140.446 76.2837 139.848 67.8808C139.788 67.8212 139.968 67.8212 139.968 67.9404Z" fill="#263238"/>
  <path d="M114.731 86.0572C117.422 87.0107 120.053 88.3218 122.565 89.6925C122.685 89.7521 122.625 89.8713 122.505 89.8713C119.874 88.739 117.183 87.6663 114.611 86.4148C114.372 86.2956 114.492 85.9976 114.731 86.0572Z" fill="#263238"/>
  <path d="M113.894 68.0596C113.894 67.9404 114.073 67.9404 114.073 68.0596C114.073 71.1585 114.252 73.8999 114.492 76.82C114.611 78.1907 115.688 85.6401 118.08 85.1037C118.498 84.9845 118.678 84.6269 118.738 84.031C118.797 83.3159 118.558 82.4219 118.439 81.7664C118.199 80.2169 117.96 78.6079 117.841 77.0584C117.601 74.1383 117.601 71.1585 117.96 68.2384C117.96 68.1192 118.14 68.1788 118.14 68.2384C118.14 72.2908 118.259 76.4029 118.857 80.4553C119.156 82.4219 120.113 85.3421 118.08 85.64C115.987 85.938 114.671 81.0513 114.432 79.6806C113.595 75.8665 113.595 71.8141 113.894 68.0596Z" fill="#263238"/>
  <path d="M117.96 85.2825C118.199 85.7593 118.319 86.2956 118.498 86.832C118.618 87.2492 118.738 87.6663 118.738 88.0835C118.738 88.1431 118.618 88.2027 118.558 88.1431C118.259 87.7855 118.14 87.3088 118.02 86.8916C117.841 86.4148 117.661 85.9381 117.482 85.4613C117.362 85.1633 117.841 84.9846 117.96 85.2825Z" fill="#263238"/>
  <path d="M12.2292 195.533L12.1096 194.341L75.2014 191.123L70.5368 163.113L71.7329 162.934L76.6367 192.255L12.2292 195.533Z" fill="#C7C7C7"/>
  <path d="M19.8149 203.442C22.6763 201.211 23.1814 197.091 20.9431 194.24C18.7047 191.388 14.5706 190.885 11.7091 193.116C8.84772 195.346 8.34261 199.466 10.581 202.317C12.8193 205.169 16.9535 205.672 19.8149 203.442Z" fill="#37474F"/>
  <path d="M12.7676 198.274C12.7676 199.943 14.0832 201.254 15.7577 201.254C17.4322 201.254 18.7478 199.943 18.7478 198.274C18.7478 196.605 17.4322 195.294 15.7577 195.294C14.143 195.235 12.7676 196.605 12.7676 198.274Z" fill="#EBEBEB"/>
  <path d="M67.8635 204.654C71.3985 203.818 73.5844 200.285 72.7459 196.762C71.9074 193.24 68.3619 191.061 64.8269 191.897C61.2919 192.733 59.106 196.266 59.9445 199.788C60.7831 203.311 64.3285 205.489 67.8635 204.654Z" fill="#37474F"/>
  <path d="M63.3008 198.274C63.3008 199.943 64.6164 201.254 66.2909 201.254C67.9654 201.254 69.2811 199.943 69.2811 198.274C69.2811 196.605 67.9654 195.294 66.2909 195.294C64.6762 195.235 63.3008 196.605 63.3008 198.274Z" fill="#EBEBEB"/>
  <path d="M23.4722 202.803L23.4124 201.611L86.5042 198.393L80.3445 161.623L81.5405 161.444L87.8796 199.466L23.4722 202.803Z" fill="#C7C7C7"/>
  <path d="M31.2517 210.531C34.0477 208.22 34.4338 204.087 32.1141 201.3C29.7944 198.514 25.6472 198.129 22.8512 200.441C20.0552 202.753 19.6691 206.885 21.9888 209.672C24.3085 212.458 28.4557 212.843 31.2517 210.531Z" fill="#37474F"/>
  <path d="M24.0702 205.485C24.0702 207.154 25.3858 208.465 27.0603 208.465C28.7348 208.465 30.0505 207.154 30.0505 205.485C30.0505 203.816 28.7348 202.505 27.0603 202.505C25.3858 202.505 24.0702 203.876 24.0702 205.485Z" fill="#EBEBEB"/>
  <path d="M83.6615 208.045C85.0613 204.704 83.4783 200.865 80.1257 199.47C76.773 198.075 72.9204 199.653 71.5206 202.993C70.1207 206.334 71.7038 210.174 75.0564 211.569C78.409 212.964 82.2617 211.386 83.6615 208.045Z" fill="#37474F"/>
  <path d="M74.6035 205.485C74.6035 207.154 75.9192 208.465 77.5937 208.465C79.2681 208.465 80.5838 207.154 80.5838 205.485C80.5838 203.816 79.2681 202.505 77.5937 202.505C75.979 202.505 74.6035 203.876 74.6035 205.485Z" fill="#EBEBEB"/>
  <path d="M9.95668 159.359L0.74707 117.523L63.5399 107.392L64.1977 151.135L63.6595 151.194L9.95668 159.359ZM2.18234 118.477L10.9135 158.048L63.0016 150.122L62.4036 108.822L2.18234 118.477Z" fill="#A6A6A6"/>
  <path d="M16.7679 115.534L15.5862 115.718L22.0538 156.933L23.2355 156.749L16.7679 115.534Z" fill="#A6A6A6"/>
  <path d="M33.6034 112.882L32.4146 113.012L37.0223 154.656L38.2111 154.526L33.6034 112.882Z" fill="#A6A6A6"/>
  <path d="M50.0163 110.489L48.8213 110.54L50.6405 152.517L51.8355 152.465L50.0163 110.489Z" fill="#A6A6A6"/>
  <path d="M63.4966 120.659L4.41541 131.321L4.62854 132.494L63.7098 121.832L63.4966 120.659Z" fill="#A6A6A6"/>
  <path d="M63.4871 136.495L7.41211 144.795L7.58781 145.974L63.6628 137.674L63.4871 136.495Z" fill="#A6A6A6"/>
  <path d="M89.7336 161.325L63.0018 151.015V107.333L103.847 119.132L89.7336 161.325ZM64.1381 150.181L88.9562 159.716L102.232 119.907L64.0783 108.882V150.181H64.1381Z" fill="#DBDBDB"/>
  <path d="M63.787 120.679L63.3593 121.792L97.8744 134.962L98.3021 133.849L63.787 120.679Z" fill="#DBDBDB"/>
  <path d="M63.7623 136.542L63.3105 137.646L92.8788 149.666L93.3306 148.562L63.7623 136.542Z" fill="#DBDBDB"/>
  <path d="M76.5815 111.919L71.0126 153.627L72.1982 153.784L77.7671 112.077L76.5815 111.919Z" fill="#DBDBDB"/>
  <path d="M89.8165 115.729L80.4486 157.184L81.6155 157.445L90.9833 115.991L89.8165 115.729Z" fill="#DBDBDB"/>
  <path d="M73.1734 74.1433L62.9919 107.995L64.1376 108.337L74.3191 74.4855L73.1734 74.1433Z" fill="#DBDBDB"/>
  <path d="M113.546 82.1858L102.386 119.292L103.532 119.634L114.692 82.528L113.546 82.1858Z" fill="#DBDBDB"/>
  <path d="M71.2987 72.4707L70.8164 74.8057L116.623 84.2008L117.106 81.8659L71.2987 72.4707Z" fill="#263238"/>
  <path d="M44.6423 121.933L55.945 127.118L74.5436 123.423L63.4204 120.265L44.6423 121.933Z" fill="#FFC727"/>
  <path opacity="0.1" d="M44.6423 121.933L55.945 127.118L74.5436 123.423L63.4204 120.265L44.6423 121.933Z" fill="black"/>
  <path d="M64.2577 123.542C64.3773 128.31 65.5135 151.135 61.0881 151.552C59.5333 151.731 58.098 148.155 57.0216 142.851C56.9019 142.315 56.7823 141.778 56.7225 141.242C56.3637 139.275 56.0647 137.07 55.7657 134.806C55.7059 134.269 55.6461 133.733 55.5863 133.197C55.3471 131.111 55.1677 128.906 55.0481 126.701C55.0481 126.164 54.9883 125.628 54.9883 125.092C54.9883 124.615 54.9285 124.198 54.9285 123.721C54.8687 122.231 54.8687 120.741 54.8687 119.311C54.8687 118.775 54.8687 118.238 54.8687 117.702C54.9285 114.722 55.0481 111.921 55.2275 109.299C55.2873 108.763 55.2873 108.286 55.3471 107.809C56.0049 101.135 57.2608 96.3075 58.995 95.8307C62.7028 94.8772 63.8989 111.683 64.2577 123.542Z" fill="#E6A36E"/>
  <path d="M61.3273 140.05C61.2675 140.11 61.2077 140.11 61.1479 140.169L61.0881 140.229C59.5333 140.765 58.1578 141.659 57.0215 142.97C56.9019 142.434 56.7823 141.897 56.7225 141.361C58.098 140.229 59.7725 139.573 61.2077 139.812H61.2675H61.3273C61.3871 139.812 61.4469 139.931 61.3273 140.05Z" fill="#CC8A58"/>
  <path d="M60.7891 133.197C60.7293 133.197 60.6695 133.256 60.6097 133.256L60.5499 133.316C58.9352 133.375 57.3206 133.852 55.9451 134.806C55.8853 134.865 55.8255 134.865 55.7657 134.925C55.7059 134.388 55.6461 133.852 55.5863 133.316C57.2608 132.422 59.2343 132.243 60.7293 132.899C60.7293 132.899 60.7293 132.899 60.7891 132.958H60.8489C60.8489 132.958 60.9087 133.137 60.7891 133.197Z" fill="#CC8A58"/>
  <path d="M60.4303 126.224C60.3705 126.224 60.3107 126.224 60.2509 126.224C60.2509 126.224 60.1911 126.224 60.1313 126.224C58.5166 125.926 56.902 125.986 55.3471 126.641C55.2275 126.701 55.1079 126.76 54.9883 126.82C54.9883 126.284 54.9285 125.747 54.9285 125.211C56.7823 124.615 58.9352 124.853 60.3705 125.866C60.3705 125.866 60.4303 125.866 60.4303 125.926C60.4303 125.926 60.4901 125.926 60.4901 125.986C60.5499 126.045 60.6097 126.224 60.4303 126.224Z" fill="#CC8A58"/>
  <path d="M60.1911 118.894C60.1313 118.894 60.0715 118.894 60.0117 118.894C60.0117 118.894 59.9519 118.894 59.8921 118.894C58.2774 118.596 56.6627 118.656 55.1079 119.311C54.9883 119.371 54.9285 119.371 54.8687 119.43C54.8687 118.894 54.8687 118.358 54.8687 117.821C56.6627 117.285 58.7558 117.523 60.1313 118.536C60.1313 118.536 60.1911 118.536 60.1911 118.596C60.1911 118.596 60.2509 118.596 60.2509 118.656C60.3107 118.715 60.3107 118.894 60.1911 118.894Z" fill="#CC8A58"/>
  <path d="M60.191 110.253C60.1312 110.253 60.0714 110.253 60.0116 110.193C60.0116 110.193 59.9518 110.193 59.892 110.193C58.3969 109.538 56.7823 109.24 55.2274 109.418C55.2872 108.882 55.2872 108.405 55.347 107.928C57.1411 107.928 59.0548 108.644 60.191 109.895V109.955L60.2508 110.014C60.3106 110.133 60.3106 110.312 60.191 110.253Z" fill="#CC8A58"/>
  <path d="M71.2545 126.403C70.5967 131.111 67.8458 153.638 63.4204 153.042C61.8655 152.863 61.0283 149.049 60.8489 143.626C60.8489 143.089 60.7891 142.553 60.7891 142.017C60.7891 139.99 60.7891 137.785 60.9087 135.521C60.9087 134.984 60.9685 134.448 61.0283 133.912C61.1479 131.826 61.3871 129.621 61.6263 127.476C61.6861 126.939 61.7459 126.403 61.8057 125.926C61.8655 125.509 61.9253 125.032 61.9851 124.615C62.1645 123.185 62.4037 121.695 62.6429 120.265C62.7625 119.728 62.8224 119.192 62.942 118.715C63.4802 115.855 64.0782 113.113 64.736 110.61C64.8556 110.133 64.9753 109.657 65.0949 109.18C66.8291 102.803 68.9222 98.3933 70.7163 98.3337C74.6035 98.0953 72.929 114.782 71.2545 126.403Z" fill="#EDAA76"/>
  <path d="M65.6929 141.838C65.6331 141.898 65.5733 141.898 65.5135 141.898L65.4537 141.957C63.839 142.136 62.344 142.672 60.9685 143.685C60.9685 143.149 60.9087 142.613 60.9087 142.076C62.4636 141.302 64.1979 141.063 65.6331 141.6C65.6331 141.6 65.6929 141.6 65.6929 141.659H65.7527C65.7527 141.6 65.8125 141.778 65.6929 141.838Z" fill="#CC8A58"/>
  <path d="M66.291 134.985C66.2312 134.985 66.1714 134.985 66.1116 134.985C66.1116 134.985 66.0517 134.985 65.9919 134.985C64.3773 134.687 62.7626 134.746 61.2077 135.342C61.1479 135.342 61.0881 135.402 61.0283 135.402C61.0283 134.865 61.0881 134.329 61.1479 133.793C62.942 133.316 64.9155 133.614 66.291 134.567C66.291 134.567 66.291 134.567 66.3508 134.627C66.3508 134.627 66.4106 134.627 66.4106 134.687C66.4106 134.806 66.4106 134.985 66.291 134.985Z" fill="#CC8A58"/>
  <path d="M67.1281 128.131C67.0683 128.131 67.0086 128.131 66.9487 128.071C66.9487 128.071 66.8889 128.071 66.8291 128.071C65.2743 127.416 63.6596 127.118 62.045 127.356C61.9254 127.356 61.8058 127.416 61.6862 127.416C61.746 126.88 61.8058 126.343 61.8656 125.866C63.7792 125.747 65.8723 126.462 67.1281 127.833V127.893L67.188 127.952C67.2478 127.952 67.2478 128.131 67.1281 128.131Z" fill="#CC8A58"/>
  <path d="M68.085 120.92C68.0252 120.92 67.9654 120.92 67.9056 120.861C67.9056 120.861 67.8458 120.861 67.786 120.861C66.2311 120.205 64.6164 119.907 63.0018 120.145C62.8822 120.145 62.8224 120.205 62.7028 120.205C62.8224 119.669 62.8822 119.132 63.0018 118.656C64.8557 118.536 66.8889 119.311 68.085 120.622V120.682L68.1448 120.741C68.2046 120.801 68.2046 120.92 68.085 120.92Z" fill="#CC8A58"/>
  <path d="M69.5203 112.517C69.4605 112.517 69.4007 112.458 69.3409 112.398C69.2811 112.398 69.2811 112.398 69.2213 112.339C67.8458 111.325 66.3507 110.67 64.7361 110.491C64.8557 110.014 64.9753 109.538 65.0949 109.061C66.889 109.478 68.6232 110.61 69.5203 112.1V112.16C69.5203 112.16 69.5203 112.219 69.5801 112.219C69.6997 112.398 69.6997 112.517 69.5203 112.517Z" fill="#CC8A58"/>
  <path d="M44.6424 121.933C44.6424 121.933 45.36 144.698 45.1208 145.592C44.8816 146.486 43.5062 157.154 43.6258 157.452C43.7454 157.75 54.5098 163.888 54.8687 163.53C55.2275 163.173 55.8853 147.797 55.8853 145.89C55.8853 143.983 56.0049 127.058 56.0049 127.058L44.6424 121.933Z" fill="#FFC727"/>
  <path d="M55.9451 127.118L54.8088 163.53C54.8088 163.53 72.2712 158.405 72.3908 158.107C72.5702 157.809 73.4074 147.499 73.1682 145.89C72.929 144.281 74.4839 123.423 74.4839 123.423L55.9451 127.118Z" fill="#FFC727"/>
  <path opacity="0.1" d="M55.9451 127.118L54.8088 163.53C54.8088 163.53 72.2712 158.405 72.3908 158.107C72.5702 157.809 73.4074 147.499 73.1682 145.89C72.929 144.281 74.4839 123.423 74.4839 123.423L55.9451 127.118Z" fill="black"/>
  <path d="M31.725 168.477L9.95679 159.418L9.89698 159.12L0.687378 117.344L27.7182 128.37L31.725 168.477ZM10.9734 158.524L30.2897 166.57L26.5819 129.144L2.30205 119.252L10.9734 158.524Z" fill="#DBDBDB"/>
  <path d="M9.77785 121.12L8.59985 121.327L15.6495 161.298L16.8275 161.091L9.77785 121.12Z" fill="#DBDBDB"/>
  <path d="M18.6725 124.91L17.4884 125.078L23.1171 164.489L24.3012 164.321L18.6725 124.91Z" fill="#DBDBDB"/>
  <path d="M8.22551 148.185L7.83081 149.31L29.7349 156.941L30.1296 155.816L8.22551 148.185Z" fill="#DBDBDB"/>
  <path d="M4.71284 131.572L4.27209 132.68L28.1769 142.123L28.6177 141.015L4.71284 131.572Z" fill="#DBDBDB"/>
  <path d="M31.6651 168.417L26.4623 128.25L103.787 119.073L89.6737 161.325L89.3149 161.385L31.6651 168.417ZM27.8377 129.263L32.7416 167.106L88.8365 160.253L102.113 120.503L27.8377 129.263Z" fill="#EBEBEB"/>
  <path d="M44.9731 126.66L43.7816 126.764L47.1796 165.591L48.3712 165.487L44.9731 126.66Z" fill="#EBEBEB"/>
  <path d="M64.4439 124.211L62.156 163.714L63.35 163.783L65.6379 124.279L64.4439 124.211Z" fill="#EBEBEB"/>
  <path d="M84.1966 121.824L76.5824 161.994L77.7576 162.215L85.3718 122.045L84.1966 121.824Z" fill="#EBEBEB"/>
  <path d="M98.3012 132.962L28.3569 140.804L28.4907 141.988L98.4349 134.146L98.3012 132.962Z" fill="#EBEBEB"/>
  <path d="M93.144 148.564L29.8575 155.158L29.9819 156.344L93.2684 149.749L93.144 148.564Z" fill="#EBEBEB"/>
  <path d="M118.379 32.6007C115.15 37.6067 103.309 55.8427 95.8932 55.8427C91.408 55.8427 76.278 48.2742 72.9888 45.7116C69.1017 42.7318 79.5671 33.3159 82.2582 34.4482C85.6072 35.8188 94.6374 41.1228 96.7903 41.1228C98.704 41.1228 104.146 35.0441 114.432 28.3695C119.695 24.8534 121.19 28.2503 118.379 32.6007Z" fill="#F7A9A0"/>
  <path d="M73.3476 45.95C71.9722 45.2944 65.8125 41.6592 64.3174 40.2885C62.8224 38.9178 58.8754 34.5674 59.7724 33.3159C60.6695 32.0644 61.9851 33.2563 61.9851 33.2563C61.9851 33.2563 60.6097 31.1705 61.6861 29.9786C62.7626 28.7867 64.6763 30.6937 64.6763 30.6937C64.6763 30.6937 63.4204 28.4291 64.5567 27.3564C65.6929 26.2837 67.3076 28.4887 67.3076 28.4887C67.3076 28.4887 66.0517 26.4625 67.3674 25.9857C68.982 25.3898 70.8957 29.323 72.63 30.7533C73.0486 31.0513 81.1818 36.6532 81.1818 36.6532L73.3476 45.95Z" fill="#F7A9A0"/>
  <path d="M67.1879 28.3695C68.6232 31.2897 69.6996 32.3028 72.4506 33.9715C72.5104 34.031 72.4506 34.0906 72.3908 34.0311C69.58 32.6008 68.0251 31.5281 67.0683 28.4291C67.0085 28.2504 67.1281 28.1908 67.1879 28.3695Z" fill="#263238"/>
  <path d="M64.5567 30.515C66.291 33.3755 67.487 34.5078 70.1781 36.4745C70.2379 36.4745 70.1781 36.5937 70.1183 36.5341C67.3076 34.8058 65.7528 33.7331 64.3773 30.5746C64.3773 30.4554 64.4969 30.3958 64.5567 30.515Z" fill="#263238"/>
  <path d="M62.1646 33.3755C64.0184 36.0573 65.3341 37.3088 68.2046 38.9178C68.2644 38.9774 68.2046 39.037 68.1448 39.037C65.0351 37.7259 63.4802 36.1169 62.1047 33.4351C61.9851 33.2563 62.0449 33.1967 62.1646 33.3755Z" fill="#263238"/>
  <path d="M61.3274 34.031C63.3607 40.7056 69.6998 39.8713 71.4938 39.3349C73.2879 38.7986 78.9692 35.9976 76.9359 29.2634C74.9026 22.5888 68.1449 24.1383 66.9488 24.4958C65.5734 24.913 59.2343 27.3564 61.3274 34.031Z" fill="#FFC727"/>
  <path d="M67.4871 25.3898C67.4871 25.3898 67.7861 27.8928 72.2114 26.4029C72.2114 26.4029 69.2213 23.2444 67.4871 25.3898Z" fill="#455A64"/>
  <path d="M67.9057 26.4624C67.9057 26.4624 69.9987 26.5816 69.4007 22.8271C69.4007 22.8271 66.4106 24.7342 67.9057 26.4624Z" fill="#455A64"/>
  <path d="M67.7861 25.7473C67.7861 25.7473 67.0684 27.714 63.8391 25.6281C63.8391 25.6281 66.8292 23.7211 67.7861 25.7473Z" fill="#455A64"/>
  <path d="M67.6066 25.2706C67.6066 25.2706 65.693 26.8796 69.4007 29.7402C69.4007 29.7402 70.3575 25.5089 67.6066 25.2706Z" fill="#455A64"/>
  <path d="M67.4273 25.6282C67.4273 25.6282 64.6166 24.8534 64.9754 29.621C64.9754 29.621 69.2811 28.1311 67.4273 25.6282Z" fill="#455A64"/>
  <path d="M67.9057 26.2241C67.9057 26.2241 68.2645 23.7211 66.1714 21.9929C66.1714 21.9929 64.9754 21.9929 64.6764 23.2443C64.6764 23.2443 67.0685 24.5554 67.2479 26.7604L67.7861 26.4029" fill="#455A64"/>
  <path d="M84.1719 36.4148C84.1719 36.4148 83.0357 32.5411 82.1386 30.9321C81.2416 29.323 75.7995 24.615 74.7231 25.7473C73.2878 27.1776 75.9191 30.5149 77.4142 32.0048C77.4142 32.0048 74.1251 35.3421 75.5005 38.143C76.8162 41.0036 84.1719 36.4148 84.1719 36.4148Z" fill="#F7A9A0"/>
  <path d="M74.4241 26.2837C74.0653 28.5483 76.1584 30.3361 77.5339 31.8856C77.6535 32.0048 77.5937 32.124 77.4741 32.1836C76.2182 33.6734 74.8427 36.1168 75.381 38.1431C75.381 38.2026 75.3212 38.2027 75.3212 38.2027C74.4839 36.1168 75.6202 33.6139 77.1152 32.0644C75.68 30.4553 73.6467 28.5483 74.4241 26.2837Z" fill="#263238"/>
  <path d="M101.575 36.0572L111.562 44.9369C111.562 44.9369 117.243 38.1431 119.575 31.5876C121.907 25.0322 116.286 25.8665 112.339 28.4887C108.332 31.1109 101.575 36.0572 101.575 36.0572Z" fill="#FFC727"/>
  <path d="M112.698 42.7914C108.332 39.3349 105.043 35.6997 104.266 34.9845C104.206 34.9249 104.266 34.9249 104.326 34.9249C105.043 35.6401 109.469 39.3945 112.758 42.7318L112.698 42.7914Z" fill="#263238"/>
  <path d="M119.575 31.5876C117.243 38.0834 111.562 44.9368 111.562 44.9368L106.957 40.8248C110.007 36.5936 114.911 29.8594 117.362 26.5816C119.575 26.4625 121.01 27.7139 119.575 31.5876Z" fill="#263238"/>
  <path d="M106.957 72.8867C107.555 73.4827 144.333 73.1251 144.513 72.8867C144.991 72.2312 139.37 48.5721 135.124 39.6329C129.682 28.1311 126.811 27.1776 125.137 26.522C122.924 25.6877 117.243 26.0453 116.286 26.4624C115.209 26.9392 112.518 32.3027 111.263 36.5935C108.751 45.1752 106.419 72.3504 106.957 72.8867Z" fill="#FFC727"/>
  <path d="M130.639 37.1895C130.459 48.4529 129.981 61.8021 126.811 65.5566C122.087 71.2777 110.186 77.118 105.342 78.1907C103.309 78.6674 97.6276 63.4112 99.8403 62.9344C104.445 61.9809 115.03 57.6305 115.987 56.677C116.884 55.783 120.592 44.8176 123.522 36.3552C127.051 26.1644 130.758 30.6936 130.639 37.1895Z" fill="#F7A9A0"/>
  <path d="M102.352 62.3385C102.352 62.3385 96.2521 63.888 92.3051 65.0799C90.0924 65.7354 86.4445 67.2253 85.069 68.4768C82.9759 70.3242 75.4408 79.323 77.5937 81.1704C79.5672 82.8391 85.0092 74.317 85.0092 74.317C85.0092 74.317 78.7299 82.4815 81.421 84.0906C84.172 85.6996 89.016 75.211 89.016 75.211C89.016 75.211 82.7367 83.733 85.7866 84.9249C88.119 85.8188 93.0826 76.5816 93.0826 76.5816C93.0826 76.5816 87.7601 83.9714 90.0924 84.9845C92.6639 86.1168 97.807 77.8927 97.807 77.8927C104.206 79.5614 107.973 77.7139 110.425 76.1049C111.083 75.6877 102.352 62.3385 102.352 62.3385Z" fill="#F7A9A0"/>
  <path d="M86.9826 71.3968C86.2052 72.3504 85.4278 73.2443 84.7101 74.2574C83.9925 75.2705 83.3945 76.2836 82.7964 77.3563C81.3612 79.9189 80.8229 81.7663 80.8827 81.7067C81.8994 79.0846 84.2915 75.5089 85.0091 74.4958C85.7268 73.4231 86.3248 72.41 86.9826 71.3968C87.0424 71.3968 86.9826 71.3373 86.9826 71.3968Z" fill="#263238"/>
  <path d="M90.6307 73.7806C89.315 74.8533 86.5043 78.727 85.4278 81.3492C85.368 81.4683 85.4279 81.4683 85.4877 81.3492C86.3847 80.0977 89.7934 75.0321 90.6307 73.7806C90.6905 73.7806 90.6905 73.7806 90.6307 73.7806Z" fill="#263238"/>
  <path d="M94.1589 75.3301C92.604 76.82 91.3481 78.9058 90.3315 81.2896C90.2717 81.4088 90.3913 81.4088 90.4511 81.2896C91.7069 79.2634 92.6638 77.7139 94.2785 75.3897C94.2785 75.3301 94.2187 75.2705 94.1589 75.3301Z" fill="#263238"/>
  <path d="M118.379 46.963L131.595 48.9297C131.595 48.9297 132.612 40.1096 130.997 33.3754C129.383 26.6412 125.137 30.3957 123.223 34.7461C121.309 39.1561 118.379 46.963 118.379 46.963Z" fill="#FFC727"/>
  <path d="M131.237 46.3671C125.675 46.0095 120.891 44.8176 119.874 44.6984C119.814 44.6984 119.814 44.6389 119.874 44.6389C120.891 44.8176 126.632 45.4136 131.237 46.3075C131.296 46.3075 131.237 46.3671 131.237 46.3671Z" fill="#263238"/>
  <path d="M120.293 42.4339C120.891 40.944 121.788 38.7986 122.266 37.3087C122.266 37.3087 122.266 37.2491 122.206 37.3087C121.848 38.0834 121.489 38.9178 121.13 39.7521C121.13 39.6925 121.13 39.6329 121.19 39.6329C121.25 39.1561 121.369 38.739 121.369 38.2622C121.25 38.739 121.13 39.1561 121.01 39.6329C120.951 39.9309 120.891 40.2289 120.831 40.5268C120.652 40.944 120.173 42.0167 120.053 42.4339C119.754 43.149 118.14 47.1418 118.2 47.1418C118.319 47.1418 119.575 47.3206 119.814 47.3206C119.874 47.3206 119.874 47.2014 119.814 47.2014C119.575 47.2014 118.558 47.0227 118.439 47.0227C118.738 46.2479 119.037 45.5328 119.396 44.7581C119.695 43.9833 119.994 43.2086 120.293 42.4339Z" fill="#263238"/>
  <path d="M132.433 40.2288C132.313 40.646 132.253 41.0036 132.193 41.4207C132.193 41.5399 132.134 41.7187 132.134 41.8379C132.074 40.8248 132.014 39.8713 131.894 38.8582H131.835C131.954 40.5268 131.894 42.1955 131.835 43.8045C131.835 44.6388 131.775 45.4136 131.715 46.2479C131.715 46.6651 131.655 47.0822 131.655 47.4994C131.655 47.9761 131.595 48.8701 131.595 48.8701C131.356 48.8105 130.579 48.7509 130.34 48.6913C130.28 48.6913 130.28 48.7509 130.34 48.7509C130.579 48.8105 131.775 48.9893 131.775 48.9893C131.775 48.5721 131.894 48.0357 131.954 47.6186C132.014 47.2014 132.014 46.8439 132.074 46.4267C132.134 45.5924 132.193 44.6984 132.193 43.8641C132.193 43.3874 132.193 42.9106 132.193 42.4338C132.253 42.0763 132.373 41.7187 132.433 41.3611C132.492 40.944 132.552 40.5268 132.612 40.1692C132.552 40.1692 132.433 40.1692 132.433 40.2288Z" fill="#263238"/>
  <path d="M117.362 32.3623C119.396 32.9583 123.163 30.0381 124.718 27.5351C124.838 27.3564 124.658 25.5089 124.599 23.2443C124.539 21.8736 124.539 20.3242 124.599 18.8939C124.599 18.5959 115.628 20.503 115.628 20.503C115.628 20.503 116.346 23.4827 116.166 25.9261C116.166 26.1049 116.107 26.3433 116.047 26.522C116.047 26.522 116.047 26.5816 116.047 26.6412C115.808 27.7139 115.389 31.7664 117.362 32.3623Z" fill="#F7A9A0"/>
  <path d="M124.06 18.8939C123.522 21.2181 121.668 26.8796 116.944 26.7008C116.585 26.7008 116.286 26.6412 116.047 26.5816C116.047 26.5221 116.047 26.5221 116.047 26.4625C116.107 26.2837 116.107 26.1049 116.166 25.8665C116.346 23.4231 115.628 20.4434 115.628 20.4434C115.628 20.4434 122.087 19.1323 124.06 18.8939Z" fill="#263238"/>
  <path d="M125.077 7.63054C126.273 10.6699 125.316 19.8475 123.283 21.9929C120.293 25.1514 115.03 25.8665 112.219 22.1717C109.528 18.596 110.964 6.73662 113.296 4.7104C116.764 1.73066 123.343 3.10134 125.077 7.63054Z" fill="#F7A9A0"/>
  <path d="M116.884 13.8284C116.884 13.7688 116.944 13.8284 116.884 13.8284C116.824 14.4839 116.884 15.199 117.422 15.497V15.5566C116.705 15.3182 116.705 14.3647 116.884 13.8284Z" fill="#263238"/>
  <path d="M117.483 13.2324C118.499 13.2324 118.38 15.2586 117.423 15.2586C116.526 15.1991 116.645 13.2324 117.483 13.2324Z" fill="#263238"/>
  <path d="M113.415 13.6495C113.356 13.6495 113.415 13.5899 113.415 13.6495C113.356 14.3051 113.236 15.0202 112.638 15.199V15.2586C113.356 15.1394 113.475 14.2455 113.415 13.6495Z" fill="#263238"/>
  <path d="M112.877 12.9344C111.861 12.8152 111.681 14.7818 112.638 14.901C113.535 15.0798 113.714 13.0536 112.877 12.9344Z" fill="#263238"/>
  <path d="M118.319 12.3385C118.08 12.2789 117.841 12.1597 117.542 12.0405C117.243 11.9213 117.004 11.8617 116.824 11.5638C116.705 11.4446 116.764 11.1466 116.944 11.0274C117.243 10.789 117.661 10.8486 118.02 10.9678C118.379 11.087 118.678 11.3254 118.857 11.683C119.097 12.1001 118.678 12.4577 118.319 12.3385Z" fill="#263238"/>
  <path d="M112.16 11.9213C112.459 11.9213 112.698 11.8021 112.997 11.7425C113.296 11.6829 113.535 11.6829 113.774 11.4445C113.894 11.3254 113.894 11.087 113.774 10.9082C113.535 10.6102 113.116 10.6102 112.758 10.6698C112.339 10.7294 112.04 10.9082 111.801 11.2062C111.502 11.5041 111.801 11.9213 112.16 11.9213Z" fill="#263238"/>
  <path d="M117.602 19.609C117.422 19.7282 117.303 19.907 117.063 19.9666C116.824 19.9666 116.585 19.8474 116.405 19.7878C116.405 19.7878 116.346 19.7878 116.405 19.8474C116.525 20.0858 116.884 20.2646 117.183 20.205C117.422 20.1454 117.542 19.907 117.602 19.609C117.661 19.609 117.602 19.609 117.602 19.609Z" fill="#263238"/>
  <path d="M117.063 17.7616C116.704 18.2979 116.166 18.5363 115.628 18.5959C115.389 18.6555 115.09 18.5959 114.851 18.5959C114.791 18.5959 114.731 18.5959 114.731 18.5959C114.671 18.5959 114.671 18.5959 114.611 18.5959C114.552 18.5959 114.492 18.5363 114.492 18.4767V18.4171V18.3575C114.492 17.8808 114.611 17.1656 114.611 17.1656C114.432 17.2252 113.535 17.5828 113.535 17.3444C113.774 15.3182 114.073 12.994 114.731 11.0274C114.731 10.9678 114.851 10.9678 114.851 11.0274C114.671 12.994 114.193 14.9606 114.013 16.9272C114.312 16.8081 114.791 16.6889 115.03 16.6889C115.09 16.6889 114.851 18.0596 114.851 18.2979C115.568 18.3575 116.166 18.1787 117.063 17.7616C117.063 17.702 117.003 17.6424 117.063 17.7616Z" fill="#263238"/>
  <path d="M115.09 18.3576C115.09 18.3576 115.509 18.9535 116.047 19.1919C116.226 19.2515 116.465 19.3111 116.705 19.2515C117.183 19.1323 117.243 18.7151 117.183 18.298C117.123 18 117.004 17.702 117.004 17.702C117.004 17.702 116.286 18.3576 115.09 18.3576Z" fill="#263238"/>
  <path d="M116.047 19.1919C116.226 19.2515 116.465 19.3111 116.705 19.2515C117.183 19.1323 117.243 18.7151 117.183 18.298C116.705 18.3576 116.166 18.6555 116.047 19.1919Z" fill="#FF6596"/>
  <path d="M112.16 8.28605C115.21 10.3719 119.336 7.21335 119.336 7.21335C120.293 9.59714 122.685 9.29916 122.685 9.29916C122.685 9.29916 123.283 14.4243 124.658 14.4243C126.751 14.4243 127.349 7.39213 126.692 6.02145C126.034 4.65077 124.3 4.2932 124.3 4.2932C124.3 4.2932 124.18 3.2205 122.924 2.26698C121.489 1.19428 116.645 2.62455 116.645 2.62455C116.645 2.62455 116.286 1.73063 115.389 0.955896C114.791 0.479138 114.013 0.538732 113.535 1.13468C113.774 1.49225 113.954 1.90941 114.013 2.38617C114.253 3.87604 112.997 3.87604 113.057 2.50536C113.057 1.90941 113.236 1.43265 113.535 1.07509C112.937 0.181165 111.92 -0.11681 111.322 0.359948C110.306 1.31346 109.648 6.5578 112.16 8.28605Z" fill="#263238"/>
  <path d="M123.761 15.1394C123.761 15.1394 125.615 12.1001 126.991 12.7556C128.366 13.4112 127.05 17.702 125.555 18.4171C124 19.0727 123.402 17.702 123.402 17.702L123.761 15.1394Z" fill="#F7A9A0"/>
  <path d="M126.572 13.9476C126.632 13.9476 126.632 14.0072 126.572 13.9476C125.496 14.4839 125.017 15.5566 124.658 16.6293C124.957 16.2122 125.376 15.9738 125.974 16.3314V16.391C125.496 16.3314 125.197 16.391 124.898 16.8081C124.718 17.0465 124.599 17.4041 124.419 17.702C124.359 17.8212 124.18 17.7616 124.24 17.6424C124.12 16.2122 125.077 14.1859 126.572 13.9476Z" fill="#263238"/>
</svg>